SplineFontDB: 3.0
FontName: Estedad-regular
FullName: Estedad regular
FamilyName: Estedad
Weight: Regular
Copyright: Copyright (c) 2017, Amin (www.instagram.com/aminabedi68---aminabedi68@gmail.com),\nwith Reserved Font Name Estedad.\n\nThis Font Software is licensed under the SIL Open Font License, Version 1.1.
Version: 0.7(Beta1)
ItalicAngle: 0
UnderlinePosition: -204
UnderlineWidth: 102
Ascent: 1638
Descent: 410
InvalidEm: 0
LayerCount: 2
Layer: 0 0 "Back" 1
Layer: 1 0 "Fore" 0
XUID: [1021 89 1101065813 28845]
StyleMap: 0x0000
FSType: 0
OS2Version: 0
OS2_WeightWidthSlopeOnly: 0
OS2_UseTypoMetrics: 1
CreationTime: 1496828874
ModificationTime: 1500228519
PfmFamily: 17
TTFWeight: 400
TTFWidth: 5
LineGap: 0
VLineGap: 184
OS2TypoAscent: 500
OS2TypoAOffset: 1
OS2TypoDescent: -500
OS2TypoDOffset: 1
OS2TypoLinegap: 0
OS2WinAscent: 0
OS2WinAOffset: 1
OS2WinDescent: 0
OS2WinDOffset: 1
HheadAscent: 0
HheadAOffset: 1
HheadDescent: 0
HheadDOffset: 1
OS2Vendor: 'PfEd'
Lookup: 1 0 0 "single substitution 0" { "single substitution 0 subtable"  } []
Lookup: 5 9 0 "'calt' Contextual Alternates in Arabic lookup 6" { "'calt' Contextual Alternates in Arabic lookup 6 subtable"  } ['calt' ('DFLT' <'dflt' > 'arab' <'KUR ' 'SND ' 'URD ' 'dflt' > ) ]
Lookup: 1 9 0 "'fina' Terminal Forms in Arabic lookup 1" { "'fina' Terminal Forms in Arabic lookup 1 subtable"  } ['fina' ('arab' <'KUR ' 'SND ' 'URD ' 'dflt' > ) ]
Lookup: 1 9 0 "'medi' Medial Forms in Arabic lookup 1" { "'medi' Medial Forms in Arabic lookup 1 subtable"  } ['medi' ('arab' <'KUR ' 'SND ' 'URD ' 'dflt' > ) ]
Lookup: 1 9 0 "'init' Initial Forms in Arabic lookup 1" { "'init' Initial Forms in Arabic lookup 1 subtable"  } ['init' ('arab' <'KUR ' 'SND ' 'URD ' 'dflt' > ) ]
Lookup: 4 9 1 "'rlig' Required Ligatures in Arabic lookup 1" { "'rlig' Required Ligatures in Arabic lookup 1 subtable"  } ['rlig' ('DFLT' <'dflt' > 'arab' <'dflt' > ) ]

StartChar: period
Encoding: 46 46 0
Width: 360
VWidth: 1600
Flags: HMW
LayerCount: 2
Fore
SplineSet
53 90 m 1
 180 217 l 1
 307 90 l 1
 180 -37 l 1
 53 90 l 1
EndSplineSet
Validated: 1
EndChar

StartChar: asterisk
Encoding: 42 42 1
Width: 786
VWidth: 1600
Flags: HMW
LayerCount: 2
Fore
SplineSet
358 948 m 1
 428 948 l 1
 428 730 l 1
 583 884 l 1
 632 835 l 1
 478 680 l 1
 696 680 l 1
 696 610 l 1
 478 610 l 1
 632 456 l 1
 583 406 l 1
 428 561 l 1
 428 342 l 1
 358 342 l 1
 358 561 l 1
 204 406 l 1
 154 456 l 1
 309 610 l 1
 90 610 l 1
 90 680 l 1
 309 680 l 1
 154 835 l 1
 204 884 l 1
 358 730 l 1
 358 948 l 1
EndSplineSet
Validated: 1
EndChar

StartChar: parenleft
Encoding: 40 40 2
Width: 440
VWidth: 1600
Flags: HMW
LayerCount: 2
Fore
SplineSet
234 1243 m 1
 350 1187 l 1
 263 1009 219 815 219 622 c 0
 219 429 263 235 350 57 c 1
 234 0 l 1
 138 196 90 409 90 622 c 0
 90 835 138 1047 234 1243 c 1
EndSplineSet
Validated: 1
EndChar

StartChar: uni0660
Encoding: 1632 1632 4
Width: 656
VWidth: 1600
Flags: HMW
LayerCount: 2
Fore
SplineSet
328 540 m 0
 459 540 566 433 566 302 c 0
 566 171 459 64 328 64 c 0
 197 64 90 171 90 302 c 0
 90 433 197 540 328 540 c 0
328 411 m 0
 267 411 219 363 219 302 c 0
 219 241 267 193 328 193 c 0
 389 193 437 241 437 302 c 0
 437 363 389 411 328 411 c 0
EndSplineSet
Validated: 1
EndChar

StartChar: uni0661
Encoding: 1633 1633 5
Width: 490
VWidth: 1600
Flags: HMW
LayerCount: 2
Fore
SplineSet
214 1234 m 1
 325 818 400 417 400 0 c 1
 271 0 l 1
 271 401 200 790 90 1200 c 1
 214 1234 l 1
EndSplineSet
Validated: 1
EndChar

StartChar: uni0662
Encoding: 1634 1634 6
Width: 914
VWidth: 1600
Flags: HMW
LayerCount: 2
Fore
SplineSet
344 730 m 1
 380 486 401 251 401 0 c 1
 272 0 l 1
 272 399 225 831 90 1201 c 1
 209 1252 l 1
 250 1153 283 1012 331 918 c 0
 362 855 409 823 476 823 c 4
 670.91637173 823 671 1018.58417792 671 1244 c 1
 799 1244 l 1
 799 920.873642563 766.42471001 694 476 694 c 0
 429 694 388 705 344 730 c 1
EndSplineSet
Validated: 1
EndChar

StartChar: uni0663
Encoding: 1635 1635 7
Width: 1182
VWidth: 1600
Flags: HMW
LayerCount: 2
Fore
SplineSet
845 645 m 0
 764 645 668 705 626 781 c 1
 586 701 518 647 438 647 c 0
 409 647 369 654 341 669 c 1
 379 447 400 226 400 0 c 1
 271 0 l 1
 271 399 189 824 90 1200 c 1
 214 1234 l 1
 255 1078 295 774 423 774 c 0
 546 774 585 939 585 1110 c 0
 585 1146 584 1182 582 1217 c 1
 712 1223 l 1
 723 1024 702 774 845 774 c 0
 965 774 1007 861 1007 1021 c 0
 1007 1077 1002 1143 993 1217 c 1
 1122 1217 l 1
 1128 1160 1130 1107 1130 1057 c 0
 1130 800 1052 645 845 645 c 0
EndSplineSet
Validated: 1
EndChar

StartChar: uni0664
Encoding: 1636 1636 8
Width: 815
VWidth: 1600
Flags: HMW
LayerCount: 2
Fore
SplineSet
622 1197 m 1
 622 1068 l 1
 444 1068 325 1027 325 917 c 0
 325 798 430 775 610 775 c 1
 610 646 l 1
 380 646 218 492 218 324 c 0
 218 187 328 129 499 129 c 2
 725 129 l 1
 725 0 l 1
 499 0 l 2
 269 0 90 111 90 326 c 0
 90 495 189 621 325 700 c 1
 240 742 196 836 196 917 c 0
 196 1110 374 1197 622 1197 c 1
EndSplineSet
Validated: 1
EndChar

StartChar: uni0665
Encoding: 1637 1637 9
Width: 999
VWidth: 1600
Flags: HMW
LayerCount: 2
Fore
SplineSet
425 1256 m 1
 732 949 909 660 909 382 c 0
 909 141 740 6 494 6 c 0
 245 6 90 154 90 395 c 0
 90 635 214 877 407 1088 c 1
 384 1113 359 1138 333 1164 c 1
 425 1256 l 1
492 990 m 1
 322 799 219 583 219 393 c 0
 219 221 308 135 494 135 c 0
 679 135 781 208 781 378 c 0
 781 561 681 759 492 990 c 1
EndSplineSet
Validated: 1
EndChar

StartChar: uni0666
Encoding: 1638 1638 10
Width: 917
VWidth: 1600
Flags: HMW
LayerCount: 2
Fore
SplineSet
721 1129 m 1
 724 713 749 396 827 13 c 1
 701 -13 l 1
 624 362 595 676 592 1076 c 1
 532 1072 466 1070 399 1070 c 0
 290 1070 179 1086 90 1108 c 1
 108 1235 l 1
 187 1214 294 1199 399 1199 c 0
 486 1199 560 1202 632 1208 c 1
 721 1129 l 1
EndSplineSet
Validated: 1
EndChar

StartChar: uni0667
Encoding: 1639 1639 11
Width: 1078
VWidth: 1600
Flags: HMW
LayerCount: 2
Fore
SplineSet
201 1218 m 1
 361 947 470 671 539 378 c 1
 608 671 717 947 877 1218 c 1
 988 1152 l 1
 775 789 657 426 603 9 c 1
 475 9 l 1
 421 426 303 789 90 1152 c 1
 201 1218 l 1
EndSplineSet
Validated: 1
EndChar

StartChar: uni0669
Encoding: 1641 1641 13
Width: 862
VWidth: 1600
Flags: HMW
LayerCount: 2
Fore
SplineSet
417 1217 m 0
 654 1217 673 985 673 749 c 2
 673 657 l 2
 673 449 679 226 772 65 c 1
 661 0 l 1
 556 182 544 400 544 594 c 1
 511 586 475 581 437 581 c 0
 217 581 90 725 90 881 c 0
 90 1060 241 1217 417 1217 c 0
417 1088 m 0
 324 1088 220 982 220 879 c 0
 220 797 273 710 437 710 c 0
 477 710 514 717 545 729 c 1
 545 896 544 1088 417 1088 c 0
EndSplineSet
Validated: 1
EndChar

StartChar: uni06F0
Encoding: 1776 1776 14
Width: 656
VWidth: 1600
Flags: HMW
LayerCount: 2
Fore
SplineSet
328 540 m 0
 459 540 566 433 566 302 c 0
 566 171 459 64 328 64 c 0
 197 64 90 171 90 302 c 0
 90 433 197 540 328 540 c 0
328 411 m 0
 267 411 219 363 219 302 c 0
 219 241 267 193 328 193 c 0
 389 193 437 241 437 302 c 0
 437 363 389 411 328 411 c 0
EndSplineSet
Validated: 1
EndChar

StartChar: uni06F4
Encoding: 1780 1780 18
Width: 977
VWidth: 1600
Flags: HMW
LayerCount: 2
Fore
SplineSet
298 993 m 1
 351 1132 482 1231 664 1231 c 0
 717 1231 765 1226 816 1210 c 1
 791 1083 l 1
 750 1098 712 1102 668 1102 c 0
 495 1102 402 975 402 849 c 0
 402 747 495 700 605 700 c 2
 851 699 l 1
 847 579 l 1
 532 580 l 2
 451 580 385 616 340 668 c 1
 378 447 400 226 400 0 c 1
 271 0 l 1
 271 401 215 792 90 1200 c 1
 214 1234 l 1
 247 1144 267 1062 298 993 c 1
EndSplineSet
Validated: 1
EndChar

StartChar: uni06F5
Encoding: 1781 1781 19
Width: 999
VWidth: 1600
Flags: HMW
LayerCount: 2
Fore
SplineSet
425 1249 m 1
 742 932 910 623 910 377 c 0
 910 188 814 0 639 0 c 0
 586 0 540 15 501 39 c 1
 462 15 415 0 362 0 c 0
 183 0 90 197 90 390 c 0
 90 609 210 866 407 1081 c 1
 384 1106 359 1132 333 1158 c 1
 425 1249 l 1
500 983 m 1
 317 787 219 548 219 381 c 0
 219 276 260 133 388 133 c 0
 425 133 464 151 500 196 c 1
 536 151 575 133 612 133 c 0
 740 133 781 276 781 381 c 0
 781 548 683 787 500 983 c 1
EndSplineSet
Validated: 1
EndChar

StartChar: uni06F6
Encoding: 1782 1782 20
Width: 917
VWidth: 1600
Flags: HMW
LayerCount: 2
Fore
SplineSet
471 1218 m 0
 505 1218 540 1212 573 1200 c 1
 528 1079 l 1
 509 1086 488 1090 468 1090 c 0
 342 1090 239 969 239 859 c 0
 239 761 312 709 416 709 c 0
 531 709 647 772 733 858 c 1
 827 770 l 1
 557 473 417 283 267 0 c 1
 155 63 l 1
 263 253 349 410 489 586 c 1
 464 582 440 581 416 581 c 0
 245 581 110 688 110 859 c 0
 110 1047 268 1218 471 1218 c 0
EndSplineSet
Validated: 1
EndChar

StartChar: uni0654
Encoding: 1620 1620 24
Width: 0
VWidth: 1600
Flags: HMW
AnchorPoint: "Anchor-5" 241 1350 mark 0
AnchorPoint: "Anchor-4" 241 1350 mark 0
AnchorPoint: "Anchor-1" 241 1350 mark 0
AnchorPoint: "Anchor-1" 212 1807 basemark 0
LayerCount: 2
Fore
SplineSet
376 1538 m 1
 406 1475 l 1
 65 1316 l 1
 36 1379 l 1
 175 1444 l 1
 94 1453 42 1506 42 1587 c 0
 42 1694 134 1779 251 1779 c 0
 268 1779 286 1777 304 1773 c 1
 287 1705 l 1
 276 1708 264 1709 253 1709 c 0
 175 1709 112 1652 112 1587 c 0
 112 1536 164 1512 222 1512 c 0
 273 1512 328 1521 376 1538 c 1
EndSplineSet
Validated: 1
EndChar

StartChar: uni0653
Encoding: 1619 1619 26
Width: 0
VWidth: 1600
Flags: HMW
AnchorPoint: "Anchor-5" 241 1320 mark 0
AnchorPoint: "Anchor-4" 241 1320 mark 0
AnchorPoint: "Anchor-1" 241 1320 mark 0
AnchorPoint: "Anchor-1" 234 1472 basemark 0
LayerCount: 2
Fore
SplineSet
399 1466 m 1
 461 1433 l 1
 434 1382 380 1324 306 1324 c 0
 275 1324 243 1337 216 1363 c 0
 200 1378 187 1382 174 1382 c 0
 143 1382 100 1343 82 1310 c 1
 20 1343 l 1
 47 1394 100 1452 174 1452 c 0
 205 1452 237 1439 264 1413 c 0
 280 1398 293 1394 306 1394 c 0
 337 1394 381 1433 399 1466 c 1
EndSplineSet
Validated: 1
EndChar

StartChar: uni0652
Encoding: 1618 1618 27
Width: 0
VWidth: 1600
Flags: HMW
AnchorPoint: "Anchor-5" 187 1243 mark 0
AnchorPoint: "Anchor-4" 187 1243 mark 0
AnchorPoint: "Anchor-1" 187 1243 mark 0
AnchorPoint: "Anchor-1" 188 1679 basemark 0
LayerCount: 2
Fore
SplineSet
187 1632 m 0
 279 1632 355 1557 355 1465 c 0
 355 1373 279 1298 187 1298 c 0
 95 1298 20 1373 20 1465 c 0
 20 1557 95 1632 187 1632 c 0
187 1563 m 0
 133 1563 90 1519 90 1465 c 0
 90 1411 133 1367 187 1367 c 0
 241 1367 285 1411 285 1465 c 0
 285 1519 241 1563 187 1563 c 0
EndSplineSet
Validated: 1
EndChar

StartChar: uni0651
Encoding: 1617 1617 28
Width: 0
VWidth: 1600
Flags: HMW
AnchorPoint: "Anchor-1" 345 1298 mark 0
AnchorPoint: "Anchor-1" 349 1661 basemark 0
LayerCount: 2
Fore
SplineSet
220 1318 m 3
 118 1318 66 1387 66 1483 c 0
 66 1529 76 1583 91 1622 c 1
 156 1596 l 1
 143 1566 135 1518 135 1478 c 0
 135 1422 164 1389 221 1389 c 3
 269 1389 291 1412 302 1445 c 1
 311 1474 312 1513 312 1561 c 2
 312 1596 l 1
 382 1596 l 1
 382 1561 l 2
 382 1513 383 1474 392 1445 c 1
 403 1412 424 1389 472 1389 c 3
 529 1389 558 1422 558 1478 c 0
 558 1518 550 1566 537 1596 c 1
 603 1622 l 1
 618 1583 627 1529 627 1483 c 0
 627 1387 575 1318 473 1318 c 3
 414 1318 372 1347 347 1381 c 1
 322 1347 279 1318 220 1318 c 3
EndSplineSet
Validated: 1
EndChar

StartChar: uni064E
Encoding: 1614 1614 29
Width: 0
VWidth: 1600
Flags: HMW
AnchorPoint: "Anchor-5" 240 1399 mark 0
AnchorPoint: "Anchor-4" 240 1399 mark 0
AnchorPoint: "Anchor-1" 240 1399 mark 0
AnchorPoint: "Anchor-1" 207 1558 basemark 0
LayerCount: 2
Fore
SplineSet
409 1599 m 1
 438 1536 l 1
 25 1343 l 1
 -4 1406 l 1
 409 1599 l 1
EndSplineSet
Validated: 1
EndChar

StartChar: uni064F
Encoding: 1615 1615 30
Width: 0
VWidth: 1600
Flags: HMW
AnchorPoint: "Anchor-5" 200 1230 mark 0
AnchorPoint: "Anchor-4" 200 1231 mark 0
AnchorPoint: "Anchor-1" 200 1230 mark 0
AnchorPoint: "Anchor-1" 204 1831 basemark 0
LayerCount: 2
Fore
SplineSet
205 1695 m 0
 155 1695 78 1646 78 1579 c 0
 78 1515 167 1482 232 1472 c 1
 249 1509 261 1562 261 1608 c 0
 261 1661 250 1695 205 1695 c 0
22 1307 m 1
 92 1320 153 1350 197 1406 c 1
 91 1425 7 1486 7 1578 c 0
 7 1686 117 1766 205 1766 c 0
 297 1766 332 1691 332 1607 c 0
 332 1414 213 1273 38 1237 c 1
 22 1307 l 1
EndSplineSet
Validated: 1
EndChar

StartChar: uni064C
Encoding: 1612 1612 33
Width: 0
VWidth: 1600
Flags: HMW
AnchorPoint: "Anchor-5" 299 1199 mark 0
AnchorPoint: "Anchor-4" 299 1199 mark 0
AnchorPoint: "Anchor-1" 299 1199 mark 0
AnchorPoint: "Anchor-1" 334 1949 basemark 0
LayerCount: 2
Fore
SplineSet
360 1707 m 0
 310 1707 233 1658 233 1591 c 0
 233 1527 322 1494 386 1484 c 1
 404 1521 416 1573 416 1620 c 0
 416 1673 405 1707 360 1707 c 0
177 1318 m 1
 246 1332 308 1362 352 1418 c 1
 246 1436 162 1498 162 1590 c 0
 162 1698 272 1778 360 1778 c 0
 452 1778 487 1703 487 1618 c 0
 487 1426 368 1285 193 1249 c 1
 177 1318 l 1
336 1827 m 1
 210 1827 108 1725 108 1599 c 0
 108 1549 124 1503 151 1465 c 1
 86 1436 l 1
 56 1483 38 1539 38 1599 c 0
 38 1764 171 1897 336 1897 c 1
 336 1827 l 1
EndSplineSet
Validated: 1
EndChar

StartChar: top-three-dots
Encoding: 1114120 -1 43
Width: 575
VWidth: 1600
Flags: HMW
LayerCount: 2
Fore
SplineSet
1059 701 m 1
 942 584 l 1
 825 701 l 1
 942 818 l 1
 1059 701 l 1
EndSplineSet
Refer: 44 -1 N 1 0 0 1 -10 18 2
Validated: 513
EndChar

StartChar: two-dots
Encoding: 1114121 -1 44
Width: 540
VWidth: 1600
Flags: HMW
LayerCount: 2
Fore
SplineSet
721 471 m 5
 848 598 l 5
 951 495 l 5
 1054 598 l 5
 1181 471 l 5
 1054 344 l 5
 951 447 l 5
 848 344 l 5
 721 471 l 5
EndSplineSet
Validated: 513
EndChar

StartChar: GAF-bar
Encoding: 1114122 -1 45
Width: 938
VWidth: 1600
Flags: HMW
LayerCount: 2
Fore
SplineSet
86 1130 m 1
 575 1458 l 1
 575 1374 l 1
 86 1046 l 1
 86 1130 l 1
EndSplineSet
Validated: 513
EndChar

StartChar: dotless-final-BEH
Encoding: 1114123 -1 46
Width: 1750
VWidth: 1600
Flags: HMW
AnchorPoint: "Anchor-5" 814 710 basechar 0
AnchorPoint: "Anchor-3" 796 -436 basechar 0
LayerCount: 2
Fore
SplineSet
832 129 m 0
 1035 129 1216 136 1323 178 c 0
 1392 206 1444 248 1444 344 c 0
 1444 374 1439 406 1433 436 c 2
 1419 499 l 1
 1545 526 l 1
 1559 463 l 2
 1578 374 1577 327 1594 230 c 0
 1609 142 1677 128 1750 128 c 2
 1764 128 l 1
 1764 -1 l 1
 1750 -1 l 2
 1630 -1 1540 36 1495 141 c 1
 1458 102 1413 75 1371 58 c 0
 1227 1 1036 0 832 0 c 0
 628 0 436 1 292 58 c 0
 198 96 90 181 90 344 c 0
 90 388 97 429 104 463 c 2
 118 526 l 1
 244 499 l 1
 230 436 l 2
 224 406 219 374 219 344 c 0
 219 248 271 206 340 178 c 0
 447 136 629 129 832 129 c 0
EndSplineSet
Validated: 513
EndChar

StartChar: dotless-initial-FEH
Encoding: 1114124 -1 47
Width: 724
VWidth: 1600
Flags: HMW
AnchorPoint: "Anchor-5" 370 1196 basechar 0
AnchorPoint: "Anchor-3" 359 -246 basechar 0
LayerCount: 2
Fore
SplineSet
0 0 m 0
 -14 0 l 0
 -14 129 l 0
 0 129 l 2
 235 129 l 2
 352 129 424 199 451 255 c 1
 415 246 378 241 341 241 c 0
 282 241 220 252 164 282 c 0
 88 324 20 401 20 516 c 0
 20 541 24 566 29 589 c 1
 41 640 64 684 88 724 c 0
 112 763 142 804 185 837 c 0
 223 866 271 887 324 888 c 1
 464 888 535 772 576 674 c 0
 608 597 634 510 634 420 c 0
 634 209 497 0 259 0 c 2
 0 0 l 0
327 759 m 1
 307 758 283 749 263 734 c 0
 239 716 218 688 198 656 c 0
 178 623 163 591 155 559 c 0
 152 544 150 529 150 515 c 0
 150 455 182 419 226 396 c 0
 259 378 299 370 341 370 c 0
 398 370 455 385 505 413 c 1
 505 415 505 415 505 417 c 0
 505 484 485 556 457 625 c 0
 432 683 398 759 327 759 c 1
EndSplineSet
Validated: 513
EndChar

StartChar: dotless-final-FEH
Encoding: 1114125 -1 48
Width: 1608
VWidth: 1600
Flags: HMW
AnchorPoint: "Anchor-5" 1259 1190 basechar 0
AnchorPoint: "Anchor-3" 632 -264 basechar 0
LayerCount: 2
Fore
SplineSet
1126 0 m 2
 832 0 l 0
 628 0 436 1 292 58 c 0
 198 96 90 181 90 344 c 0
 90 388 97 428 104 463 c 2
 118 526 l 1
 244 499 l 1
 230 436 l 2
 224 406 219 374 219 344 c 0
 219 248 271 206 340 178 c 0
 447 136 629 129 832 129 c 0
 1138 129 l 1
 1125 137 1113 146 1101 155 c 0
 1063 184 1028 219 1004 265 c 0
 983 304 972 348 972 393 c 0
 972 479 1011 540 1056 585 c 0
 1088 618 1125 642 1160 662 c 0
 1201 686 1249 708 1304 716 c 0
 1317 718 1330 719 1344 719 c 0
 1390 719 1435 709 1475 680 c 0
 1527 643 1555 586 1566 531 c 0
 1571 507 1573 483 1573 460 c 0
 1573 432 1570 405 1567 380 c 1
 1567 380 l 1
 1556 300 1535 214 1479 141 c 1
 1523 133 1563 130 1608 129 c 1
 1622 129 l 1
 1622 0 l 1
 1608 0 l 1
 1521 3 1434 15 1351 39 c 1
 1337 32 1324 27 1309 22 c 0
 1245 1 1182 0 1126 0 c 2
1400 574 m 0
 1386 584 1365 590 1342 590 c 0
 1335 590 1329 590 1322 589 c 0
 1291 584 1258 570 1224 550 c 0
 1194 533 1169 515 1148 494 c 0
 1121 466 1101 439 1101 394 c 0
 1101 371 1107 347 1118 326 c 0
 1131 301 1153 277 1179 257 c 0
 1205 237 1236 221 1270 206 c 0
 1292 196 1314 187 1336 179 c 1
 1350 189 1362 201 1373 214 c 0
 1410 260 1429 327 1439 398 c 0
 1442 420 1444 440 1444 460 c 0
 1444 476 1443 491 1440 505 c 0
 1434 535 1418 561 1400 574 c 0
EndSplineSet
Validated: 513
EndChar

StartChar: dotless-medial-FEH
Encoding: 1114126 -1 49
Width: 754
Flags: HMW
AnchorPoint: "Anchor-5" 409 1146 basechar 0
AnchorPoint: "Anchor-3" 416 -319 basechar 0
LayerCount: 2
Fore
SplineSet
768 0 m 1
 754 0 l 1
 667 3 540 15 457 39 c 1
 443 32 430 27 415 22 c 0
 351 1 288 0 232 0 c 2
 0 0 l 1
 -14 0 l 1
 -14 129 l 1
 0 129 l 1
 244 129 l 1
 231 137 219 146 207 155 c 0
 169 184 134 219 110 265 c 0
 89 304 78 348 78 393 c 0
 78 479 117 540 162 585 c 0
 194 618 231 642 266 662 c 0
 307 686 355 708 410 716 c 0
 423 718 436 719 450 719 c 0
 496 719 541 709 581 680 c 0
 633 643 661 586 672 531 c 0
 677 507 679 483 679 460 c 0
 679 432 676 405 673 380 c 1
 673 380 l 1
 662 300 641 214 585 141 c 1
 629 133 709 130 754 129 c 1
 768 129 l 1
 768 0 l 1
506 574 m 0
 492 584 471 590 448 590 c 0
 441 590 435 590 428 589 c 0
 397 584 364 570 330 550 c 0
 300 533 275 515 254 494 c 0
 227 466 207 439 207 394 c 0
 207 371 213 347 224 326 c 0
 237 301 259 277 285 257 c 0
 311 237 342 221 376 206 c 0
 398 196 420 187 442 179 c 1
 456 189 468 201 479 214 c 0
 516 260 535 327 545 398 c 0
 548 420 550 440 550 460 c 0
 550 476 549 491 546 505 c 0
 540 535 524 561 506 574 c 0
EndSplineSet
Validated: 513
EndChar

StartChar: dotless-final-QAF
Encoding: 1114127 -1 50
Width: 1454
VWidth: 1600
Flags: HMW
AnchorPoint: "Anchor-5" 1085 1114 basechar 0
AnchorPoint: "Anchor-3" 681 -857 basechar 0
LayerCount: 2
Fore
SplineSet
686 -580 m 0
 393 -580 90 -412 90 -107 c 0
 90 102 247 326 582 489 c 1
 637 373 l 1
 330 224 219 41 219 -107 c 0
 219 -326 440 -451 686 -451 c 0
 913 -451 1242 -264 1262 0 c 1
 1095 0 l 2
 905 0 780 109 780 278 c 0
 780 456 921 645 1092 645 c 0
 1281 645 1387 362 1397 129 c 1
 1464 129 l 1
 1478 129 l 1
 1478 0 l 1
 1449 0 1420 0 1391 0 c 1
 1337 -400 944 -580 686 -580 c 0
1092 516 m 0
 1002 516 908 394 908 281 c 0
 908 169 994 130 1099 130 c 2
 1263 130 l 1
 1263 141 1263 152 1263 163 c 0
 1263 300 1178 516 1092 516 c 0
EndSplineSet
Validated: 513
EndChar

StartChar: dotless-initial-NOON
Encoding: 1114128 -1 51
Width: 1572
VWidth: 1600
Flags: HMW
AnchorPoint: "Anchor-5" 800 706 basechar 0
AnchorPoint: "Anchor-3" 686 -664 basechar 0
LayerCount: 2
Fore
SplineSet
1403 52 m 1
 1396 -48 1370 -143 1324 -222 c 0
 1198 -441 931 -580 686 -580 c 0
 356 -580 90 -396 90 -107 c 0
 90 110 260 344 623 508 c 1
 676 391 l 1
 340 239 219 47 219 -107 c 0
 219 -307 405 -451 686 -451 c 0
 879 -451 1115 -326 1212 -158 c 0
 1253 -86 1275 9 1275 113 c 0
 1275 213 1255 321 1211 424 c 1
 1196 457 l 1
 1315 508 l 1
 1329 475 l 2
 1361 399 1384 291 1417 224 c 0
 1448 161 1475 129 1582 129 c 2
 1596 129 l 1
 1596 0 l 1
 1582 0 l 2
 1509 0 1450 21 1403 52 c 1
EndSplineSet
Validated: 513
EndChar

StartChar: uniFEFB
Encoding: 65275 65275 53
Width: 908
VWidth: 1600
Flags: HMW
AnchorPoint: "Anchor-4" 159 1364 baselig 1
AnchorPoint: "Anchor-4" 752 1390 baselig 0
AnchorPoint: "Anchor-2" 350 -190 baselig 1
AnchorPoint: "Anchor-2" 707 -195 baselig 0
LayerCount: 2
Fore
SplineSet
492 129 m 2
 596 129 635 156 658 207 c 0
 681 258 689 347 689 449 c 2
 689 1217 l 1
 818 1217 l 1
 818 449 l 2
 818 341 817 245 776 154 c 0
 735 63 636 0 492 0 c 2
 90 0 l 1
 90 129 l 1
 492 129 l 2
277 268 m 1
 282 327 285 386 285 446 c 0
 285 695 237 944 140 1156 c 1
 252 1215 l 1
 360 991 413 722 413 451 c 0
 413 390 410 329 405 268 c 1
 277 268 l 1
EndSplineSet
Validated: 1
LCarets2: 1 0
PairPos2: "'kern' Horizontal Kerning lookup 6 subtable 1" uni063A dx=-350 dy=0 dh=-350 dv=0 dx=0 dy=0 dh=0 dv=0
PairPos2: "'kern' Horizontal Kerning lookup 6 subtable 1" uni0639 dx=-350 dy=0 dh=-350 dv=0 dx=0 dy=0 dh=0 dv=0
Ligature2: "'rlig' Required Ligatures in Arabic lookup 1 subtable" uniFEDF uniFE8E
EndChar

StartChar: uniFEFC
Encoding: 65276 65276 54
Width: 1075
VWidth: 1600
Flags: HMW
AnchorPoint: "Anchor-4" 160 1364 baselig 1
AnchorPoint: "Anchor-4" 743 1369 baselig 0
AnchorPoint: "Anchor-2" 364 -176 baselig 1
AnchorPoint: "Anchor-2" 757 -175 baselig 0
LayerCount: 2
Fore
SplineSet
492 129 m 2
 605 129 635 156 658 207 c 0
 681 258 689 345 689 447 c 2
 689 1215 l 1
 818 1215 l 1
 818 519 l 1
 820 280 839 129 1075 129 c 2
 1089 129 l 1
 1089 0 l 1
 1075 0 l 2
 932 0 825 50 767 136 c 1
 721 55 626 0 492 0 c 2
 90 0 l 1
 90 129 l 1
 492 129 l 2
277 268 m 1
 282 327 285 386 285 446 c 0
 285 695 237 944 140 1156 c 1
 252 1215 l 1
 360 991 413 722 413 451 c 0
 413 390 410 329 405 268 c 1
 277 268 l 1
EndSplineSet
Validated: 1
LCarets2: 1 0
PairPos2: "'kern' Horizontal Kerning lookup 6 subtable 1" uni063A dx=-350 dy=0 dh=-350 dv=0 dx=0 dy=0 dh=0 dv=0
PairPos2: "'kern' Horizontal Kerning lookup 6 subtable 1" uni0639 dx=-350 dy=0 dh=-350 dv=0 dx=0 dy=0 dh=0 dv=0
Ligature2: "'rlig' Required Ligatures in Arabic lookup 1 subtable" uniFEE0 uniFE8E
EndChar

StartChar: uni060C
Encoding: 1548 1548 61
Width: 523
VWidth: 1600
Flags: HMW
LayerCount: 2
Fore
SplineSet
253 458 m 1
 260 467 270 474 282 474 c 0
 301 474 317 457 317 438 c 0
 317 431 315 425 311 419 c 1
 212 271 l 2
 207 264 205 258 205 253 c 0
 205 207 433 274 433 171 c 3
 433 82 360 0 262 0 c 3
 163 0 90 82 90 173 c 3
 90 211 100 241 121 271 c 2
 253 458 l 1
EndSplineSet
Validated: 1
EndChar

StartChar: uni0615
Encoding: 1557 1557 63
Width: 0
VWidth: 1600
Flags: HMW
AnchorPoint: "Anchor-5" 142 1042 mark 0
AnchorPoint: "Anchor-4" 142 1042 mark 0
AnchorPoint: "Anchor-1" 142 1042 mark 0
AnchorPoint: "Anchor-1" 124 1675 basemark 0
LayerCount: 2
Fore
SplineSet
458 1312 m 0
 458 1186 296 1147 176 1147 c 2
 20 1147 l 1
 20 1217 l 1
 96 1217 l 1
 92 1584 l 1
 162 1585 l 1
 165 1296 l 1
 201 1349 255 1425 343 1425 c 0
 407 1425 458 1376 458 1312 c 0
340 1355 m 0
 275 1348 225 1267 201 1218 c 1
 268 1222 388 1244 388 1313 c 0
 388 1338 366 1355 340 1355 c 0
EndSplineSet
Validated: 1
EndChar

StartChar: less
Encoding: 60 60 65
Width: 619
VWidth: 1600
Flags: HMW
LayerCount: 2
Fore
SplineSet
438 876 m 1
 529 785 l 1
 272 528 l 1
 529 272 l 1
 438 180 l 1
 90 528 l 1
 438 876 l 1
EndSplineSet
Validated: 1
EndChar

StartChar: equal
Encoding: 61 61 66
Width: 696
VWidth: 1600
Flags: HMW
LayerCount: 2
Fore
SplineSet
90 560 m 1
 606 560 l 1
 606 431 l 1
 90 431 l 1
 90 560 l 1
90 302 m 1
 606 302 l 1
 606 174 l 1
 90 174 l 1
 90 302 l 1
EndSplineSet
Validated: 1
EndChar

StartChar: braceleft
Encoding: 123 123 68
Width: 449
VWidth: 1600
Flags: HMW
LayerCount: 2
Fore
SplineSet
90 637 m 1
 135 678 193 721 193 806 c 3
 193 879 161 963 161 1046 c 3
 161 1171 234 1256 324 1272 c 1
 359 1148 l 1
 324 1138 292 1122 292 1044 c 3
 292 965 322 884 322 799 c 3
 322 736 306 670 268 637 c 1
 306 604 322 538 322 475 c 3
 322 390 292 309 292 230 c 3
 292 152 324 136 359 126 c 1
 324 2 l 1
 234 18 161 103 161 228 c 3
 161 311 193 395 193 468 c 3
 193 553 135 596 90 637 c 1
EndSplineSet
Validated: 1
EndChar

StartChar: uni061F
Encoding: 1567 1567 72
Width: 930
VWidth: 1600
Flags: HMW
LayerCount: 2
Fore
SplineSet
463 1217 m 0
 686 1217 840 1039 840 841 c 1
 711 841 l 1
 711 971 610 1088 464 1088 c 0
 339 1088 219 990 219 841 c 0
 219 755 264 673 342 628 c 0
 458 561 529 436 529 302 c 1
 401 302 l 1
 401 390 353 472 277 516 c 0
 158 585 90 711 90 842 c 0
 90 1068 275 1216 463 1217 c 0
EndSplineSet
Refer: 0 46 N 1 0 0 1 295 0 2
Validated: 1
EndChar

StartChar: uni0621
Encoding: 1569 1569 73
Width: 668
VWidth: 1600
Flags: HMW
AnchorPoint: "Anchor-5" 321 865 basechar 0
AnchorPoint: "Anchor-3" 337 -88 basechar 0
LayerCount: 2
Fore
SplineSet
362 645 m 3
 388 645 414 641 443 634 c 1
 409 510 l 1
 392 515 375 517 360 517 c 3
 275 517 212 473 212 388 c 3
 212 337 260 296 338 296 c 3
 403 296 479 315 514 336 c 1
 578 224 l 1
 186 0 l 1
 122 112 l 1
 241 180 l 1
 162 204 83 291 83 388 c 3
 83 540 201 645 362 645 c 3
EndSplineSet
Validated: 1
EndChar

StartChar: uni0627
Encoding: 1575 1575 74
Width: 329
VWidth: 1600
Flags: HMW
AnchorPoint: "Anchor-5" 165 1354 basechar 0
AnchorPoint: "Anchor-3" 170 -130 basechar 0
LayerCount: 2
Fore
SplineSet
100 1217 m 1
 229 1217 l 1
 229 0 l 1
 100 0 l 1
 100 1217 l 1
EndSplineSet
Validated: 1
PairPos2: "'kern' Horizontal Kerning lookup 6 subtable 3" uni063A dx=-293 dy=0 dh=-293 dv=0 dx=0 dy=0 dh=0 dv=0
PairPos2: "'kern' Horizontal Kerning lookup 6 subtable 3" uni0639 dx=-293 dy=0 dh=-293 dv=0 dx=0 dy=0 dh=0 dv=0
Substitution2: "'medi' Medial Forms in Arabic lookup 1 subtable" uniFE8E
Substitution2: "'fina' Terminal Forms in Arabic lookup 1 subtable" uniFE8E
EndChar

StartChar: uni062D
Encoding: 1581 1581 75
Width: 1258
VWidth: 1600
Flags: HMW
AnchorPoint: "Anchor-5" 435 934 basechar 0
AnchorPoint: "Anchor-3" 647 -1229 basechar 0
LayerCount: 2
Fore
SplineSet
437 644 m 0
 637 644 895 545 1062 512 c 1
 1067 392 l 1
 794 270 218 6 218 -391 c 0
 218 -628 437 -741 656 -741 c 0
 826 -741 965 -673 1069 -542 c 1
 1168 -625 l 1
 1030 -789 879 -870 656 -870 c 0
 411 -870 90 -737 90 -394 c 0
 90 17 568 293 848 434 c 1
 728 459 574 515 437 515 c 0
 352 515 271 457 271 373 c 0
 271 334 295 291 319 256 c 1
 212 185 l 1
 173 244 150 294 144 373 c 1
 146 533 281 644 437 644 c 0
EndSplineSet
Validated: 1
Substitution2: "'init' Initial Forms in Arabic lookup 1 subtable" uniFEA3
Substitution2: "'medi' Medial Forms in Arabic lookup 1 subtable" uniFEA4
Substitution2: "'fina' Terminal Forms in Arabic lookup 1 subtable" uniFEA2
EndChar

StartChar: uni062F
Encoding: 1583 1583 76
Width: 795
VWidth: 1600
Flags: HMW
AnchorPoint: "Anchor-5" 406 1036 basechar 0
AnchorPoint: "Anchor-3" 361 -277 basechar 0
LayerCount: 2
Fore
SplineSet
395 775 m 1
 538 626 705 436 705 234 c 0
 705 46 489 -14 264 -14 c 0
 206 -14 147 -9 90 -0 c 1
 90 134 l 1
 145 123 206 118 265 118 c 0
 421 118 576 145 576 231 c 0
 576 383 430 551 304 684 c 1
 395 775 l 1
EndSplineSet
Validated: 1
PairPos2: "'kern' Horizontal Kerning lookup 6 subtable 3" uni063A dx=-457 dy=0 dh=-457 dv=0 dx=0 dy=0 dh=0 dv=0
PairPos2: "'kern' Horizontal Kerning lookup 6 subtable 3" uni0639 dx=-457 dy=0 dh=-457 dv=0 dx=0 dy=0 dh=0 dv=0
Substitution2: "'fina' Terminal Forms in Arabic lookup 1 subtable" uniFEAA
EndChar

StartChar: uni0631
Encoding: 1585 1585 77
Width: 481
VWidth: 1600
Flags: HMW
AnchorPoint: "Anchor-3" 139 -682 basechar 0
AnchorPoint: "Anchor-5" 254 694 basechar 0
LayerCount: 2
Fore
SplineSet
318 475 m 1
 360 377 391 253 391 134 c 0
 391 -175 187 -391 -124 -512 c 1
 -170 -391 l 1
 68 -297 263 -137 263 130 c 0
 263 229 238 326 200 424 c 1
 318 475 l 1
EndSplineSet
Validated: 1
PairPos2: "'kern' Horizontal Kerning lookup 6 subtable 4" uniE00A dx=200 dy=0 dh=200 dv=0 dx=0 dy=0 dh=0 dv=0
PairPos2: "'kern' Horizontal Kerning lookup 6 subtable 4" uniE004 dx=200 dy=0 dh=200 dv=0 dx=0 dy=0 dh=0 dv=0
PairPos2: "'kern' Horizontal Kerning lookup 6 subtable 4" uniE002 dx=200 dy=0 dh=200 dv=0 dx=0 dy=0 dh=0 dv=0
PairPos2: "'kern' Horizontal Kerning lookup 6 subtable 4" uniE000 dx=100 dy=0 dh=100 dv=0 dx=0 dy=0 dh=0 dv=0
PairPos2: "'kern' Horizontal Kerning lookup 6 subtable 1" uni062D dx=-260 dy=0 dh=-260 dv=0 dx=0 dy=0 dh=0 dv=0
PairPos2: "'kern' Horizontal Kerning lookup 6 subtable 1" uni063A dx=-280 dy=0 dh=-280 dv=0 dx=0 dy=0 dh=0 dv=0
PairPos2: "'kern' Horizontal Kerning lookup 6 subtable 1" uni0639 dx=-280 dy=0 dh=-280 dv=0 dx=0 dy=0 dh=0 dv=0
PairPos2: "'kern' Horizontal Kerning lookup 6 subtable 1" uni06CC dx=120 dy=0 dh=120 dv=0 dx=0 dy=0 dh=0 dv=0
PairPos2: "'kern' Horizontal Kerning lookup 6 subtable 1" uni0644 dx=120 dy=0 dh=120 dv=0 dx=0 dy=0 dh=0 dv=0
PairPos2: "'kern' Horizontal Kerning lookup 6 subtable 1" uni0649 dx=120 dy=0 dh=120 dv=0 dx=0 dy=0 dh=0 dv=0
Substitution2: "'fina' Terminal Forms in Arabic lookup 1 subtable" uniFEAE
EndChar

StartChar: uni0633
Encoding: 1587 1587 78
Width: 2500
VWidth: 1600
Flags: HMW
AnchorPoint: "Anchor-5" 1838 801 basechar 0
AnchorPoint: "Anchor-3" 681 -865 basechar 0
LayerCount: 2
Back
Refer: 118 65203 N 1 0 0 1 996 0 2
Refer: 118 65203 N 1 0 0 1 996 0 2
Fore
SplineSet
1898 247 m 1
 1917 171 1964 129 2079 129 c 3
 2204 129 2266 220 2266 323 c 0
 2266 387 2250 496 2227 550 c 1
 2347 597 l 1
 2374 525 2392 406 2392 331 c 0
 2392 155 2287 0 2080 0 c 3
 1959 0 1871 47 1821 115 c 1
 1771 47 1683 0 1562 0 c 0
 1509 0 1450 21 1403 52 c 1
 1396 -48 1370 -143 1324 -222 c 0
 1198 -441 931 -580 686 -580 c 0
 356 -580 90 -396 90 -107 c 0
 90 110 260 344 623 508 c 1
 676 391 l 1
 340 239 219 47 219 -107 c 0
 219 -307 405 -451 686 -451 c 0
 879 -451 1115 -326 1212 -158 c 0
 1253 -86 1275 9 1275 113 c 0
 1275 246 1224 392 1176 507 c 1
 1295 558 l 1
 1336 459 1369 318 1417 224 c 0
 1448 161 1495 129 1562 129 c 0
 1677 129 1725 171 1744 247 c 1
 1757 298 1757 365 1757 444 c 0
 1757 550 l 1
 1885 550 l 1
 1885 444 l 0
 1885 365 1885 298 1898 247 c 1
EndSplineSet
Validated: 1
Substitution2: "'init' Initial Forms in Arabic lookup 1 subtable" uniFEB3
Substitution2: "'medi' Medial Forms in Arabic lookup 1 subtable" uniFEB4
Substitution2: "'fina' Terminal Forms in Arabic lookup 1 subtable" uniFEB2
EndChar

StartChar: uni0635
Encoding: 1589 1589 79
Width: 2357
VWidth: 1600
Flags: HMW
AnchorPoint: "Anchor-5" 1968 920 basechar 0
AnchorPoint: "Anchor-3" 679 -849 basechar 0
LayerCount: 2
Fore
SplineSet
1473 184 m 1
 1568 386 1766 664 1993 664 c 3
 2168 664 2267 527 2267 378 c 3
 2267 163 2037 0 1698 0 c 0
 1591 0 1492 33 1404 76 c 1
 1404 76 1403 64 1402 52 c 0
 1394 -48 1370 -142 1324 -222 c 0
 1198 -441 931 -580 686 -580 c 0
 356 -580 90 -396 90 -107 c 0
 90 110 260 344 623 508 c 1
 676 391 l 1
 340 239 219 47 219 -107 c 0
 219 -307 405 -451 686 -451 c 0
 879 -451 1115 -325 1212 -157 c 0
 1253 -85 1276 9 1276 113 c 0
 1276 213 1255 321 1211 424 c 1
 1196 457 l 1
 1315 508 l 1
 1329 475 l 2
 1380 356 1410 210 1473 184 c 1
1993 535 m 3
 1838 535 1662 279 1598 141 c 1
 1631 133 1665 129 1698 129 c 3
 1973 129 2138 237 2138 378 c 3
 2138 461 2097 535 1993 535 c 3
EndSplineSet
Validated: 1
Substitution2: "'init' Initial Forms in Arabic lookup 1 subtable" uniFEBB
Substitution2: "'medi' Medial Forms in Arabic lookup 1 subtable" uniFEBC
Substitution2: "'fina' Terminal Forms in Arabic lookup 1 subtable" uniFEBA
EndChar

StartChar: uni0637
Encoding: 1591 1591 80
Width: 1174
VWidth: 1600
Flags: HMW
AnchorPoint: "Anchor-5" 817 1043 basechar 0
AnchorPoint: "Anchor-3" 542 -237 basechar 0
LayerCount: 2
Fore
SplineSet
946 389 m 0
 946 478 885 536 801 536 c 0
 640 536 462 262 400 127 c 1
 691 128 946 179 946 389 c 0
90 0 m 1
 90 127 l 1
 253 127 l 1
 253 1217 l 1
 382 1217 l 1
 382 363 l 1
 486 517 635 665 801 665 c 0
 957 665 1075 545 1075 389 c 0
 1075 89 766 -0 382 0 c 2
 90 0 l 1
EndSplineSet
Validated: 1
Substitution2: "'init' Initial Forms in Arabic lookup 1 subtable" uniFEC3
Substitution2: "'medi' Medial Forms in Arabic lookup 1 subtable" uniFEC4
Substitution2: "'fina' Terminal Forms in Arabic lookup 1 subtable" uniFEC2
EndChar

StartChar: uni0639
Encoding: 1593 1593 81
Width: 1224
VWidth: 1600
Flags: HMW
AnchorPoint: "Anchor-5" 572 1196 basechar 0
AnchorPoint: "Anchor-3" 716 -1065 basechar 0
LayerCount: 2
Fore
SplineSet
593 910 m 0
 646 910 694 905 745 889 c 1
 720 762 l 1
 679 777 641 781 597 781 c 0
 424 781 331 654 331 528 c 0
 331 426 424 379 534 379 c 0
 627 379 768 414 836 435 c 1
 877 312 l 1
 813 297 759 279 701 259 c 1
 528 196 388 89 305 -40 c 0
 249 -126 218 -222 218 -326 c 0
 218 -377 226 -430 242 -485 c 0
 266 -565 325 -627 411 -672 c 0
 497 -717 606 -741 717 -741 c 0
 856 -741 975 -697 1076 -645 c 1
 1134 -760 l 1
 1014 -821 871 -870 717 -870 c 0
 588 -870 459 -844 351 -787 c 0
 243 -730 153 -641 118 -522 c 0
 99 -457 90 -393 90 -330 c 0
 90 -199 129 -76 197 30 c 0
 254 119 330 196 421 259 c 1
 304 279 202 396 202 528 c 0
 202 736 353 910 593 910 c 0
EndSplineSet
Validated: 1
Substitution2: "'init' Initial Forms in Arabic lookup 1 subtable" uniFECB
Substitution2: "'medi' Medial Forms in Arabic lookup 1 subtable" uniFECC
Substitution2: "'fina' Terminal Forms in Arabic lookup 1 subtable" uniFECA
EndChar

StartChar: uni0640
Encoding: 1600 1600 82
Width: 488
VWidth: 1600
Flags: HMW
AnchorPoint: "Anchor-5" 115 1035 basechar 0
AnchorPoint: "Anchor-3" 109 -643 basechar 0
LayerCount: 2
Fore
SplineSet
502 0 m 1
 -14 0 l 1
 -14 129 l 1
 502 129 l 1
 502 0 l 1
EndSplineSet
Validated: 1
EndChar

StartChar: uni0644
Encoding: 1604 1604 83
Width: 1484
VWidth: 1600
Flags: HMW
AnchorPoint: "Anchor-5" 612 782 basechar 0
AnchorPoint: "Anchor-3" 686 -810 basechar 0
LayerCount: 2
Fore
SplineSet
1266 1217 m 1
 1394 1217 l 1
 1394 25 l 2
 1394 -329 1003 -580 686 -580 c 0
 393 -580 90 -412 90 -107 c 0
 90 110 260 344 623 508 c 1
 676 391 l 1
 340 239 219 47 219 -107 c 0
 219 -326 440 -451 686 -451 c 0
 920 -451 1266 -253 1266 25 c 2
 1266 1217 l 1
EndSplineSet
Validated: 1
Substitution2: "'init' Initial Forms in Arabic lookup 1 subtable" uniFEDF
Substitution2: "'medi' Medial Forms in Arabic lookup 1 subtable" uniFEE0
Substitution2: "'fina' Terminal Forms in Arabic lookup 1 subtable" uniFEDE
EndChar

StartChar: uni0645
Encoding: 1605 1605 84
Width: 1076
Flags: HMW
AnchorPoint: "Anchor-5" 659 898 basechar 0
AnchorPoint: "Anchor-3" 664 -415 basechar 0
LayerCount: 2
Fore
SplineSet
668 618 m 0
 758 618 838 570 894 504 c 0
 950 438 986 350 986 258 c 0
 986 202 972 138 928 86 c 0
 884 34 812 0 720 0 c 0
 608 0 496 18 410 18 c 0
 339 18 288 5 258 -34 c 0
 236 -62 218 -110 218 -198 c 0
 220 -842 l 1
 90 -842 l 1
 90 -196 l 1
 90 -92 112 -12 156 46 c 0
 198 102 280 144 342 144 c 1
 356 246 l 2
 372 360 408 452 462 516 c 0
 516 580 592 618 668 618 c 0
668 490 m 0
 632 490 596 476 562 434 c 0
 528 392 498 324 484 228 c 2
 472 148 l 1
 556 144 644 130 720 130 c 0
 784 130 812 148 830 170 c 0
 848 192 856 224 856 258 c 0
 856 316 832 376 794 420 c 0
 756 464 710 490 668 490 c 0
EndSplineSet
Validated: 1
Substitution2: "'init' Initial Forms in Arabic lookup 1 subtable" uniFEE3
Substitution2: "'medi' Medial Forms in Arabic lookup 1 subtable" uniFEE4
Substitution2: "'fina' Terminal Forms in Arabic lookup 1 subtable" uniFEE2
EndChar

StartChar: uni0647
Encoding: 1607 1607 85
Width: 759
VWidth: 1600
Flags: HMW
AnchorPoint: "Anchor-5" 367 995 basechar 0
AnchorPoint: "Anchor-3" 377 -221 basechar 0
LayerCount: 2
Fore
SplineSet
277 758 m 1
 462 672 669 482 669 258 c 0
 669 93 551 0 379 0 c 0
 207 0 90 93 90 258 c 0
 90 388 166 529 266 618 c 1
 215 645 l 1
 277 758 l 1
379 543 m 1
 307 471 219 367 219 258 c 0
 219 177 273 129 379 129 c 0
 485 129 540 177 540 258 c 0
 540 367 451 471 379 543 c 1
EndSplineSet
Validated: 1
Substitution2: "'init' Initial Forms in Arabic lookup 1 subtable" uniFEEB
Substitution2: "'medi' Medial Forms in Arabic lookup 1 subtable" uniFEEC
Substitution2: "'fina' Terminal Forms in Arabic lookup 1 subtable" uniFEEA
EndChar

StartChar: uni0648
Encoding: 1608 1608 86
Width: 785
VWidth: 1600
Flags: HMW
AnchorPoint: "Anchor-5" 408 890 basechar 0
AnchorPoint: "Anchor-3" 378 -704 basechar 0
LayerCount: 2
Fore
SplineSet
395 517 m 0
 305 517 211 395 211 282 c 0
 211 170 296 131 401 131 c 0
 452 131 509 140 562 155 c 1
 562 158 562 162 562 165 c 0
 562 302 481 517 395 517 c 0
555 20 m 1
 508 10 446 0 397 0 c 0
 207 0 82 110 82 279 c 0
 82 457 224 646 395 646 c 0
 593 646 691 336 691 165 c 0
 691 -206 491 -391 180 -512 c 1
 134 -391 l 1
 338 -311 509 -182 555 20 c 1
EndSplineSet
Validated: 1
PairPos2: "'kern' Horizontal Kerning lookup 6 subtable 3" uni063A dx=-299 dy=0 dh=-299 dv=0 dx=0 dy=0 dh=0 dv=0
PairPos2: "'kern' Horizontal Kerning lookup 6 subtable 3" uni0639 dx=-299 dy=0 dh=-299 dv=0 dx=0 dy=0 dh=0 dv=0
Substitution2: "'fina' Terminal Forms in Arabic lookup 1 subtable" uniFEEE
EndChar

StartChar: uni065A
Encoding: 1626 1626 88
Width: 0
VWidth: 1600
Flags: HMW
AnchorPoint: "Anchor-5" 242 1271 mark 0
AnchorPoint: "Anchor-4" 242 1271 mark 0
AnchorPoint: "Anchor-1" 242 1271 mark 0
AnchorPoint: "Anchor-1" 250 1637 basemark 0
LayerCount: 2
Fore
SplineSet
273 1309 m 1
 216 1309 l 1
 20 1589 l 1
 77 1629 l 1
 244 1390 l 1
 412 1629 l 1
 469 1589 l 1
 273 1309 l 1
EndSplineSet
Validated: 1
EndChar

StartChar: uni066A
Encoding: 1642 1642 89
Width: 1210
VWidth: 1600
Flags: HMW
LayerCount: 2
Fore
SplineSet
328 1260 m 0
 459 1260 566 1153 566 1022 c 0
 566 891 459 784 328 784 c 0
 197 784 90 891 90 1022 c 0
 90 1153 197 1260 328 1260 c 0
804 1242 m 1
 923 1192 l 1
 406 -25 l 1
 287 25 l 1
 804 1242 l 1
328 1131 m 0
 267 1131 219 1083 219 1022 c 0
 219 961 267 913 328 913 c 0
 389 913 437 961 437 1022 c 0
 437 1083 389 1131 328 1131 c 0
882 433 m 0
 1013 433 1120 326 1120 195 c 0
 1120 64 1013 -43 882 -43 c 0
 751 -43 644 64 644 195 c 0
 644 326 751 433 882 433 c 0
882 304 m 0
 821 304 773 256 773 195 c 0
 773 134 821 86 882 86 c 0
 943 86 991 134 991 195 c 0
 991 256 943 304 882 304 c 0
EndSplineSet
Validated: 1
EndChar

StartChar: uni066D
Encoding: 1645 1645 91
Width: 786
VWidth: 1600
Flags: HMW
LayerCount: 2
Fore
SplineSet
358 948 m 1
 428 948 l 1
 428 730 l 1
 583 884 l 1
 632 835 l 1
 478 680 l 1
 696 680 l 1
 696 610 l 1
 478 610 l 1
 632 456 l 1
 583 406 l 1
 428 561 l 1
 428 342 l 1
 358 342 l 1
 358 561 l 1
 204 406 l 1
 154 456 l 1
 309 610 l 1
 90 610 l 1
 90 680 l 1
 309 680 l 1
 154 835 l 1
 204 884 l 1
 358 730 l 1
 358 948 l 1
EndSplineSet
Validated: 1
EndChar

StartChar: uni066E
Encoding: 1646 1646 92
Width: 1663
VWidth: 1600
Flags: HMW
AnchorPoint: "Anchor-5" 836.525 742 basechar 0
AnchorPoint: "Anchor-3" 834.525 -416 basechar 0
LayerCount: 2
Fore
SplineSet
832 129 m 0
 1035 129 1216 136 1323 178 c 0
 1392 206 1444 248 1444 344 c 0
 1444 374 1439 406 1433 436 c 2
 1419 499 l 1
 1545 526 l 1
 1559 463 l 2
 1566 428 1573 388 1573 344 c 0
 1573 181 1465 96 1371 58 c 0
 1227 1 1035 0 832 0 c 0
 628 0 436 1 292 58 c 0
 198 96 90 181 90 344 c 0
 90 388 97 428 104 463 c 2
 118 526 l 1
 244 499 l 1
 230 436 l 2
 224 406 219 374 219 344 c 0
 219 248 271 206 340 178 c 0
 447 136 629 129 832 129 c 0
EndSplineSet
Validated: 1
Substitution2: "'fina' Terminal Forms in Arabic lookup 1 subtable" dotless-final-BEH
Substitution2: "'medi' Medial Forms in Arabic lookup 1 subtable" uniFBE9
Substitution2: "'init' Initial Forms in Arabic lookup 1 subtable" uniFBE8
EndChar

StartChar: uni066F
Encoding: 1647 1647 93
Width: 1488
VWidth: 1600
Flags: HMW
AnchorPoint: "Anchor-5" 1100 971 basechar 0
AnchorPoint: "Anchor-3" 682 -858 basechar 0
LayerCount: 2
Fore
SplineSet
637 373 m 1
 330 224 219 41 219 -107 c 0
 219 -326 440 -451 686 -451 c 0
 920 -451 1266 -253 1266 25 c 1
 1210 12 l 1
 1170 4 1131 0 1095 0 c 0
 905 0 780 109 780 278 c 0
 780 456 921 645 1092 645 c 0
 1290 645 1398 333 1398 95 c 0
 1398 -372 964 -580 686 -580 c 0
 393 -580 90 -412 90 -107 c 0
 90 102 247 326 582 489 c 1
 637 373 l 1
1092 516 m 0
 1002 516 908 394 908 281 c 0
 908 169 994 130 1099 130 c 0
 1150 130 1207 139 1260 154 c 1
 1260 157 1260 161 1260 164 c 0
 1260 301 1178 516 1092 516 c 0
EndSplineSet
Validated: 1
Substitution2: "'init' Initial Forms in Arabic lookup 1 subtable" dotless-initial-FEH
Substitution2: "'medi' Medial Forms in Arabic lookup 1 subtable" dotless-medial-FEH
Substitution2: "'fina' Terminal Forms in Arabic lookup 1 subtable" dotless-final-QAF
EndChar

StartChar: uni0670
Encoding: 1648 1648 94
Width: 0
VWidth: 1600
Flags: HMW
AnchorPoint: "Anchor-5" 52 1235 mark 0
AnchorPoint: "Anchor-4" 52 1235 mark 0
AnchorPoint: "Anchor-1" 52 1235 mark 0
AnchorPoint: "Anchor-1" 54 1751 basemark 0
LayerCount: 2
Fore
SplineSet
20 1686 m 1
 90 1686 l 1
 90 1298 l 1
 20 1298 l 1
 20 1686 l 1
EndSplineSet
Validated: 1
EndChar

StartChar: uni06A1
Encoding: 1697 1697 95
Width: 1667
VWidth: 1600
Flags: HMW
AnchorPoint: "Anchor-5" 1280 1184 basechar 0
AnchorPoint: "Anchor-3" 681 -300 basechar 0
LayerCount: 2
Fore
SplineSet
832 0 m 1
 628 0 436 1 292 58 c 0
 198 96 90 181 90 344 c 0
 90 388 97 429 104 463 c 2
 118 526 l 1
 244 499 l 1
 230 436 l 2
 224 406 219 374 219 344 c 0
 219 248 271 206 340 178 c 0
 447 136 629 129 832 129 c 3
 1021 129 1168 137 1286 182 c 0
 1336 201 1372 225 1398 255 c 1
 1358 247 1319 243 1283 243 c 0
 1093 243 968 352 968 521 c 0
 968 699 1110 888 1281 888 c 0
 1479 888 1577 578 1577 407 c 0
 1577 244 1498 127 1331 62 c 0
 1183 5 1024 0 832 0 c 1
1281 759 m 0
 1191 759 1097 637 1097 524 c 0
 1097 412 1182 373 1287 373 c 0
 1338 373 1395 382 1448 397 c 1
 1448 400 1448 404 1448 407 c 0
 1448 544 1367 759 1281 759 c 0
EndSplineSet
Validated: 1
Substitution2: "'init' Initial Forms in Arabic lookup 1 subtable" dotless-initial-FEH
Substitution2: "'medi' Medial Forms in Arabic lookup 1 subtable" dotless-medial-FEH
Substitution2: "'fina' Terminal Forms in Arabic lookup 1 subtable" dotless-final-FEH
EndChar

StartChar: uni06A9
Encoding: 1705 1705 96
Width: 1663
VWidth: 1600
Flags: HMW
AnchorPoint: "Anchor-5" 709 1192 basechar 0
AnchorPoint: "Anchor-3" 844 -364 basechar 0
LayerCount: 2
Fore
SplineSet
1235 129 m 0
 1376 129 1444 186 1444 305 c 0
 1444 432 1235 525 1054 618 c 1
 858 714 l 1
 858 887 l 1
 1573 1348 l 1
 1573 1194 l 1
 971 805 l 1
 1109 734 l 2
 1324 624 1573 514 1573 305 c 0
 1573 99 1438 0 1235 0 c 0
 832 0 l 0
 628 0 436 1 292 58 c 0
 198 96 90 181 90 344 c 0
 90 388 97 428 104 463 c 2
 118 526 l 1
 244 499 l 1
 230 436 l 2
 224 406 219 374 219 344 c 0
 219 248 271 206 340 178 c 0
 447 136 629 129 832 129 c 0
 1235 129 l 0
EndSplineSet
Validated: 1
Substitution2: "'init' Initial Forms in Arabic lookup 1 subtable" uniFB90
Substitution2: "'medi' Medial Forms in Arabic lookup 1 subtable" uniFB91
Substitution2: "'fina' Terminal Forms in Arabic lookup 1 subtable" uniFB8F
EndChar

StartChar: uni06BA
Encoding: 1722 1722 97
Width: 1496
VWidth: 1600
Flags: HMW
AnchorPoint: "Anchor-5" 786 745 basechar 0
AnchorPoint: "Anchor-3" 687 -831 basechar 0
LayerCount: 2
Fore
SplineSet
623 508 m 1
 676 391 l 1
 340 239 219 47 219 -107 c 0
 219 -307 405 -451 686 -451 c 0
 879 -451 1115 -326 1212 -158 c 0
 1253 -86 1275 9 1275 113 c 0
 1275 213 1255 321 1211 424 c 1
 1196 457 l 1
 1315 508 l 1
 1329 475 l 2
 1380 355 1406 230 1406 111 c 0
 1406 -11 1379 -127 1324 -222 c 0
 1198 -441 931 -580 686 -580 c 0
 356 -580 90 -396 90 -107 c 0
 90 110 260 344 623 508 c 1
EndSplineSet
Validated: 1
Substitution2: "'init' Initial Forms in Arabic lookup 1 subtable" uniFBE8
Substitution2: "'medi' Medial Forms in Arabic lookup 1 subtable" uniFBE9
Substitution2: "'fina' Terminal Forms in Arabic lookup 1 subtable" dotless-initial-NOON
EndChar

StartChar: uni06CC
Encoding: 1740 1740 98
Width: 1366
VWidth: 1600
Flags: HMW
AnchorPoint: "Anchor-3" 689 -736 basechar 0
AnchorPoint: "Anchor-5" 476 665 basechar 0
LayerCount: 2
Fore
SplineSet
1182 599 m 1
 1140 619 1095 626 1046 626 c 0
 922 626 753 519 753 376 c 0
 753 195 1276 382 1276 -46 c 0
 1276 -300 999 -512 686 -512 c 0
 356 -512 90 -328 90 -39 c 0
 90 111 172 268 342 406 c 1
 425 310 l 1
 277 193 219 68 219 -39 c 0
 219 -239 405 -383 686 -383 c 0
 933 -383 1148 -226 1148 -48 c 0
 1148 245 623 44 623 366 c 0
 623 578 837 750 1041 755 c 0
 1109 755 1180 746 1238 714 c 1
 1182 599 l 1
EndSplineSet
Validated: 1
Substitution2: "'init' Initial Forms in Arabic lookup 1 subtable" uniFEF3
Substitution2: "'medi' Medial Forms in Arabic lookup 1 subtable" uniFEF4
Substitution2: "'fina' Terminal Forms in Arabic lookup 1 subtable" uniFBFD
EndChar

StartChar: uniFBE8
Encoding: 64488 64488 102
Width: 473
VWidth: 1600
Flags: HMW
AnchorPoint: "Anchor-5" 202 864 basechar 0
AnchorPoint: "Anchor-3" 202 -225 basechar 0
LayerCount: 2
Fore
SplineSet
0 0 m 2
 -14 0 l 1
 -14 129 l 1
 0 129 l 2
 68 129 160 142 208 194 c 0
 234 222 254 267 254 338 c 0
 254 401 239 487 198 600 c 1
 319 644 l 1
 364 522 384 421 384 338 c 0
 384 237 352 160 303 107 c 0
 213 9 81 0 0 0 c 2
EndSplineSet
Validated: 1
EndChar

StartChar: uniFBE9
Encoding: 64489 64489 103
Width: 558
VWidth: 1600
Flags: HMW
AnchorPoint: "Anchor-5" 297 722 basechar 0
AnchorPoint: "Anchor-3" 274 -211 basechar 0
LayerCount: 2
Fore
SplineSet
381 232 m 1
 402 166 450 129 558 129 c 2
 572 129 l 1
 572 0 l 1
 558 0 l 2
 437 0 349 47 299 115 c 1
 249 47 161 0 40 0 c 2
 -14 0 l 1
 -14 129 l 1
 40 129 l 2
 148 129 196 166 217 232 c 1
 235 285 235 357 235 444 c 2
 235 508 l 1
 363 508 l 1
 363 444 l 2
 363 357 363 285 381 232 c 1
EndSplineSet
Validated: 1
EndChar

StartChar: uniFBFD
Encoding: 64509 64509 104
Width: 1339
VWidth: 1600
Flags: HMW
AnchorPoint: "Anchor-5" 928 628 basechar 0
AnchorPoint: "Anchor-3" 683 -858 basechar 0
LayerCount: 2
Fore
SplineSet
1363 0 m 1
 1266 0 l 1
 1299 -43 1319 -97 1319 -157 c 0
 1319 -437 964 -580 686 -580 c 0
 398 -580 90 -417 90 -107 c 0
 90 110 260 344 623 508 c 1
 676 391 l 1
 340 239 219 47 219 -107 c 0
 219 -317 424 -451 686 -451 c 0
 874 -451 1191 -365 1191 -157 c 0
 1191 -41 1051 0 942 0 c 1
 942 129 l 1
 1363 129 l 1
 1363 0 l 1
EndSplineSet
Validated: 1
EndChar

StartChar: uniFE71
Encoding: 65137 65137 105
Width: 856
VWidth: 1600
Flags: HMW
AnchorPoint: "Anchor-5" 370 1901 basechar 0
AnchorPoint: "Anchor-3" 430 -280 basechar 0
LayerCount: 2
Fore
SplineSet
-4 129 m 1
 861 129 l 1
 861 0 l 1
 -4 0 l 1
 -4 129 l 1
EndSplineSet
Refer: 29 1614 N 1 0 0 1 257 0 2
Refer: 29 1614 N 1 0 0 1 166 109 2
Validated: 1
Ligature2: "'liga' Standard Ligatures in Arabic lookup 5 subtable" uni0640 uni064B
EndChar

StartChar: uniFE77
Encoding: 65143 65143 106
Width: 856
VWidth: 1600
Flags: HMW
AnchorPoint: "Anchor-5" 370 1633 basechar 0
AnchorPoint: "Anchor-3" 426 -308 basechar 0
LayerCount: 2
Fore
SplineSet
-4 129 m 1
 861 129 l 1
 861 0 l 1
 -4 0 l 1
 -4 129 l 1
EndSplineSet
Refer: 29 1614 S 1 0 0 1 211 0 2
Validated: 1
Ligature2: "'liga' Standard Ligatures in Arabic lookup 5 subtable" uni0640 uni064E
EndChar

StartChar: uniFE79
Encoding: 65145 65145 107
Width: 856
VWidth: 1600
Flags: HMW
AnchorPoint: "Anchor-5" 424 1898 basechar 0
AnchorPoint: "Anchor-3" 405 -297 basechar 0
LayerCount: 2
Fore
SplineSet
-4 129 m 1
 861 129 l 1
 861 0 l 1
 -4 0 l 1
 -4 129 l 1
EndSplineSet
Refer: 30 1615 N 1 0 0 1 241 0 2
Validated: 1
Ligature2: "'liga' Standard Ligatures in Arabic lookup 5 subtable" uni0640 uni064F
EndChar

StartChar: uniFE7B
Encoding: 65147 65147 108
Width: 856
VWidth: 1600
Flags: HMW
AnchorPoint: "Anchor-5" 398 1336 basechar 0
AnchorPoint: "Anchor-3" 386 -714 basechar 0
LayerCount: 2
Fore
SplineSet
-4 129 m 1
 861 129 l 1
 861 0 l 1
 -4 0 l 1
 -4 129 l 1
EndSplineSet
Refer: 29 1614 N 1 0 0 1 212 -1877 2
Validated: 1
Ligature2: "'liga' Standard Ligatures in Arabic lookup 5 subtable" uni0640 uni0650
EndChar

StartChar: uniFE7D
Encoding: 65149 65149 109
Width: 856
VWidth: 1600
Flags: HMW
AnchorPoint: "Anchor-5" 426 1678 basechar 0
AnchorPoint: "Anchor-3" 405 -294 basechar 0
LayerCount: 2
Fore
SplineSet
-4 129 m 1
 861 129 l 1
 861 0 l 1
 -4 0 l 1
 -4 129 l 1
EndSplineSet
Refer: 28 1617 N 1 0 0 1 82 0 2
Validated: 1
LCarets2: 1 0
Ligature2: "'liga' Standard Ligatures in Arabic lookup 5 subtable" uni0640 uni0651
EndChar

StartChar: uniFE7F
Encoding: 65151 65151 110
Width: 856
VWidth: 1600
Flags: HMW
AnchorPoint: "Anchor-5" 427 1770 basechar 0
AnchorPoint: "Anchor-3" 424 -272 basechar 0
LayerCount: 2
Fore
SplineSet
-4 129 m 1
 861 129 l 1
 861 0 l 1
 -4 0 l 1
 -4 129 l 1
EndSplineSet
Refer: 27 1618 N 1 0 0 1 241 0 2
Validated: 1
Ligature2: "'liga' Standard Ligatures in Arabic lookup 5 subtable" uni0640 uni0652
EndChar

StartChar: uniFE8E
Encoding: 65166 65166 111
Width: 425
VWidth: 1600
Flags: HMW
AnchorPoint: "Anchor-5" 164 1389 basechar 0
AnchorPoint: "Anchor-3" 328 -201 basechar 0
LayerCount: 2
Fore
SplineSet
425 129 m 2
 439 129 l 1
 439 0 l 1
 425 0 l 2
 281 0 182 63 141 154 c 0
 101 243 100 347 100 449 c 2
 100 1219 l 1
 229 1219 l 1
 229 449 l 2
 229 347 235 258 258 207 c 0
 281 156 312 129 425 129 c 2
EndSplineSet
Validated: 1
PairPos2: "'kern' Horizontal Kerning lookup 6 subtable 3" uni063A dx=-293 dy=0 dh=-293 dv=0 dx=0 dy=0 dh=0 dv=0
PairPos2: "'kern' Horizontal Kerning lookup 6 subtable 3" uni0639 dx=-293 dy=0 dh=-293 dv=0 dx=0 dy=0 dh=0 dv=0
PairPos2: "'kern' Horizontal Kerning lookup 6 subtable 2" uni0622 dx=277 dy=0 dh=277 dv=0 dx=0 dy=0 dh=0 dv=0
EndChar

StartChar: uniFEA2
Encoding: 65186 65186 112
Width: 1169
VWidth: 1600
Flags: HMW
AnchorPoint: "Anchor-5" 436 892 basechar 0
AnchorPoint: "Anchor-3" 658 -1147 basechar 0
LayerCount: 2
Fore
SplineSet
1179 0 m 0
 1006 0 856 104 769 242 c 1
 643 169 523 84 402 -28 c 1
 289 -142 218 -262 218 -391 c 0
 218 -628 437 -741 656 -741 c 0
 826 -741 965 -673 1069 -542 c 1
 1168 -625 l 1
 1030 -789 879 -870 656 -870 c 0
 411 -870 90 -737 90 -394 c 0
 90 -222 184 -65 310 63 c 0
 464 219 670 344 848 434 c 1
 728 459 574 515 437 515 c 0
 352 515 271 457 271 373 c 0
 271 334 295 291 319 256 c 1
 212 185 l 1
 173 244 150 294 144 373 c 1
 146 533 281 644 437 644 c 0
 637 644 895 545 1062 512 c 1
 1067 392 l 1
 1003 363 942 335 882 304 c 1
 949 203 1063 129 1179 129 c 3
 1179 0 l 0
EndSplineSet
EndChar

StartChar: uniFEA3
Encoding: 65187 65187 113
Width: 1069
Flags: HMW
AnchorPoint: "Anchor-5" 341 895 basechar 0
AnchorPoint: "Anchor-3" 296 -291 basechar 0
LayerCount: 2
Fore
SplineSet
121 557 m 0
 176 612 248 643 328 643 c 0
 402 643 468 616 524 585 c 0
 582 554 630 519 678 494 c 0
 754 454 841 433 928 433 c 0
 939 433 950 433 961 434 c 1
 979 307 l 1
 899 289 822 255 755 207 c 0
 698 167 641 108 561 67 c 0
 477 23 386 10 301 4 c 0
 243 0 72 0 -14 0 c 1
 -14 129 l 1
 71 129 230 129 292 133 c 0
 369 138 442 151 502 182 c 0
 559 211 611 263 680 312 c 0
 693 321 707 330 720 338 c 1
 685 349 651 363 619 380 c 0
 560 411 510 446 462 472 c 0
 415 497 369 514 327 514 c 0
 284 514 242 496 212 466 c 0
 183 437 165 398 165 357 c 5
 36 357 l 5
 36 432 68 504 121 557 c 0
EndSplineSet
Validated: 1
EndChar

StartChar: uniFEA4
Encoding: 65188 65188 114
Width: 1015
VWidth: 1600
Flags: HMW
AnchorPoint: "Anchor-5" 337 895 basechar 0
AnchorPoint: "Anchor-3" 536 -213 basechar 0
LayerCount: 2
Fore
SplineSet
121 557 m 0
 176 612 248 643 328 643 c 0
 402 643 468 616 524 585 c 0
 582 554 630 519 678 494 c 0
 754 454 841 433 928 433 c 0
 939 433 950 433 961 434 c 1
 979 307 l 1
 912 292 848 266 789 230 c 1
 811 166 858 129 965 129 c 2
 1029 129 l 1
 1029 0 l 1
 965 0 l 2
 819 0 736 61 684 152 c 1
 648 123 609 91 561 67 c 0
 477 23 386 10 301 4 c 0
 243 0 72 0 -14 0 c 1
 -14 129 l 1
 71 129 230 129 292 133 c 0
 369 138 442 151 502 182 c 0
 559 211 611 263 680 312 c 0
 693 321 707 330 720 338 c 1
 685 349 651 363 619 380 c 0
 560 411 510 446 462 472 c 0
 415 497 369 514 327 514 c 0
 284 514 242 496 212 466 c 0
 183 437 165 398 165 357 c 1
 36 357 l 1
 36 432 68 504 121 557 c 0
EndSplineSet
Validated: 1
EndChar

StartChar: uniFEAA
Encoding: 65194 65194 115
Width: 981
VWidth: 1600
Flags: HMW
AnchorPoint: "Anchor-5" 407 967 basechar 0
AnchorPoint: "Anchor-3" 405 -218 basechar 0
LayerCount: 2
Fore
SplineSet
456 780 m 1
 739 323 l 2
 809 211 880 129 981 129 c 2
 995 129 l 1
 995 0 l 1
 981 0 l 2
 854 0 755 49 684 132 c 1
 623 20 457 -14 278 -14 c 0
 219 -14 148 -9 90 0 c 1
 90 135 l 1
 146 123 219 118 279 118 c 0
 435 118 586 151 586 237 c 0
 586 314 449 543 342 703 c 1
 456 780 l 1
EndSplineSet
Validated: 1
PairPos2: "'kern' Horizontal Kerning lookup 6 subtable 3" uni063A dx=-457 dy=0 dh=-457 dv=0 dx=0 dy=0 dh=0 dv=0
PairPos2: "'kern' Horizontal Kerning lookup 6 subtable 3" uni0639 dx=-457 dy=0 dh=-457 dv=0 dx=0 dy=0 dh=0 dv=0
EndChar

StartChar: uniFEAE
Encoding: 65198 65198 116
Width: 607
VWidth: 1600
Flags: HMW
AnchorPoint: "Anchor-5" 262 754 basechar 0
AnchorPoint: "Anchor-3" 139 -682 basechar 0
LayerCount: 2
Fore
SplineSet
389 80 m 1
 367 -200 168 -398 -124 -512 c 1
 -170 -391 l 1
 68 -297 263 -137 263 130 c 0
 263 229 238 326 200 424 c 1
 318 475 l 17
 387 320 409 129 617 129 c 2
 631 129 l 1
 631 0 l 1
 617 0 l 2
 522 0 446 33 389 80 c 1
EndSplineSet
Validated: 1
PairPos2: "'kern' Horizontal Kerning lookup 6 subtable 1" uni062D dx=-260 dy=0 dh=-260 dv=0 dx=0 dy=0 dh=0 dv=0
PairPos2: "'kern' Horizontal Kerning lookup 6 subtable 4" uniE00A dx=200 dy=0 dh=200 dv=0 dx=0 dy=0 dh=0 dv=0
PairPos2: "'kern' Horizontal Kerning lookup 6 subtable 4" uniE004 dx=200 dy=0 dh=200 dv=0 dx=0 dy=0 dh=0 dv=0
PairPos2: "'kern' Horizontal Kerning lookup 6 subtable 4" uniE002 dx=200 dy=0 dh=200 dv=0 dx=0 dy=0 dh=0 dv=0
PairPos2: "'kern' Horizontal Kerning lookup 6 subtable 4" uniE000 dx=100 dy=0 dh=100 dv=0 dx=0 dy=0 dh=0 dv=0
PairPos2: "'kern' Horizontal Kerning lookup 6 subtable 1" uni063A dx=-280 dy=0 dh=-280 dv=0 dx=0 dy=0 dh=0 dv=0
PairPos2: "'kern' Horizontal Kerning lookup 6 subtable 1" uni0639 dx=-280 dy=0 dh=-280 dv=0 dx=0 dy=0 dh=0 dv=0
PairPos2: "'kern' Horizontal Kerning lookup 6 subtable 1" uni06CC dx=120 dy=0 dh=120 dv=0 dx=0 dy=0 dh=0 dv=0
PairPos2: "'kern' Horizontal Kerning lookup 6 subtable 1" uni0644 dx=120 dy=0 dh=120 dv=0 dx=0 dy=0 dh=0 dv=0
PairPos2: "'kern' Horizontal Kerning lookup 6 subtable 1" uni0649 dx=120 dy=0 dh=120 dv=0 dx=0 dy=0 dh=0 dv=0
EndChar

StartChar: uniFEB2
Encoding: 65202 65202 117
Width: 2582
VWidth: 1600
Flags: HMW
AnchorPoint: "Anchor-5" 1833 749 basechar 0
AnchorPoint: "Anchor-3" 688 -857 basechar 0
LayerCount: 2
Fore
SplineSet
1342 508 m 1
 1375 415 1405 303 1445 224 c 0
 1476 161 1523 129 1590 129 c 3
 1678 129 1719 172 1739 232 c 1
 1756 285 1757 357 1757 444 c 2
 1757 508 l 1
 1885 508 l 1
 1885 444 l 2
 1885 357 1886 285 1903 232 c 1
 1923 172 1964 129 2052 129 c 1
 2140 129 2181 172 2201 232 c 1
 2218 285 2219 357 2219 444 c 2
 2219 508 l 1
 2347 508 l 1
 2347 444 l 2
 2347 357 2348 285 2365 232 c 1
 2387 166 2434 129 2542 129 c 2
 2596 129 l 1
 2596 0 l 1
 2542 0 l 2
 2421 0 2333 47 2283 115 c 1
 2237 52 2159 0 2052 0 c 1
 1945 0 1867 52 1821 115 c 1
 1775 52 1697 0 1590 0 c 3
 1537 0 1478 21 1431 52 c 1
 1424 -48 1398 -143 1352 -222 c 0
 1226 -441 959 -580 714 -580 c 0
 384 -580 118 -396 118 -107 c 0
 118 110 288 344 651 508 c 1
 704 391 l 1
 368 239 247 47 247 -107 c 0
 247 -307 433 -451 714 -451 c 0
 907 -451 1143 -326 1240 -158 c 0
 1281 -86 1303 9 1303 113 c 0
 1303 229 1265 354 1223 461 c 1
 1342 508 l 1
EndSplineSet
Validated: 1
EndChar

StartChar: uniFEB3
Encoding: 65203 65203 118
Width: 1402
VWidth: 1600
Flags: HMW
AnchorPoint: "Anchor-5" 766 796 basechar 0
AnchorPoint: "Anchor-3" 758 -270 basechar 0
LayerCount: 2
Fore
SplineSet
992 0 m 7
 885 0 807 52 761 115 c 5
 715 52 637 0 530 0 c 5
 423 0 345 52 299 115 c 5
 249 47 161 0 40 0 c 6
 -14 0 l 5
 -14 129 l 5
 40 129 l 6
 148 129 195 166 217 232 c 5
 234 285 235 357 235 444 c 6
 235 508 l 5
 363 508 l 5
 363 444 l 6
 363 357 364 285 381 232 c 5
 401 172 442 129 530 129 c 5
 618 129 659 172 679 232 c 5
 696 285 697 357 697 444 c 6
 697 508 l 5
 825 508 l 5
 825 444 l 6
 825 357 826 285 843 232 c 5
 863 172 902 129 990 129 c 7
 1095 129 1148 190 1148 293 c 4
 1148 367 1132 454 1109 508 c 5
 1229 555 l 5
 1256 483 1274 386 1274 301 c 4
 1274 125 1179 0 992 0 c 7
EndSplineSet
Validated: 1
EndChar

StartChar: uniFEB4
Encoding: 65204 65204 119
Width: 1522
Flags: HMW
AnchorPoint: "Anchor-5" 771 752 basechar 0
AnchorPoint: "Anchor-3" 767 -217 basechar 0
LayerCount: 2
Fore
SplineSet
825 508 m 1
 825 444 l 2
 825 357 825 285 843 232 c 1
 862 172 904 129 992 129 c 1
 1080 129 1122 172 1141 232 c 1
 1159 285 1159 357 1159 444 c 2
 1159 508 l 1
 1287 508 l 1
 1287 444 l 2
 1287 357 1287 285 1305 232 c 1
 1326 166 1374 129 1482 129 c 2
 1536 129 l 1
 1536 0 l 1
 1482 0 l 2
 1361 0 1273 47 1223 115 c 1
 1177 52 1099 0 992 0 c 1
 885 0 807 52 761 115 c 1
 715 52 637 0 530 0 c 1
 423 0 345 52 299 115 c 1
 249 47 161 0 40 0 c 2
 -14 0 l 1
 -14 129 l 1
 40 129 l 2
 148 129 196 166 217 232 c 1
 235 285 235 357 235 444 c 2
 235 508 l 1
 363 508 l 1
 363 444 l 2
 363 357 363 285 381 232 c 1
 400 172 442 129 530 129 c 1
 618 129 660 172 679 232 c 1
 697 285 697 357 697 444 c 2
 697 508 l 1
 825 508 l 1
EndSplineSet
Validated: 1
EndChar

StartChar: uniFEBA
Encoding: 65210 65210 120
Width: 2434
VWidth: 1600
Flags: HMW
AnchorPoint: "Anchor-5" 1975 893 basechar 0
AnchorPoint: "Anchor-3" 684 -857 basechar 0
LayerCount: 2
Fore
SplineSet
1993 535 m 0
 1836 535 1662 279 1598 141 c 1
 1631 133 1665 129 1698 129 c 0
 1960 129 2138 227 2138 378 c 0
 2138 463 2096 535 1993 535 c 0
1211 424 m 1
 1196 457 l 1
 1315 508 l 1
 1329 475 l 2
 1380 356 1410 210 1473 184 c 1
 1568 386 1764 664 1993 664 c 0
 2167 664 2267 529 2267 378 c 0
 2267 249 2277 129 2444 129 c 2
 2458 129 l 1
 2458 0 l 1
 2444 0 l 2
 2303 0 2211 62 2160 164 c 1
 2070 59 1907 0 1698 0 c 0
 1591 0 1492 33 1404 76 c 1
 1404 76 1403 64 1402 52 c 0
 1394 -48 1370 -142 1324 -222 c 0
 1198 -441 931 -580 686 -580 c 0
 356 -580 90 -396 90 -107 c 0
 90 110 260 344 623 508 c 1
 676 391 l 1
 340 239 219 47 219 -107 c 0
 219 -307 405 -451 686 -451 c 0
 879 -451 1115 -325 1212 -157 c 0
 1253 -85 1276 9 1276 113 c 0
 1276 213 1255 321 1211 424 c 1
EndSplineSet
Validated: 1
EndChar

StartChar: uniFEBB
Encoding: 65211 65211 121
Width: 1223
VWidth: 1600
Flags: HMW
AnchorPoint: "Anchor-5" 868 874 basechar 0
AnchorPoint: "Anchor-3" 598 -302 basechar 0
LayerCount: 2
Fore
SplineSet
0 129 m 3
 190 129 193 259 193 449 c 1
 321 455 l 1
 323 423 324 393 324 364 c 0
 324 285 317 220 317 185 c 0
 317 159 320 145 351 142 c 1
 427 329 639 665 889 665 c 0
 1045 665 1163 545 1163 389 c 4
 1163 89 854 0 470 0 c 0
 386 0 283 8 221 79 c 1
 169 32 96 0 0 0 c 0
 -14 0 l 25
 -14 129 l 25
 0 129 l 3
1034 389 m 4
 1034 478 973 536 889 536 c 0
 728 536 550 262 488 127 c 1
 779 128 1034 179 1034 389 c 4
EndSplineSet
Validated: 1
EndChar

StartChar: uniFEBC
Encoding: 65212 65212 122
Width: 1196
VWidth: 1600
Flags: HMW
AnchorPoint: "Anchor-5" 874 900 basechar 0
AnchorPoint: "Anchor-3" 566 -251 basechar 0
LayerCount: 2
Fore
SplineSet
1034 389 m 0
 1034 478 973 536 889 536 c 0
 728 536 550 262 488 127 c 1
 779 128 1034 179 1034 389 c 0
0 129 m 2
 190 129 193 259 193 449 c 1
 321 455 l 1
 323 423 324 393 324 364 c 0
 324 285 317 220 317 185 c 0
 317 159 320 145 351 142 c 1
 427 329 639 665 889 665 c 0
 1045 665 1163 545 1163 389 c 0
 1163 269 1105 191 1023 129 c 1
 1210 129 l 1
 1210 0 l 1
 470 0 l 2
 386 0 283 8 221 79 c 1
 169 32 96 0 0 0 c 2
 -14 0 l 1
 -14 129 l 1
 0 129 l 2
EndSplineSet
Validated: 1
EndChar

StartChar: uniFEC2
Encoding: 65218 65218 123
Width: 1095
VWidth: 1600
Flags: HMW
AnchorPoint: "Anchor-5" 781 1031 basechar 0
AnchorPoint: "Anchor-3" 562 -217 basechar 0
LayerCount: 2
Fore
SplineSet
1119 129 m 1
 1119 0 l 1
 345 0 l 1
 49 0 l 1
 49 127 l 1
 216 127 l 1
 216 1217 l 1
 345 1217 l 1
 345 363 l 1
 449 517 598 665 764 665 c 0
 920 665 1038 545 1038 389 c 0
 1038 273 992 189 913 129 c 1
 1119 129 l 1
909 389 m 0
 909 478 848 536 764 536 c 0
 603 536 426 263 363 128 c 1
 419 128 l 1
 686 135 909 193 909 389 c 0
EndSplineSet
Validated: 1
EndChar

StartChar: uniFEC3
Encoding: 65219 65219 124
Width: 1107
VWidth: 1600
Flags: HMW
AnchorPoint: "Anchor-5" 757 963 basechar 0
AnchorPoint: "Anchor-3" 516 -243 basechar 0
LayerCount: 2
Fore
SplineSet
879 389 m 0
 879 478 818 536 734 536 c 0
 573 536 395 262 333 127 c 1
 624 128 879 179 879 389 c 0
315 363 m 1
 419 517 568 665 734 665 c 0
 890 665 1008 545 1008 389 c 0
 1008 89 699 0 315 0 c 2
 -14 0 l 1
 -14 127 l 1
 186 127 l 1
 186 1217 l 1
 315 1217 l 1
 315 363 l 1
EndSplineSet
Validated: 1
EndChar

StartChar: uniFEC4
Encoding: 65220 65220 125
Width: 1080
VWidth: 1600
Flags: HMW
AnchorPoint: "Anchor-5" 745 1055 basechar 0
AnchorPoint: "Anchor-3" 510 -211 basechar 0
LayerCount: 2
Fore
SplineSet
1094 129 m 1
 1094 0 l 1
 -14 0 l 1
 -14 127 l 1
 216 127 l 1
 216 1217 l 1
 345 1217 l 1
 345 363 l 1
 449 517 598 665 764 665 c 0
 920 665 1038 545 1038 389 c 0
 1038 273 992 189 913 129 c 1
 1094 129 l 1
909 389 m 0
 909 478 848 536 764 536 c 0
 603 536 426 263 363 128 c 1
 419 128 l 1
 686 135 909 193 909 389 c 0
EndSplineSet
Validated: 1
EndChar

StartChar: uniFECA
Encoding: 65226 65226 126
Width: 952
Flags: HMW
AnchorPoint: "Anchor-5" 506 879 basechar 0
AnchorPoint: "Anchor-3" 585 -1087 basechar 0
LayerCount: 2
Fore
SplineSet
504.907226562 515 m 0
 429.907226562 515 358.907226562 502 313.907226562 481 c 0
 268.907226562 460 255.907226562 442 255.907226562 412 c 0
 255.907226562 344 292.907226562 277 369.907226562 222 c 0
 380.907226562 214 393.907226562 206 406.907226562 199 c 1
 532.907226562 314 662.907226562 396 733.907226562 438 c 1
 723.907226562 448 708.907226562 460 687.907226562 471 c 0
 638.907226562 497 567.907226562 515 504.907226562 515 c 0
976 129 m 1
 976 0 l 1
 708.907226562 0 l 0
 606.907226562 0 513.907226562 16 433.907226562 45 c 1
 395.907226562 6 359.907226562 -36 328.907226562 -79 c 0
 259.8515625 -177.014648438 218.36328125 -295.981445312 218.36328125 -412.563476562 c 0
 218.36328125 -452.986328125 223.3515625 -493.123046875 233.907226562 -532 c 0
 251.907226562 -601 296.907226562 -651 358.907226562 -687 c 0
 420.907226562 -723 502.907226562 -742 584.907226562 -742 c 0
 730.907226562 -742 849.991210938 -686.248046875 932.907226562 -569 c 1
 1031.90722656 -652 l 1
 924.907226562 -795 775.685546875 -871 584.907226562 -871 c 0
 482.907226562 -871 380.907226562 -848 294.907226562 -798 c 0
 208.907226562 -748 137.907226562 -670 109.907226562 -565 c 0
 96.3525390625 -513.909179688 90 -462.20703125 90 -410.8671875 c 0
 90 -265.251953125 141.1015625 -122.553710938 223.907226562 -5 c 0
 250.907226562 33 280.907226562 70 312.907226562 105 c 1
 306.907226562 109 300.907226562 113 294.907226562 117 c 0
 191.907226562 190 126.907226562 297 126.907226562 412 c 0
 126.907226562 498 187.907226562 563 258.907226562 597 c 0
 329.907226562 631 415.907226562 644 504.907226562 644 c 0
 590.907226562 644 677.907226562 623 747.907226562 586 c 0
 817.907226562 549 882.907226562 496 882.907226562 412 c 0
 882.907226562 390 867.907226562 365 848.907226562 355 c 2
 848.907226562 355 698.907226562 274 545.907226562 147 c 1
 594.907226562 136 648.907226562 129 708.907226562 129 c 0
 976 129 l 1
EndSplineSet
Validated: 1
EndChar

StartChar: uniFECB
Encoding: 65227 65227 127
Width: 762
VWidth: 1600
Flags: HMW
AnchorPoint: "Anchor-5" 439 893 basechar 0
AnchorPoint: "Anchor-3" 377 -252 basechar 0
LayerCount: 2
Fore
SplineSet
575 488 m 1
 528 507 495 516 445 516 c 0
 307 516 221 397 221 279 c 0
 221 139 443 126 591 126 c 1
 672 127 l 1
 672 0 l 1
 457 0 201 0 -14 0 c 1
 -14 129 l 1
 26 129 105 129 145 129 c 1
 111 169 92 218 92 279 c 0
 92 466 229 645 445 645 c 0
 498 645 564 632 620 608 c 1
 575 488 l 1
EndSplineSet
Validated: 1
EndChar

StartChar: uniFECC
Encoding: 65228 65228 128
Width: 872
VWidth: 1600
Flags: HMW
AnchorPoint: "Anchor-5" 440 873 basechar 0
AnchorPoint: "Anchor-3" 428 -236 basechar 0
LayerCount: 2
Fore
SplineSet
436 627 m 0
 591 627 789 568 789 404 c 0
 789 283 704 189 616 137 c 1
 659 132 702 129 742 129 c 2
 886 129 l 1
 886 1 l 1
 705 1 l 2
 591 1 535 13 436 46 c 1
 337 13 281 1 167 1 c 2
 -14 1 l 1
 -14 129 l 1
 130 129 l 2
 170 129 213 132 256 137 c 1
 168 189 83 283 83 404 c 0
 83 568 281 627 436 627 c 0
436 185 m 1
 522 224 660 292 660 404 c 0
 660 453 565 498 436 498 c 0
 307 498 212 453 212 404 c 0
 212 292 350 224 436 185 c 1
EndSplineSet
EndChar

StartChar: uniFEDB
Encoding: 65243 65243 129
Width: 798
VWidth: 1600
Flags: HMW
AnchorPoint: "Anchor-5" 272 1446 basechar 0
AnchorPoint: "Anchor-3" 357 -242 basechar 0
LayerCount: 2
Fore
SplineSet
708 1194 m 1
 106 805 l 1
 244 734 l 2
 459 624 708 514 708 305 c 0
 708 99 573 0 370 0 c 0
 259 0 97 0 -14 0 c 1
 -14 129 l 1
 97 129 259 129 370 129 c 0
 511 129 579 186 579 305 c 0
 579 432 370 525 189 618 c 1
 -7 714 l 1
 -7 887 l 1
 708 1348 l 1
 708 1194 l 1
EndSplineSet
Validated: 1
Substitution2: "single substitution 0 subtable" uniE006
EndChar

StartChar: uniFEDC
Encoding: 65244 65244 130
Width: 909
VWidth: 1600
Flags: HMW
AnchorPoint: "Anchor-5" 270 1446 basechar 0
AnchorPoint: "Anchor-3" 325 -202 basechar 0
LayerCount: 2
Fore
SplineSet
920 64 m 1
 920 0 l 1
 909 0 l 2
 846 0 773 11 718 67 c 0
 695 90 677 111 663 131 c 1
 607 43 503 0 370 0 c 0
 259 0 97 0 -14 0 c 1
 -14 129 l 1
 97 129 259 129 370 129 c 0
 511 129 579 186 579 305 c 0
 579 432 370 525 189 618 c 2
 -7 714 l 1
 -7 887 l 1
 708 1348 l 1
 708 1194 l 1
 106 805 l 1
 244 734 l 2
 345 682 453 631 540 569 c 1
 791 390 701 268 810 156 c 0
 827 138 858 129 909 129 c 2
 920 129 l 1
 920 64 l 1
EndSplineSet
Validated: 1
Substitution2: "single substitution 0 subtable" uniE007
EndChar

StartChar: uniFEDE
Encoding: 65246 65246 131
Width: 1642
VWidth: 1600
Flags: HMW
AnchorPoint: "Anchor-5" 709 885 basechar 0
AnchorPoint: "Anchor-3" 682 -815 basechar 0
LayerCount: 2
Fore
SplineSet
1652 0 m 2
 1541 0 1457 28 1395 79 c 1
 1394 25 l 1
 1394 -329 1003 -580 686 -580 c 0
 393 -580 90 -412 90 -107 c 0
 90 110 260 344 623 508 c 1
 676 391 l 1
 340 239 219 47 219 -107 c 0
 219 -326 440 -451 686 -451 c 0
 920 -451 1266 -253 1266 25 c 2
 1266 1217 l 1
 1394 1217 l 1
 1394 577 l 2
 1394 311 1395 129 1652 129 c 2
 1666 129 l 1
 1666 0 l 1
 1652 0 l 2
EndSplineSet
Validated: 1
EndChar

StartChar: uniFEDF
Encoding: 65247 65247 132
Width: 415
VWidth: 1600
Flags: HMW
AnchorPoint: "Anchor-5" 262 1380 basechar 0
AnchorPoint: "Anchor-3" 197 -168 basechar 0
LayerCount: 2
Fore
SplineSet
0 129 m 2
 113 129 144 156 167 207 c 0
 190 258 196 347 196 449 c 2
 196 1219 l 1
 325 1219 l 1
 325 449 l 2
 325 347 324 243 284 154 c 0
 243 63 144 0 0 0 c 2
 -14 0 l 1
 -14 129 l 1
 0 129 l 2
EndSplineSet
Validated: 1
EndChar

StartChar: uniFEE0
Encoding: 65248 65248 133
Width: 644
VWidth: 1600
Flags: HMW
AnchorPoint: "Anchor-5" 323 1420 basechar 0
AnchorPoint: "Anchor-3" 322 -205 basechar 0
LayerCount: 2
Fore
SplineSet
644 0 m 2
 556 0 483 17 425 51 c 0
 378 79 346 119 322 163 c 1
 298 119 266 79 219 51 c 0
 161 17 88 0 0 0 c 2
 -14 0 l 1
 -14 129 l 1
 0 129 l 2
 126 129 188 163 222 245 c 0
 254 320 258 442 258 577 c 2
 257 1217 l 1
 386 1217 l 1
 386 577 l 2
 386 571 l 0
 386 307 387 129 644 129 c 2
 658 129 l 1
 658 0 l 1
 644 0 l 2
EndSplineSet
Validated: 1
EndChar

StartChar: uniFEE2
Encoding: 65250 65250 134
Width: 1072
Flags: HMW
AnchorPoint: "Anchor-5" 552 871 basechar 0
AnchorPoint: "Anchor-3" 582 -763 basechar 0
LayerCount: 2
Fore
SplineSet
1086 0 m 1
 1072 0 l 1
 1034 0 986 8 940 40 c 0
 930 48 920 56 910 66 c 1
 866 24 800 0 720 0 c 0
 608 0 496 18 410 18 c 0
 339 18 288 5 258 -34 c 0
 236 -62 218 -110 218 -198 c 0
 220 -842 l 1
 90 -842 l 1
 90 -196 l 1
 90 -92 112 -12 156 46 c 0
 198 102 280 144 342 144 c 1
 356 246 l 2
 372 360 408 452 462 516 c 0
 516 580 592 618 668 618 c 0
 758 618 838 570 894 504 c 0
 968 416 988 330 988 200 c 0
 988 143 1026 130 1072 130 c 2
 1086 130 l 1
 1086 0 l 1
668 490 m 0
 632 490 596 476 562 434 c 0
 528 392 498 324 484 228 c 2
 472 148 l 1
 556 144 644 130 720 130 c 0
 784 130 812 148 830 170 c 0
 848 192 856 224 856 258 c 0
 856 316 832 376 794 420 c 0
 756 464 710 490 668 490 c 0
EndSplineSet
Validated: 1
EndChar

StartChar: uniFEE3
Encoding: 65251 65251 135
Width: 942
VWidth: 1600
Flags: HMW
AnchorPoint: "Anchor-5" 477 931 basechar 0
AnchorPoint: "Anchor-3" 570 -266 basechar 0
LayerCount: 2
Fore
SplineSet
0 129 m 2
 99 129 142 184 179 283 c 0
 211 370 241 452 282 519 c 0
 323 586 388 645 474 645 c 0
 655 645 852 455 852 267 c 0
 852 101 739 0 575 0 c 0
 434 0 324 55 251 138 c 1
 201 50 112 0 0 0 c 2
 -14 0 l 1
 -14 129 l 1
 0 129 l 2
474 516 m 0
 441 516 422 501 392 452 c 0
 366 409 340 342 312 269 c 1
 362 181 434 129 575 129 c 0
 678 129 723 179 723 267 c 0
 723 389 575 516 474 516 c 0
EndSplineSet
Validated: 1
EndChar

StartChar: uniFEE4
Encoding: 65252 65252 136
Width: 985
VWidth: 1600
Flags: HMW
AnchorPoint: "Anchor-5" 473 918 basechar 0
AnchorPoint: "Anchor-3" 538 -274 basechar 0
LayerCount: 2
Fore
SplineSet
985 0 m 2
 895 0 835 23 785 82 c 1
 736 30 663 0 575 0 c 0
 434 0 324 55 251 138 c 1
 201 50 112 0 0 0 c 2
 -14 0 l 9
 -14 129 l 17
 0 129 l 2
 99 129 142 184 179 283 c 0
 211 370 241 452 282 519 c 0
 323 586 388 645 474 645 c 0
 655 645 852 455 852 267 c 0
 853 208 866 183 887 162 c 0
 908 141 940 129 985 129 c 2
 999 129 l 9
 999 0 l 17
 985 0 l 2
575 129 m 0
 678 129 723 179 723 267 c 0
 723 389 575 516 474 516 c 0
 441 516 422 501 392 452 c 0
 366 409 340 342 312 269 c 1
 362 181 434 129 575 129 c 0
EndSplineSet
Validated: 1
EndChar

StartChar: uniFEEA
Encoding: 65258 65258 137
Width: 920
Flags: HMW
AnchorPoint: "Anchor-5" 447 907 basechar 0
AnchorPoint: "Anchor-3" 436 -253 basechar 0
LayerCount: 2
Fore
SplineSet
920 0 m 1
 814 0 721 49 670 116 c 0
 665 122 661 129 657 135 c 1
 598 91 516 63 416 63 c 0
 322 63 232 90 168 149 c 0
 120 193 90 259 90 331 c 0
 90 354 93 379 100 403 c 0
 121 480 154 553 205 611 c 0
 256 669 330 710 416 710 c 0
 508 710 578 653 616 587 c 0
 654 521 673 445 695 374 c 0
 717 303 741 236 773 194 c 0
 805 152 849 129 920 129 c 1
 934 129 l 1
 934 0 l 1
 920 0 l 1
416 581 m 0
 368 581 334 562 301 525 c 0
 268 488 242 432 225 369 c 0
 221 352 218 336 218 323 c 0
 218 289 232 266 256 244 c 0
 289 214 348 192 416 192 c 0
 510 192 568 224 598 255 c 1
 588 282 580 310 572 336 c 0
 549 410 529 479 504 522 c 0
 479 565 463 581 416 581 c 0
EndSplineSet
Validated: 1
EndChar

StartChar: uniFEEB
Encoding: 65259 65259 138
Width: 1214
Flags: HMW
AnchorPoint: "Anchor-5" 509 1059 basechar 0
AnchorPoint: "Anchor-3" 530 -257 basechar 0
LayerCount: 2
Fore
SplineSet
309 782 m 1
 348 710 369 668 462 638 c 0
 523 618 602 607 683 597 c 0
 764 587 848 577 923 552 c 0
 1024 518 1124 444 1124 303 c 0
 1124 234 1096 168 1051 118 c 0
 984 44 880 0 763 0 c 0
 707 0 647 10 587 32 c 1
 532 16 439 0 381 0 c 2
 50 0 l 1
 -14 0 l 1
 -14 129 l 1
 50 129 l 1
 88 129 l 1
 68 164 57 205 57 248 c 0
 57 332 87 425 140 504 c 0
 170 549 209 591 257 619 c 1
 232 649 214 686 195 722 c 1
 309 782 l 1
381 524 m 0
 333 524 285 490 247 433 c 0
 209 376 186 298 186 248 c 0
 186 217 194 198 208 182 c 0
 237 149 303 130 373 130 c 0
 413 130 468 134 499 148 c 0
 536 165 559 181 559 248 c 0
 559 301 539 378 504 435 c 0
 469 492 429 524 381 524 c 0
630 474 m 1
 668 401 688 320 688 248 c 0
 688 208 679 173 665 143 c 1
 699 134 732 129 763 129 c 0
 848 129 917 162 956 205 c 0
 982 234 997 265 997 299 c 0
 997 375 954 406 882 430 c 0
 825 449 748 459 667 469 c 0
 655 471 642 472 630 474 c 1
EndSplineSet
Validated: 1
EndChar

StartChar: uniFEEC
Encoding: 65260 65260 139
Width: 837
VWidth: 1600
Flags: HMW
AnchorPoint: "Anchor-5" 451 956 basechar 0
AnchorPoint: "Anchor-3" 454 -759 basechar 0
LayerCount: 2
Fore
SplineSet
837 129 m 2
 851 129 l 1
 851 0 l 1
 837 0 l 2
 716 0 647 -61 647 -160 c 0
 647 -204 665 -246 665 -293 c 0
 665 -412 580 -515 455 -515 c 0
 257 -515 127 -308 110 0 c 1
 -14 0 l 1
 -14 129 l 1
 111 129 l 1
 132 423 253 644 455 644 c 0
 595 644 702 531 702 368 c 0
 702 158 460 3 241 3 c 1
 251 -149 297 -386 455 -386 c 0
 499 -386 537 -354 537 -294 c 0
 537 -249 518 -223 518 -161 c 0
 518 19 656 129 837 129 c 2
455 515 m 0
 302 515 256 264 243 131 c 1
 361 131 573 217 573 369 c 0
 573 474 507 515 455 515 c 0
EndSplineSet
Validated: 1
EndChar

StartChar: uni0622
Encoding: 1570 1570 141
Width: 328
VWidth: 1600
Flags: HMW
AnchorPoint: "Anchor-5" 163 1480 basechar 0
AnchorPoint: "Anchor-3" 154 -149 basechar 0
LayerCount: 2
Fore
SplineSet
100 946 m 1
 228 946 l 1
 228 0 l 1
 100 0 l 1
 100 946 l 1
466 1317 m 1
 548 1217 l 1
 468 1133 386 1090 254 1090 c 0
 106 1090 82 1138 18 1138 c 0
 -32 1138 -84 1074 -128 1029 c 1
 -220 1120 l 1
 -156 1184 -88 1266 16 1266 c 0
 90 1266 154 1218 252 1218 c 0
 350 1218 408 1259 466 1317 c 1
EndSplineSet
Validated: 1
PairPos2: "'kern' Horizontal Kerning lookup 6 subtable 2" uniE008 dx=200 dy=0 dh=200 dv=0 dx=0 dy=0 dh=0 dv=0
PairPos2: "'kern' Horizontal Kerning lookup 6 subtable 2" uniE006 dx=200 dy=0 dh=200 dv=0 dx=0 dy=0 dh=0 dv=0
PairPos2: "'kern' Horizontal Kerning lookup 6 subtable 2" uniFEDB dx=200 dy=0 dh=200 dv=0 dx=0 dy=0 dh=0 dv=0
PairPos2: "'kern' Horizontal Kerning lookup 6 subtable 2" uni06AF dx=200 dy=0 dh=200 dv=0 dx=0 dy=0 dh=0 dv=0
PairPos2: "'kern' Horizontal Kerning lookup 6 subtable 2" uni06A9 dx=200 dy=0 dh=200 dv=0 dx=0 dy=0 dh=0 dv=0
PairPos2: "'kern' Horizontal Kerning lookup 6 subtable 2" uniFB94 dx=200 dy=0 dh=200 dv=0 dx=0 dy=0 dh=0 dv=0
PairPos2: "'kern' Horizontal Kerning lookup 6 subtable 2" uniFB90 dx=200 dy=0 dh=200 dv=0 dx=0 dy=0 dh=0 dv=0
PairPos2: "'kern' Horizontal Kerning lookup 6 subtable 3" uni063A dx=-211 dy=0 dh=-211 dv=0 dx=0 dy=0 dh=0 dv=0
PairPos2: "'kern' Horizontal Kerning lookup 6 subtable 3" uni0639 dx=-211 dy=0 dh=-211 dv=0 dx=0 dy=0 dh=0 dv=0
PairPos2: "'kern' Horizontal Kerning lookup 6 subtable 2" uniFEFB dx=240 dy=0 dh=240 dv=0 dx=0 dy=0 dh=0 dv=0
PairPos2: "'kern' Horizontal Kerning lookup 6 subtable 2" uniFEF9 dx=240 dy=0 dh=240 dv=0 dx=0 dy=0 dh=0 dv=0
PairPos2: "'kern' Horizontal Kerning lookup 6 subtable 2" uniFEF7 dx=240 dy=0 dh=240 dv=0 dx=0 dy=0 dh=0 dv=0
PairPos2: "'kern' Horizontal Kerning lookup 6 subtable 2" uniFEF5 dx=240 dy=0 dh=240 dv=0 dx=0 dy=0 dh=0 dv=0
PairPos2: "'kern' Horizontal Kerning lookup 6 subtable 2" uniFEDF dx=222 dy=0 dh=222 dv=0 dx=0 dy=0 dh=0 dv=0
PairPos2: "'kern' Horizontal Kerning lookup 6 subtable 2" uni0644 dx=242 dy=0 dh=242 dv=0 dx=0 dy=0 dh=0 dv=0
PairPos2: "'kern' Horizontal Kerning lookup 6 subtable 2" uni0625 dx=163 dy=0 dh=163 dv=0 dx=0 dy=0 dh=0 dv=0
PairPos2: "'kern' Horizontal Kerning lookup 6 subtable 2" uni0623 dx=132 dy=0 dh=132 dv=0 dx=0 dy=0 dh=0 dv=0
PairPos2: "'kern' Horizontal Kerning lookup 6 subtable 2" uni0622 dx=475 dy=0 dh=475 dv=0 dx=0 dy=0 dh=0 dv=0
LCarets2: 1 0
Ligature2: "'liga' Standard Ligatures in Arabic lookup 5 subtable" uni0627 uni0653
Substitution2: "'fina' Terminal Forms in Arabic lookup 1 subtable" uniFE82
EndChar

StartChar: uni0643
Encoding: 1603 1603 160
Width: 1627
VWidth: 1600
Flags: HMW
AnchorPoint: "Anchor-5" 673 1192 basechar 0
AnchorPoint: "Anchor-3" 774 -356 basechar 0
LayerCount: 2
Fore
SplineSet
1408 359 m 0
 1408 647 1359 814 1243 1015 c 1
 1355 1080 l 1
 1479 865 1537 663 1537 359 c 0
 1537 272 1511 181 1446 112 c 0
 1378 40 1290 0 885 0 c 0
 671 0 474 2 324 56 c 0
 163 113 90 206 90 346 c 0
 90 415 107 463 124 528 c 1
 248 495 l 1
 235 446 218 393 218 345 c 0
 218 253 278 209 365 179 c 0
 496 135 713 129 951 129 c 0
 1221 129 1314 159 1352 200 c 0
 1390 241 1408 297 1408 359 c 0
EndSplineSet
Refer: 24 1620 N 1 0 0 1 600 -769 2
Validated: 1
Substitution2: "'init' Initial Forms in Arabic lookup 1 subtable" uniFEDB
Substitution2: "'medi' Medial Forms in Arabic lookup 1 subtable" uniFEDC
Substitution2: "'fina' Terminal Forms in Arabic lookup 1 subtable" uniFEDA
EndChar

StartChar: uniFEEE
Encoding: 65262 65262 187
Width: 834
VWidth: 1600
Flags: HMW
AnchorPoint: "Anchor-5" 398 836 basechar 0
AnchorPoint: "Anchor-3" 395 -738 basechar 0
LayerCount: 2
Fore
SplineSet
707 129 m 1
 848 129 l 1
 848 0 l 17
 682 0 l 1
 632 -238 444 -409 180 -512 c 1
 134 -391 l 1
 331 -313 498 -190 550 0 c 1
 405 0 l 2
 215 0 90 109 90 278 c 0
 90 456 232 645 403 645 c 0
 592 645 697 362 707 129 c 1
403 516 m 0
 313 516 219 394 219 281 c 0
 219 169 304 130 409 130 c 2
 573 130 l 1
 573 141 573 152 573 163 c 0
 573 300 489 516 403 516 c 0
EndSplineSet
Validated: 1
PairPos2: "'kern' Horizontal Kerning lookup 6 subtable 3" uni063A dx=-299 dy=0 dh=-299 dv=0 dx=0 dy=0 dh=0 dv=0
PairPos2: "'kern' Horizontal Kerning lookup 6 subtable 3" uni0639 dx=-299 dy=0 dh=-299 dv=0 dx=0 dy=0 dh=0 dv=0
EndChar

StartChar: uniFEDA
Encoding: 65242 65242 225
Width: 1729
VWidth: 1600
Flags: HMW
AnchorPoint: "Anchor-5" 806 1249 basechar 0
AnchorPoint: "Anchor-5" 1064 1836 basechar 0
AnchorPoint: "Anchor-3" 822 -267 basechar 0
AnchorPoint: "Anchor-3" 848 189 basechar 0
LayerCount: 2
Fore
SplineSet
1485 163 m 1
 1424 63 1309 0 1149 0 c 2
 829 0 l 2
 637 0 460 8 324 56 c 0
 163 113 90 206 90 346 c 0
 90 415 107 463 124 528 c 1
 248 495 l 1
 235 446 218 393 218 345 c 0
 218 253 278 209 365 179 c 0
 473 142 640 129 829 129 c 2
 1149 129 l 2
 1254 129 1314 159 1352 200 c 0
 1390 241 1408 297 1408 359 c 0
 1408 647 1359 814 1243 1015 c 1
 1355 1080 l 1
 1479 865 1548 663 1548 360 c 0
 1548 259 1598 129 1737 129 c 0
 1738 129 1738 129 1739 129 c 2
 1753 129 l 1
 1753 0 l 1
 1739 0 l 2
 1604 0 1523 66 1485 163 c 1
EndSplineSet
Refer: 24 1620 N 1 0 0 1 600 -769 2
Validated: 1
EndChar

StartChar: uniFB8F
Encoding: 64399 64399 232
Width: 1771
VWidth: 1600
Flags: HMW
AnchorPoint: "Anchor-5" 1105 1639 basechar 0
AnchorPoint: "Anchor-3" 856 -374 basechar 0
LayerCount: 2
Fore
SplineSet
1235 129 m 0
 1376 129 1444 186 1444 305 c 0
 1444 432 1235 525 1054 618 c 2
 858 714 l 1
 858 887 l 1
 1573 1348 l 1
 1573 1194 l 1
 971 805 l 1
 1109 734 l 2
 1210 682 1318 631 1405 569 c 1
 1656 390 1566 268 1675 156 c 0
 1692 138 1723 129 1774 129 c 2
 1785 129 l 1
 1785 64 l 1
 1785 0 l 1
 1774 0 l 2
 1711 0 1638 11 1583 67 c 0
 1560 90 1542 111 1528 131 c 1
 1472 43 1368 0 1235 0 c 0
 832 0 l 0
 628 0 436 1 292 58 c 0
 198 96 90 181 90 344 c 0
 90 388 97 428 104 463 c 2
 118 526 l 1
 244 499 l 1
 230 436 l 2
 224 406 219 374 219 344 c 0
 219 248 271 206 340 178 c 0
 447 136 629 129 832 129 c 0
 1235 129 l 0
EndSplineSet
Validated: 1
EndChar

StartChar: uniE006
Encoding: 57350 57350 244
Width: 688
VWidth: 1600
Flags: HW
HStem: 0 129<-14 363.654>
VStem: 419 129<183.024 404.669>
AnchorPoint: "Anchor-5" 162 1446 basechar 0
AnchorPoint: "Anchor-3" 197 -242 basechar 0
LayerCount: 2
Fore
SplineSet
598 1194 m 1
 -4 805 l 1
 134 734 l 2
 349 624 598 514 598 305 c 0
 598 99 463 0 260 0 c 0
 -14 0 l 1
 -14 129 l 1
 260 129 l 0
 401 129 469 186 469 305 c 0
 469 432 260 525 79 618 c 1
 -117 714 l 1
 -117 887 l 1
 598 1348 l 1
 598 1194 l 1
EndSplineSet
Validated: 1
EndChar

StartChar: uniE007
Encoding: 57351 57351 245
Width: 799
VWidth: 1600
Flags: HW
HStem: 0 129<36 416.319 685.928 810>
AnchorPoint: "Anchor-5" 160 1446 basechar 0
AnchorPoint: "Anchor-3" 215 -202 basechar 0
LayerCount: 2
Fore
SplineSet
810 64 m 1
 810 0 l 1
 799 0 l 2
 736 0 663 11 608 67 c 0
 585 90 567 111 553 131 c 1
 497 43 393 0 260 0 c 0
 -14 0 l 1
 -14 129 l 1
 260 129 l 0
 401 129 469 186 469 305 c 0
 469 432 260 525 79 618 c 2
 -117 714 l 1
 -117 887 l 1
 598 1348 l 1
 598 1194 l 1
 -4 805 l 1
 134 734 l 2
 235 682 343 631 430 569 c 1
 681 390 591 268 700 156 c 0
 717 138 748 129 799 129 c 2
 810 129 l 1
 810 64 l 1
EndSplineSet
Validated: 1
EndChar

StartChar: dollar
Encoding: 36 36 259
Width: 1022
VWidth: 1687
Flags: W
LayerCount: 2
Fore
SplineSet
464 673 m 1
 464 1091 l 1
 402 1089.66666667 350 1070.16666667 308 1032.5 c 128
 266 994.833333333 245 946.333333333 245 887 c 0
 245 794.333333333 290.666666667 731.666666667 382 699 c 0
 408 689.666666667 435.333333333 681 464 673 c 1
561 533 m 1
 561 65 l 1
 629 66.3333333333 687.5 89 736.5 133 c 128
 785.5 177 810 233.666666667 810 303 c 0
 810 406.333333333 759 474.666666667 657 508 c 0
 627.666666667 517.333333333 595.666666667 525.666666667 561 533 c 1
561 -163 m 1
 466 -163 l 1
 466 -35 l 1
 260.666666667 -21 138.333333333 77.3333333333 99 260 c 1
 90 351 l 1
 215 351 l 1
 215 344 l 2
 215 268 238.166666667 204.666666667 284.5 154 c 128
 330.833333333 103.333333333 390.666666667 75.3333333333 464 70 c 1
 464 554 l 1
 354.666666667 579.333333333 274.333333333 612 223 652 c 0
 156.333333333 704.666666667 123 779 123 875 c 128
 123 971 155.833333333 1047.66666667 221.5 1105 c 128
 287.166666667 1162.33333333 368.666666667 1191 466 1191 c 1
 466 1293 l 1
 561 1293 l 1
 561 1190 l 1
 713.666666667 1188 815.666666667 1130.33333333 867 1017 c 0
 884.333333333 979 894.333333333 936.333333333 897 889 c 1
 897 881 l 1
 773 881 l 1
 773 888 l 2
 773 944 753 990.333333333 713 1027 c 128
 673 1063.66666667 622.333333333 1083.33333333 561 1086 c 1
 561 653 l 1
 616.333333333 639 666.666666667 624.666666667 712 610 c 0
 858.666666667 562 932 454 932 286 c 0
 932 192 895 115.666666667 821 57 c 128
 747 -1.66666666667 660.333333333 -32.3333333333 561 -35 c 1
 561 -163 l 1
EndSplineSet
Validated: 1
EndChar

StartChar: ampersand
Encoding: 38 38 260
Width: 1221
VWidth: 1693
Flags: W
LayerCount: 2
Fore
SplineSet
585 828 m 0
 643 868.666666667 672 918.666666667 672 978 c 2
 672 987 l 257
 669.333333333 1037 645.333333333 1075.66666667 600 1103 c 256
 578.666666667 1115.66666667 550.666666667 1122 516 1122 c 128
 481.333333333 1122 452 1112.66666667 428 1094 c 0
 387.333333333 1061.33333333 367 1022.5 367 977.5 c 128
 367 932.5 407.666666667 861.666666667 489 765 c 1
 521 784.333333333 553 805.333333333 585 828 c 0
447 628 m 1
 342.333333333 576.666666667 272.333333333 506.666666667 237 418 c 256
 225 388 219 355 219 319 c 0
 219 245.666666667 244.333333333 185.666666667 295 139 c 256
 343.666666667 93 403.666666667 70 475 70 c 128
 546.333333333 70 606.166666667 84.3333333333 654.5 113 c 128
 702.833333333 141.666666667 746.666666667 179 786 225 c 1
 447 628 l 1
861 136 m 1
 763 21.3333333333 642 -36 498 -36 c 0
 375.333333333 -36 277 -2 203 66 c 256
 127.666666667 134 90 223 90 333 c 0
 90 495.666666667 185.333333333 622 376 712 c 1
 345.333333333 748.666666667 316.833333333 788.833333333 290.5 832.5 c 128
 264.166666667 876.166666667 251 922 251 970 c 0
 251 1096 308.666666667 1176.66666667 424 1212 c 0
 458 1222.66666667 493.666666667 1228 531 1228 c 0
 608.333333333 1228 671.333333333 1204 720 1156 c 256
 769.333333333 1108 794 1051 794 985 c 0
 794 883 743.333333333 798.333333333 642 731 c 0
 614.666666667 713 586.666666667 695.333333333 558 678 c 1
 851 330 l 1
 881 385.333333333 896 460.333333333 896 555 c 2
 896 562 l 1
 1010 562 l 1
 1010 554 l 1
 1005.33333333 423.333333333 977.666666667 318 927 238 c 1
 1131 -4 l 1
 976 -4 l 1
 861 136 l 1
EndSplineSet
Validated: 1
EndChar

StartChar: quoteright
Encoding: 8217 8217 261
Width: 317
VWidth: 1785
Flags: W
LayerCount: 2
Fore
SplineSet
227 1113 m 2
 227 1061.66666667 215 1020.33333333 191 989 c 256
 164.333333333 954.333333333 130.666666667 932.333333333 90 923 c 1
 90 999 l 1
 106 1009.66666667 119.333333333 1022 130 1036 c 256
 141.333333333 1050.66666667 147 1074 147 1106 c 2
 147 1156 l 1
 90 1156 l 1
 90 1320 l 1
 227 1320 l 1
 227 1113 l 2
EndSplineSet
Validated: 1
EndChar

StartChar: plus
Encoding: 43 43 262
Width: 1040
VWidth: 1657
Flags: W
LayerCount: 2
Fore
SplineSet
462 820 m 1
 577 820 l 1
 577 447 l 1
 950 447 l 1
 950 333 l 1
 577 333 l 1
 577 -40 l 1
 462 -40 l 1
 462 333 l 1
 90 333 l 1
 90 447 l 1
 462 447 l 1
 462 820 l 1
EndSplineSet
Validated: 1
EndChar

StartChar: comma
Encoding: 44 44 263
Width: 317
VWidth: 1558
Flags: W
LayerCount: 2
Fore
SplineSet
227 -181 m 2
 227 -232.333333333 215 -273.666666667 191 -305 c 256
 167 -336.333333333 136.333333333 -357.666666667 99 -369 c 1
 90 -373 l 1
 90 -296 l 1
 106 -285.333333333 119.666666667 -272.666666667 131 -258 c 128
 142.333333333 -243.333333333 148 -220.333333333 148 -189 c 2
 148 -138 l 1
 90 -138 l 1
 90 25 l 1
 227 25 l 1
 227 -181 l 2
EndSplineSet
Validated: 1
EndChar

StartChar: zero
Encoding: 48 48 264
Width: 1015
VWidth: 1691
Flags: W
LayerCount: 2
Fore
SplineSet
752 246 m 0
 786 324.666666667 803 439 803 589 c 0
 803 739 785 854 749 934 c 0
 703.666666667 1036 623.666666667 1087 509 1087 c 0
 507 1087 507 1087 505 1087 c 0
 393.666666667 1087 315.333333333 1034.66666667 270 930 c 0
 232 840.666666667 213 719 213 565 c 0
 213 411 233.666666667 295 275 217 c 0
 321.666666667 128.333333333 397.666666667 84 503 84 c 2
 508 84 l 2
 625.333333333 84 706.666666667 138 752 246 c 0
165 1001 m 0
 229 1129 343.333333333 1193 508 1193 c 0
 720 1193 850.333333333 1081 899 857 c 0
 916.333333333 778.333333333 925 692.333333333 925 599 c 0
 925 404.333333333 898.666666667 258.333333333 846 161 c 0
 778.666666667 38.3333333333 667 -23 511 -23 c 0
 511 -22.3333333333 510.333333333 -22 509 -22 c 0
 281.666666667 -22 147.666666667 104 107 356 c 0
 95.6666666667 429.333333333 90 505 90 583 c 0
 90 765 115 904.333333333 165 1001 c 0
EndSplineSet
Validated: 1
EndChar

StartChar: one
Encoding: 49 49 265
Width: 610
VWidth: 1694
Flags: W
LayerCount: 2
Fore
SplineSet
397 4 m 1
 397 882 l 1
 90 882 l 1
 90 965 l 1
 219 979 l 1
 291.666666667 989.666666667 345 1021.33333333 379 1074 c 0
 397.666666667 1104 411.333333333 1144.66666667 420 1196 c 1
 520 1196 l 1
 520 4 l 1
 397 4 l 1
EndSplineSet
Validated: 1
EndChar

StartChar: two
Encoding: 50 50 266
Width: 998
VWidth: 1694
Flags: W
LayerCount: 2
Fore
SplineSet
322 1003 m 0
 299.333333333 977 281.5 944.833333333 268.5 906.5 c 128
 255.5 868.166666667 251.333333333 829.666666667 256 791 c 1
 125 791 l 1
 125 798 l 2
 125 916 160.666666667 1011.83333333 232 1085.5 c 128
 303.333333333 1159.16666667 400.333333333 1196 523 1196 c 128
 645.666666667 1196 740.5 1164.66666667 807.5 1102 c 128
 874.5 1039.33333333 908 959.666666667 908 863 c 0
 908 725.666666667 842.333333333 614.333333333 711 529 c 0
 663.666666667 497.666666667 603.166666667 462.833333333 529.5 424.5 c 0
 456.5 386.833333333 407.333333333 358.666666667 382 340 c 0
 301.333333333 280.666666667 252 226 234 176 c 0
 226.666666667 156 222 134 220 110 c 1
 897 110 l 1
 897 4 l 1
 90 4 l 1
 90 11 l 1
 91.3333333333 67.6666666667 97.6666666667 119.333333333 109 166 c 128
 120.333333333 212.666666667 146.333333333 259 187 305 c 0
 253.666666667 381 342 450.333333333 452 513 c 0
 496 539 538 562.666666667 578 584 c 0
 663.333333333 630.666666667 721 682.666666667 751 740 c 0
 767 771.333333333 775 807.666666667 775 849 c 0
 775 925.666666667 751.5 984.666666667 704.5 1026 c 128
 657.5 1067.33333333 594.666666667 1088.33333333 516 1089 c 128
 437.333333333 1089.66666667 372.666666667 1061 322 1003 c 0
EndSplineSet
Validated: 33
EndChar

StartChar: three
Encoding: 51 51 267
Width: 1017
VWidth: 1691
Flags: W
LayerCount: 2
Fore
SplineSet
804 342 m 1
 797.333333333 495.333333333 687 572 473 572 c 0
 454.333333333 572 435.666666667 571.333333333 417 570 c 1
 409 570 l 1
 409 671 l 1
 417 671 l 2
 533.666666667 671 620.166666667 686.833333333 676.5 718.5 c 128
 732.833333333 750.166666667 761 806.666666667 761 888 c 0
 761 1020.66666667 676.666666667 1087 508 1087 c 0
 431.333333333 1087 369.333333333 1064.66666667 322 1020 c 0
 276 974 253 916 253 846 c 2
 253 839 l 1
 131 839 l 1
 131 846 l 2
 131 953.333333333 170 1042.66666667 248 1114 c 0
 286.666666667 1148 330.5 1169.66666667 379.5 1179 c 0
 429.166666667 1188.33333333 479.333333333 1193 530 1193 c 0
 636 1193 721.5 1167.66666667 786.5 1117 c 128
 851.5 1066.33333333 884 992.333333333 884 895 c 0
 884 772.333333333 832 685.333333333 728 634 c 1
 860.666666667 587.333333333 927 490.333333333 927 343 c 0
 927 240.333333333 891.5 154.166666667 820.5 84.5 c 128
 749.5 14.8333333333 652.666666667 -20.6666666667 530 -22 c 0
 382 -22 275.333333333 5.66666666667 210 61 c 128
 144.666666667 116.333333333 104.666666667 213.666666667 90 353 c 1
 90 361 l 1
 213 361 l 1
 213 354 l 2
 213 264.666666667 239.666666667 197.333333333 293 152 c 128
 346.333333333 106.666666667 417.833333333 84 507.5 84 c 128
 597.166666667 84 669 108.666666667 723 158 c 128
 777 207.333333333 804 265.666666667 804 333 c 2
 804 342 l 1
EndSplineSet
Validated: 1
EndChar

StartChar: four
Encoding: 52 52 268
Width: 1026
VWidth: 1692
Flags: W
LayerCount: 2
Fore
SplineSet
646 997 m 1
 217 396 l 1
 646 396 l 1
 646 997 l 1
646 3 m 1
 646 290 l 1
 90 290 l 1
 90 391 l 1
 658 1180 l 1
 660 1183 l 1
 770 1183 l 1
 770 396 l 1
 936 396 l 1
 936 290 l 1
 770 290 l 1
 770 3 l 1
 646 3 l 1
EndSplineSet
Validated: 1
EndChar

StartChar: five
Encoding: 53 53 269
Width: 1005
VWidth: 1690
Flags: W
LayerCount: 2
Fore
SplineSet
212 324 m 1
 238.666666667 163.333333333 335.666666667 83 503 83 c 2
 540 83 l 2
 562.666666667 83 592.166666667 90.5 628.5 105.5 c 128
 664.833333333 120.5 695 141.333333333 719 168 c 0
 767.666666667 222 792 291.666666667 792 377 c 128
 792 462.333333333 766.166666667 532 714.5 586 c 128
 662.833333333 640 586 667 484 667 c 128
 382 667 299.333333333 627 236 547 c 1
 234 544 l 1
 141 556 l 1
 134 557 l 1
 231 1174 l 1
 232 1180 l 1
 850 1180 l 1
 850 1074 l 1
 335 1074 l 1
 265 703 l 1
 330.333333333 743 391 765.333333333 447 770 c 0
 469.666666667 772 502.666666667 773 546 773 c 0
 589.333333333 773.666666667 635 764.666666667 683 746 c 0
 782.333333333 708 850.333333333 639.666666667 887 541 c 0
 905.666666667 491.666666667 915 436 915 374 c 0
 915.666666667 312 905.333333333 256.333333333 884 207 c 0
 842 108.333333333 772.333333333 40.3333333333 675 3 c 0
 628.333333333 -14.3333333333 580 -23 530 -23 c 2
 525 -23 l 2
 252.333333333 -23 107.666666667 90.3333333333 91 317 c 1
 90 324 l 1
 212 324 l 1
EndSplineSet
Validated: 33
EndChar

StartChar: six
Encoding: 54 54 270
Width: 1008
VWidth: 1691
Flags: W
LayerCount: 2
Fore
SplineSet
795 372 m 0
 795 556.666666667 704 649.666666667 522 651 c 0
 438.666666667 651 373 623.5 325 568.5 c 128
 277 513.5 253 445.666666667 253 365 c 0
 253 242.333333333 301 157 397 109 c 0
 429.666666667 92.3333333333 470 84 518 84 c 0
 521 84 521 84 524 84 c 0
 661.333333333 84 747 145.333333333 781 268 c 0
 790.333333333 302.666666667 795 337.333333333 795 372 c 0
522 -22 m 0
 234 -22 90 168 90 548 c 0
 90 831.333333333 163.333333333 1025.66666667 310 1131 c 0
 368.666666667 1172.33333333 446.333333333 1193 543 1193 c 128
 639.666666667 1193 720.166666667 1167.83333333 784.5 1117.5 c 128
 848.833333333 1067.16666667 887.333333333 990.333333333 900 887 c 1
 775 887 l 1
 773 892 l 1
 745 1022 670.333333333 1087 549 1087 c 0
 367 1087 261 971.666666667 231 741 c 0
 224.333333333 687 218.666666667 635.666666667 214 587 c 1
 226.666666667 602.333333333 241 620 257 640 c 0
 319.666666667 717.333333333 411.833333333 756 533.5 756 c 128
 655.166666667 756 749.666666667 721.5 817 652.5 c 128
 884.333333333 583.5 918 488.5 918 367.5 c 128
 918 246.5 884 151.333333333 816 82 c 128
 748 12.6666666667 650 -22 522 -22 c 0
EndSplineSet
Validated: 1
EndChar

StartChar: seven
Encoding: 55 55 271
Width: 967
VWidth: 1692
Flags: W
LayerCount: 2
Fore
SplineSet
90 1183 m 1
 877 1183 l 1
 877 1073 l 1
 875 1071 l 1
 722.333333333 900.333333333 599.333333333 704.666666667 506 484 c 0
 432 309.333333333 391 151.333333333 383 10 c 1
 382 3 l 1
 247 3 l 1
 247 11 l 1
 257 175.666666667 307.666666667 352 399 540 c 0
 489.666666667 728 598.333333333 901.333333333 725 1060 c 1
 90 1060 l 1
 90 1183 l 1
EndSplineSet
Validated: 1
EndChar

StartChar: eight
Encoding: 56 56 272
Width: 1000
VWidth: 1691
Flags: W
LayerCount: 2
Fore
SplineSet
738 907 m 0
 736.666666667 1027 656 1087 496 1087 c 0
 382.666666667 1086.33333333 308 1048 272 972 c 0
 260 946.666666667 254 916.666666667 254 882 c 0
 254 786.666666667 306.666666667 724.333333333 412 695 c 0
 442.666666667 687 474.666666667 683 508 683 c 0
 614.666666667 683.666666667 685.333333333 724 720 804 c 0
 732 832 738 866.333333333 738 907 c 0
766 444 m 0
 723.333333333 533.333333333 634.5 578 499.5 578 c 0
 365.166666667 578 276.666666667 532.666666667 234 442 c 0
 219.333333333 411.333333333 212 376.666666667 212 338 c 0
 212 223.333333333 269 145 383 103 c 0
 419.666666667 90.3333333333 460 84 504 84 c 0
 588.666666667 84 657 107.833333333 709 155.5 c 128
 761 203.166666667 787 264.666666667 787 340 c 0
 787.666666667 380 780.666666667 414.666666667 766 444 c 0
860 899 m 0
 860 777.666666667 809.666666667 690 709 636 c 1
 769 612 817.5 574.666666667 854.5 524 c 128
 891.5 473.333333333 910 415.833333333 910 351.5 c 0
 910 286.5 900 231.333333333 880 186 c 0
 818 47.3333333333 683 -22 475 -22 c 0
 373 -22 283.333333333 9.5 206 72.5 c 128
 128.666666667 135.5 90 220.333333333 90 327 c 0
 90 401.666666667 107.5 466.333333333 142.5 521 c 128
 177.5 575.666666667 226.333333333 616.333333333 289 643 c 1
 233 677.666666667 192.833333333 711.833333333 168.5 745.5 c 128
 144.166666667 779.166666667 132 823.5 132 878.5 c 0
 132 934.166666667 141.333333333 980 160 1016 c 0
 198.666666667 1092 260 1144.33333333 344 1173 c 0
 384 1186.33333333 416.666666667 1193 442 1193 c 2
 486 1193 l 2
 654.666666667 1193.66666667 769 1140 829 1032 c 0
 849.666666667 994.666666667 860 950.333333333 860 899 c 0
EndSplineSet
Validated: 33
EndChar

StartChar: nine
Encoding: 57 57 273
Width: 1009
VWidth: 1691
Flags: W
LayerCount: 2
Fore
SplineSet
686 1012 m 0
 638.666666667 1064.66666667 572.333333333 1092 487 1094 c 1
 394.333333333 1092 325.333333333 1064.83333333 280 1012.5 c 128
 234.666666667 960.166666667 212 888.666666667 212 798 c 128
 212 707.333333333 235.333333333 637.333333333 282 588 c 128
 328.666666667 538.666666667 395 514 481 514 c 0
 567 514 634 541.333333333 682 596 c 0
 730 650.666666667 754 720.5 754 805.5 c 128
 754 890.5 731.333333333 959.333333333 686 1012 c 0
796 581 m 1
 721.333333333 466.333333333 613 409 471 409 c 0
 353 409 260 444.333333333 192 515 c 0
 124 585.666666667 90 679.666666667 90 797 c 0
 90 914.333333333 123.333333333 1009.66666667 190 1083 c 0
 256.666666667 1156.33333333 355.666666667 1193 487 1193 c 0
 644.333333333 1193 758.666666667 1134 830 1016 c 0
 888.666666667 919.333333333 918.333333333 776 919 586 c 0
 919.666666667 396 879.666666667 247.333333333 799 140 c 0
 718.333333333 32 603.666666667 -22 455 -22 c 0
 307 -22 204.333333333 32 147 140 c 0
 130.333333333 172 118 218 110 278 c 1
 233 278 l 1
 254.333333333 148.666666667 331.333333333 84 464 84 c 0
 642 84 747.666666667 198 781 426 c 0
 788.333333333 480 793.333333333 531.666666667 796 581 c 1
EndSplineSet
Validated: 33
EndChar

StartChar: semicolon
Encoding: 59 59 274
Width: 317
VWidth: 1631
Flags: W
LayerCount: 2
Fore
SplineSet
90 617 m 1
 90 780 l 1
 227 780 l 1
 227 617 l 1
 90 617 l 1
227 -109 m 2
 227 -205.666666667 181.333333333 -269.333333333 90 -300 c 1
 90 -224 l 1
 106 -213.333333333 119.666666667 -200.666666667 131 -186 c 128
 142.333333333 -171.333333333 148 -148 148 -116 c 2
 148 -66 l 1
 90 -66 l 1
 90 97 l 1
 227 97 l 1
 227 -109 l 2
EndSplineSet
Validated: 1
EndChar

StartChar: question
Encoding: 63 63 275
Width: 929
VWidth: 1700
Flags: W
LayerCount: 2
Fore
SplineSet
382 3 m 1
 382 166 l 1
 520 166 l 1
 520 3 l 1
 382 3 l 1
92 875 m 1
 90.6666666667 884.333333333 90 904.666666667 90 936 c 128
 90 967.333333333 96.6666666667 1001.33333333 110 1038 c 256
 144.666666667 1133.33333333 211 1200.33333333 309 1239 c 256
 356.333333333 1257 408.333333333 1266 465 1266 c 0
 580.333333333 1266 671.666666667 1236.33333333 739 1177 c 256
 805.666666667 1118.33333333 839 1039.66666667 839 941 c 0
 839 890.333333333 827.833333333 846.833333333 805.5 810.5 c 128
 783.166666667 774.166666667 756.166666667 740.833333333 724.5 710.5 c 0
 692.833333333 679.5 660 648.666666667 626 618 c 0
 550.666666667 549.333333333 511.333333333 483.666666667 508 421 c 0
 506 385.666666667 504.666666667 351.333333333 504 318 c 1
 504 311 l 1
 392 311 l 1
 392 340 l 2
 392 394 396.666666667 445.333333333 406 494 c 128
 415.333333333 542.666666667 437.333333333 585.166666667 472 621.5 c 128
 506.666666667 657.833333333 546.333333333 696.666666667 591 738 c 0
 675 816 717 885.833333333 717 947.5 c 128
 717 1009.16666667 694.666666667 1059.66666667 650 1099 c 256
 602.666666667 1140.33333333 539.333333333 1161 460 1161 c 256
 380.666666667 1161 318 1134 272 1080 c 256
 230 1030 209 968.333333333 209 895 c 2
 209 875 l 1
 92 875 l 1
EndSplineSet
Validated: 1
EndChar

StartChar: at
Encoding: 64 64 276
Width: 1410
VWidth: 1696
Flags: W
LayerCount: 2
Fore
SplineSet
554 749 m 256
 500.666666667 660.333333333 474 574.666666667 474 492 c 0
 474 453.333333333 484.666666667 419.166666667 506 389.5 c 128
 527.333333333 359.833333333 557.333333333 345 596 345 c 0
 664.666666667 345 729.333333333 397.666666667 790 503 c 256
 815.333333333 547 835 593.666666667 849 643 c 256
 863 690.333333333 870 731.666666667 870 767 c 128
 870 802.333333333 860 831.666666667 840 855 c 256
 820 878.333333333 791 890 753 890 c 128
 715 890 678.5 876.666666667 643.5 850 c 128
 608.5 823.333333333 578.666666667 789.666666667 554 749 c 256
771 304 m 1
 713 250.666666667 647 224 573 224 c 256
 499 224 440 250.333333333 396 303 c 256
 353.333333333 352.333333333 332 411 332 479 c 0
 332 482 332 482 332 485 c 0
 332 607.666666667 373 725 455 837 c 0
 537 948.333333333 638 1004 758 1004 c 0
 798.666666667 1004 835.666666667 994.666666667 869 976 c 128
 902.333333333 957.333333333 927.666666667 933.333333333 945 904 c 1
 966 965 l 1
 967 970 l 1
 1095 970 l 1
 921 451 l 2
 899 387.666666667 896 348 912 332 c 256
 918 326 932.833333333 323 956.5 323 c 128
 980.166666667 323 1008 335.666666667 1040 361 c 256
 1106.66666667 413.666666667 1154.33333333 489.666666667 1183 589 c 256
 1197.66666667 637 1205 688.833333333 1205 744.5 c 128
 1205 800.166666667 1192.33333333 855 1167 909 c 256
 1116.33333333 1016.33333333 1032 1091.33333333 914 1134 c 256
 857.333333333 1154 794 1164 724 1164 c 128
 654 1164 586.333333333 1149.33333333 521 1120 c 256
 391 1061.33333333 299 962.333333333 245 823 c 256
 219 755.666666667 206 684 206 608 c 256
 206 456 257 328.333333333 359 225 c 256
 463.666666667 119 586 66 726 66 c 0
 866 66 988 109.666666667 1092 197 c 256
 1124.66666667 225 1153.66666667 257 1179 293 c 1
 1182 296 l 1
 1297 296 l 1
 1259 232.666666667 1223.33333333 184.666666667 1190 152 c 256
 1065.33333333 29.3333333333 913.333333333 -32 734 -32 c 0
 554.666666667 -32 402 31.6666666667 276 159 c 256
 218 218.333333333 172.333333333 287.666666667 139 367 c 256
 106.333333333 445 90 527.666666667 90 615 c 2
 90 620 l 2
 90 709.333333333 107 793 141 871 c 256
 210.333333333 1029.66666667 324.666666667 1143.33333333 484 1212 c 256
 561.333333333 1245.33333333 642.333333333 1262 727 1262 c 0
 896.333333333 1262 1036.66666667 1211.33333333 1148 1110 c 256
 1262.66666667 1006.66666667 1320 877 1320 721 c 0
 1320 590.333333333 1276.33333333 473.666666667 1189 371 c 256
 1151 325.666666667 1108.16666667 289.333333333 1060.5 262 c 128
 1012.83333333 234.666666667 970 221 932 221 c 0
 850 221 796.333333333 248.666666667 771 304 c 1
EndSplineSet
Validated: 33
EndChar

StartChar: A
Encoding: 65 65 277
Width: 1289
VWidth: 1696
Flags: W
LayerCount: 2
Fore
SplineSet
646 1105 m 1
 413 494 l 1
 880 494 l 1
 646 1105 l 1
90 0 m 1
 579 1224 l 1
 722 1224 l 1
 1196 10 l 1
 1199 0 l 1
 1066 0 l 1
 925 382 l 1
 368 382 l 1
 225 4 l 1
 223 0 l 1
 90 0 l 1
EndSplineSet
Validated: 1
EndChar

StartChar: B
Encoding: 66 66 278
Width: 1102
VWidth: 1696
Flags: W
LayerCount: 2
Fore
SplineSet
219 1111 m 1
 219 693 l 1
 508 693 l 2
 677.333333333 693 778.666666667 735 812 819 c 0
 822 846.333333333 827 878 827 914 c 0
 827 986 802 1037 752 1067 c 0
 700 1096.33333333 621.333333333 1111 516 1111 c 2
 219 1111 l 1
219 582 m 1
 219 112 l 1
 509 112 l 2
 649 112 746.333333333 127.333333333 801 158 c 0
 855.666666667 188.666666667 883 251.333333333 883 346 c 0
 883 440.666666667 851.666666667 504.666666667 789 538 c 0
 737 566 648.666666667 580.666666667 524 582 c 1
 219 582 l 1
1012 343 m 0
 1012 109.666666667 875.333333333 -7 602 -7 c 2
 90 -7 l 1
 90 1224 l 1
 543 1224 l 2
 753.666666667 1224 884 1162 934 1038 c 0
 949.333333333 999.333333333 957 957.5 957 912.5 c 128
 957 867.5 951 829 939 797 c 0
 910.333333333 718.333333333 857.666666667 668.666666667 781 648 c 1
 855 632.666666667 912 598.666666667 952 546 c 128
 992 493.333333333 1012 425.666666667 1012 343 c 0
EndSplineSet
Validated: 1
EndChar

StartChar: C
Encoding: 67 67 279
Width: 1262
VWidth: 1696
Flags: W
LayerCount: 2
Fore
SplineSet
1025 856 m 1
 1024 862 l 1
 1000.66666667 963.333333333 957.666666667 1035.66666667 895 1079 c 0
 830.333333333 1122.33333333 753.333333333 1144 664 1144 c 0
 575.333333333 1144 504.333333333 1129.33333333 451 1100 c 0
 297.666666667 1016 220.666666667 852.333333333 220 609 c 0
 220 365.666666667 294 202.666666667 442 120 c 0
 497.333333333 89.3333333333 559 73.6666666667 627 73 c 0
 796.333333333 73 916.333333333 138.666666667 987 270 c 0
 1008.33333333 310 1024.66666667 354 1036 402 c 1
 1038 407 l 1
 1172 407 l 1
 1106 111.666666667 925 -37.3333333333 629 -40 c 0
 446.333333333 -40 307.666666667 24.6666666667 213 154 c 0
 132.333333333 266 91.3333333333 417.333333333 90 608 c 0
 90 829.333333333 145 996 255 1108 c 0
 351.666666667 1206.66666667 488.333333333 1255.66666667 665 1255 c 2
 672 1255 l 2
 876.666666667 1255 1019.66666667 1181 1101 1033 c 0
 1132.33333333 976.333333333 1151.33333333 917.333333333 1158 856 c 1
 1025 856 l 1
EndSplineSet
Validated: 33
EndChar

StartChar: D
Encoding: 68 68 280
Width: 1202
VWidth: 1696
Flags: W
LayerCount: 2
Fore
SplineSet
219 1111 m 1
 219 105 l 1
 492 105 l 2
 613.333333333 105 702.166666667 119.166666667 758.5 147.5 c 128
 814.833333333 175.833333333 856 206.666666667 882 240 c 0
 949.333333333 332 983 455.333333333 983 610 c 0
 983 714 972.5 793.833333333 951.5 849.5 c 128
 930.5 905.166666667 906.666666667 949.666666667 880 983 c 0
 812 1068.33333333 698 1111 538 1111 c 2
 219 1111 l 1
90 -7 m 1
 90 1224 l 1
 518 1224 l 2
 646.666666667 1224 746.333333333 1209.66666667 817 1181 c 0
 937 1131.66666667 1021.66666667 1033.66666667 1071 887 c 0
 1099 803.666666667 1112.66666667 711.333333333 1112 610 c 0
 1112 405.333333333 1062.66666667 250 964 144 c 1
 874 43.3333333333 731.333333333 -7 536 -7 c 0
 313 -7 313 -7 90 -7 c 1
EndSplineSet
Validated: 33
EndChar

StartChar: E
Encoding: 69 69 281
Width: 1034
VWidth: 1696
Flags: W
LayerCount: 2
Fore
SplineSet
90 0 m 1
 90 1224 l 1
 928 1224 l 1
 928 1111 l 1
 219 1111 l 1
 219 693 l 1
 860 693 l 1
 860 582 l 1
 219 582 l 1
 219 112 l 1
 944 112 l 1
 944 0 l 1
 90 0 l 1
EndSplineSet
Validated: 1
EndChar

StartChar: F
Encoding: 70 70 282
Width: 993
VWidth: 1696
Flags: W
LayerCount: 2
Fore
SplineSet
90 0 m 1
 90 1224 l 1
 903 1224 l 1
 903 1111 l 1
 219 1111 l 1
 219 693 l 1
 841 693 l 1
 841 582 l 1
 219 582 l 1
 219 0 l 1
 90 0 l 1
EndSplineSet
Validated: 1
EndChar

StartChar: G
Encoding: 71 71 283
Width: 1293
VWidth: 1696
Flags: W
LayerCount: 2
Fore
SplineSet
662 530 m 1
 662 643 l 1
 1203 643 l 1
 1203 0 l 1
 1091 0 l 1
 1091 190 l 1
 1020.33333333 81.3333333333 924 13 802 -15 c 0
 753.333333333 -26.3333333333 693.666666667 -32 623 -32 c 128
 552.333333333 -32 483 -18.3333333333 415 9 c 0
 347.666666667 36.3333333333 290 77.3333333333 242 132 c 0
 140.666666667 247.333333333 90 405 90 605 c 128
 90 805 138.333333333 963.333333333 235 1080 c 128
 331.666666667 1196.66666667 481 1255 683 1255 c 0
 884.333333333 1255 1030.66666667 1182.33333333 1122 1037 c 0
 1151.33333333 989.666666667 1174.33333333 929.333333333 1191 856 c 1
 1059 856 l 1
 1057 862 l 1
 1037 950.666666667 991.666666667 1019.66666667 921 1069 c 0
 850.333333333 1119 771.666666667 1144 685 1144 c 0
 374.333333333 1144 219 954.666666667 219 576 c 0
 219 436 258.666666667 318.333333333 338 223 c 128
 417.333333333 127.666666667 520.333333333 80 647 80 c 128
 773.666666667 80 876 116.666666667 954 190 c 128
 1032 263.333333333 1073.33333333 376.666666667 1078 530 c 1
 662 530 l 1
EndSplineSet
Validated: 1
EndChar

StartChar: H
Encoding: 72 72 284
Width: 1158
VWidth: 1696
Flags: W
LayerCount: 2
Fore
SplineSet
90 0 m 1
 90 1224 l 1
 219 1224 l 1
 219 709 l 1
 939 709 l 1
 939 1224 l 1
 1068 1224 l 1
 1068 0 l 1
 939 0 l 1
 939 596 l 1
 219 596 l 1
 219 0 l 1
 90 0 l 1
EndSplineSet
Validated: 1
EndChar

StartChar: I
Encoding: 73 73 285
Width: 309
VWidth: 1696
Flags: W
LayerCount: 2
Fore
SplineSet
90 -7 m 1
 90 1224 l 1
 219 1224 l 1
 219 -7 l 1
 90 -7 l 1
EndSplineSet
Validated: 1
EndChar

StartChar: J
Encoding: 74 74 286
Width: 873
VWidth: 1693
Flags: W
LayerCount: 2
Fore
SplineSet
219 389 m 1
 219 382 l 2
 219 283.333333333 227.333333333 216.333333333 244 181 c 128
 260.666666667 145.666666667 283.5 119.333333333 312.5 102 c 128
 341.5 84.6666666667 390.166666667 76 458.5 76 c 128
 526.833333333 76 576.5 97.8333333333 607.5 141.5 c 128
 638.5 185.166666667 654 249 654 333 c 2
 654 1221 l 1
 783 1221 l 1
 783 329 l 2
 783 209 754.833333333 117 698.5 53 c 128
 642.166666667 -11 551 -43 425 -43 c 0
 239.666666667 -43 132 46 102 224 c 0
 94 274.666666667 90 327.333333333 90 382 c 2
 90 389 l 1
 219 389 l 1
EndSplineSet
Validated: 1
EndChar

StartChar: K
Encoding: 75 75 287
Width: 1169
VWidth: 1696
Flags: W
LayerCount: 2
Fore
SplineSet
90 -7 m 1
 90 1224 l 1
 219 1224 l 1
 219 604 l 1
 847 1224 l 1
 997 1224 l 1
 500 731 l 1
 1079 -7 l 1
 921 -7 l 1
 405 650 l 1
 219 466 l 1
 219 -7 l 1
 90 -7 l 1
EndSplineSet
Validated: 1
EndChar

StartChar: L
Encoding: 76 76 288
Width: 976
VWidth: 1696
Flags: W
LayerCount: 2
Fore
SplineSet
90 -7 m 1
 90 1224 l 1
 219 1224 l 1
 219 105 l 1
 886 105 l 1
 886 -7 l 1
 90 -7 l 1
EndSplineSet
Validated: 1
EndChar

StartChar: M
Encoding: 77 77 289
Width: 1352
VWidth: 1696
Flags: W
LayerCount: 2
Fore
SplineSet
90 -7 m 1
 90 1224 l 1
 278 1224 l 1
 680 160 l 1
 1074 1219 l 1
 1076 1224 l 1
 1262 1224 l 1
 1262 -7 l 1
 1133 -7 l 1
 1133 1054 l 1
 740 -3 l 1
 738 -7 l 1
 616 -7 l 1
 219 1054 l 1
 219 -7 l 1
 90 -7 l 1
EndSplineSet
Validated: 1
EndChar

StartChar: N
Encoding: 78 78 290
Width: 1160
VWidth: 1696
Flags: W
LayerCount: 2
Fore
SplineSet
925 -7 m 1
 219 1042 l 1
 219 -7 l 1
 90 -7 l 1
 90 1224 l 1
 230 1224 l 1
 941 171 l 1
 941 1224 l 1
 1070 1224 l 1
 1070 -7 l 1
 925 -7 l 1
EndSplineSet
Validated: 1
EndChar

StartChar: O
Encoding: 79 79 291
Width: 1342
VWidth: 1696
Flags: W
LayerCount: 2
Fore
SplineSet
1003 1001 m 0
 921 1096.33333333 807.666666667 1144 663 1144 c 0
 517.666666667 1144 407.333333333 1092.33333333 332 989 c 128
 256.666666667 885.666666667 219 757.833333333 219 605.5 c 128
 219 453.166666667 256.333333333 326.333333333 331 225 c 128
 405.666666667 123.666666667 518.666666667 73 670 73 c 128
 821.333333333 73 934.666666667 124 1010 226 c 128
 1085.33333333 328 1123 458.5 1123 617.5 c 128
 1123 776.5 1083 904.333333333 1003 1001 c 0
1252 613 m 2
 1252 606 l 2
 1252 422 1202 268.333333333 1102 145 c 128
 1002 21.6666666667 858.333333333 -40 671 -40 c 2
 668 -40 l 2
 481.333333333 -40 338.333333333 21.5 239 144.5 c 128
 139.666666667 267.5 90 421.833333333 90 607.5 c 128
 90 793.166666667 140 947.5 240 1070.5 c 128
 340 1193.5 483.666666667 1255 671 1255 c 128
 858.333333333 1255 1002 1194 1102 1072 c 128
 1202 950 1252 797 1252 613 c 2
EndSplineSet
Validated: 1
EndChar

StartChar: P
Encoding: 80 80 292
Width: 1050
VWidth: 1696
Flags: W
LayerCount: 2
Fore
SplineSet
219 649 m 1
 481 649 l 2
 599.666666667 649 687.666666667 666 745 700 c 128
 802.333333333 734 831 792.333333333 831 875 c 128
 831 957.666666667 806.666666667 1017.66666667 758 1055 c 128
 709.333333333 1092.33333333 632.666666667 1111 528 1111 c 2
 219 1111 l 1
 219 649 l 1
90 0 m 1
 90 1224 l 1
 549 1224 l 2
 770.333333333 1224 901.333333333 1152.66666667 942 1010 c 0
 954 968.666666667 960 919.666666667 960 863 c 0
 959.333333333 806.333333333 945 755.666666667 917 711 c 0
 843.666666667 595 697 537 477 537 c 2
 219 537 l 1
 219 0 l 1
 90 0 l 1
EndSplineSet
Validated: 1
EndChar

StartChar: Q
Encoding: 81 81 293
Width: 1343
VWidth: 1690
Flags: W
LayerCount: 2
Fore
SplineSet
809 310 m 1
 978 184 l 1
 1075.33333333 278.666666667 1124 414.666666667 1124 592 c 128
 1124 769.333333333 1081 906.666666667 995 1004 c 0
 915 1092 803.333333333 1136.33333333 660 1137 c 128
 516.666666667 1137.66666667 407.5 1086 332.5 982 c 128
 257.5 878 220 750.166666667 220 598.5 c 128
 220 446.833333333 255.333333333 322.666666667 326 226 c 0
 406 120 521.333333333 67 672 67 c 0
 748.666666667 67 816.666666667 83 876 115 c 1
 744 214 l 1
 739 219 l 1
 805 304 l 1
 809 310 l 1
1253 600 m 128
 1253 394.666666667 1193.33333333 231 1074 109 c 1
 1230 -10 l 1
 1236 -15 l 1
 1167 -98 l 1
 1162 -103 l 1
 981 36 l 1
 890.333333333 -18 791.666666667 -45 685 -45 c 0
 486.333333333 -45 337.5 16.3333333333 238.5 139 c 128
 139.5 261.666666667 90 414.5 90 597.5 c 128
 90 780.5 138.833333333 934.833333333 236.5 1060.5 c 128
 334.166666667 1186.16666667 475.666666667 1249 661 1249 c 128
 846.333333333 1249 991.333333333 1192.16666667 1096 1078.5 c 128
 1200.66666667 964.833333333 1253 805.333333333 1253 600 c 128
EndSplineSet
Validated: 33
EndChar

StartChar: R
Encoding: 82 82 294
Width: 1107
VWidth: 1696
Flags: W
LayerCount: 2
Fore
SplineSet
219 664 m 1
 578 664 l 2
 719.333333333 664 812.333333333 706 857 790 c 0
 872.333333333 819.333333333 880 855 880 897 c 0
 880 1039.66666667 781.666666667 1111 585 1111 c 2
 219 1111 l 1
 219 664 l 1
1017 22 m 1
 1017 0 l 1
 880 0 l 1
 860 30 847.5 81.3333333333 842.5 154 c 0
 837.5 226 834 280.666666667 832 318 c 0
 827.333333333 398.666666667 813.666666667 454.333333333 791 485 c 0
 757.666666667 530.333333333 688 553 582 553 c 2
 219 553 l 1
 219 0 l 1
 90 0 l 1
 90 1224 l 1
 582 1224 l 2
 722 1224 828.166666667 1198.5 900.5 1147.5 c 128
 972.833333333 1096.5 1009 1014 1009 900 c 0
 1009 822.666666667 993.666666667 762.166666667 963 718.5 c 128
 932.333333333 674.833333333 885.666666667 637.666666667 823 607 c 1
 908.333333333 571 954.333333333 494 961 376 c 0
 963.666666667 342 966.333333333 285.666666667 969 207 c 128
 971.666666667 128.333333333 981 75 997 47 c 0
 1001.66666667 39 1008.33333333 30.6666666667 1017 22 c 1
EndSplineSet
Validated: 1
EndChar

StartChar: S
Encoding: 83 83 295
Width: 1094
VWidth: 1696
Flags: W
LayerCount: 2
Fore
SplineSet
968 891 m 2
 968 878 l 1
 844 878 l 1
 844 885 l 2
 844 1011.66666667 782 1093 658 1129 c 0
 621.333333333 1139 578.666666667 1144 530 1144 c 0
 482 1144 437.333333333 1136 396 1120 c 0
 296 1080 245.666666667 1012.33333333 245 917 c 0
 245.666666667 865 260 825.333333333 288 798 c 0
 335.333333333 752.666666667 413 718.666666667 521 696 c 128
 629 673.333333333 709.833333333 653 763.5 635 c 128
 817.166666667 617 860.666666667 595.333333333 894 570 c 0
 967.333333333 513.333333333 1004 429 1004 317 c 128
 1004 205 964.5 117.666666667 885.5 55 c 128
 806.5 -7.66666666667 693.333333333 -39.3333333333 546 -40 c 0
 332.666666667 -40 192 35.3333333333 124 186 c 0
 101.333333333 235.333333333 90 294.333333333 90 363 c 2
 90 370 l 1
 215 370 l 1
 216 363 l 1
 223.333333333 264.333333333 258.166666667 191.333333333 320.5 144 c 128
 382.833333333 96.6666666667 464.666666667 73 566 73 c 0
 719.333333333 73 816.666666667 123.333333333 858 224 c 0
 869.333333333 254.666666667 875 289.333333333 875 328 c 0
 875 432.666666667 797.333333333 504 642 542 c 0
 596 553.333333333 548.666666667 564.333333333 500 575 c 0
 378 601.666666667 295 631 251 663 c 128
 207 695 174 731 152 771 c 128
 130 811 119 856.833333333 119 908.5 c 0
 119.666666667 960.166666667 128.666666667 1006 146 1046 c 0
 184 1132 254.333333333 1192.66666667 357 1228 c 0
 411.666666667 1246 474.833333333 1255 546.5 1255 c 128
 618.166666667 1255 680.666666667 1245.33333333 734 1226 c 0
 837.333333333 1188.66666667 907 1122.66666667 943 1028 c 0
 959.666666667 984.666666667 968 939 968 891 c 2
EndSplineSet
Validated: 1
EndChar

StartChar: T
Encoding: 84 84 296
Width: 1094
VWidth: 1696
Flags: W
LayerCount: 2
Fore
SplineSet
90 1224 m 1
 1004 1224 l 1
 1004 1111 l 1
 614 1111 l 1
 614 -7 l 1
 480 -7 l 1
 480 1111 l 1
 90 1111 l 1
 90 1224 l 1
EndSplineSet
Validated: 1
EndChar

StartChar: U
Encoding: 85 85 297
Width: 1152
VWidth: 1693
Flags: W
LayerCount: 2
Fore
SplineSet
1062 454 m 2
 1062 122.666666667 899.666666667 -43 575 -43 c 0
 409 -43 286.666666667 0.5 208 87.5 c 128
 129.333333333 174.5 90 296.666666667 90 454 c 2
 90 1221 l 1
 219 1221 l 1
 219 488 l 2
 219 339.333333333 246.666666667 232.333333333 302 167 c 0
 358 102.333333333 451 70 581 70 c 0
 711 70 801.666666667 103 853 169 c 0
 904.333333333 235 930.666666667 341.333333333 932 488 c 1
 932 1221 l 1
 1062 1221 l 1
 1062 454 l 2
EndSplineSet
Validated: 1
EndChar

StartChar: V
Encoding: 86 86 298
Width: 1185
VWidth: 1696
Flags: W
LayerCount: 2
Fore
SplineSet
90 1224 m 1
 225 1224 l 1
 594 157 l 1
 959 1219 l 1
 961 1224 l 1
 1095 1224 l 1
 665 -3 l 1
 663 -7 l 1
 523 -7 l 1
 93 1214 l 1
 90 1224 l 1
EndSplineSet
Validated: 1
EndChar

StartChar: W
Encoding: 87 87 299
Width: 1668
VWidth: 1696
Flags: W
LayerCount: 2
Fore
SplineSet
904 1224 m 1
 1181 185 l 1
 1443 1219 l 1
 1445 1224 l 1
 1578 1224 l 1
 1255 -2 l 1
 1253 -7 l 1
 1113 -7 l 1
 831 1053 l 1
 550 -2 l 1
 549 -7 l 1
 409 -7 l 1
 93 1215 l 1
 90 1224 l 1
 220 1224 l 1
 480 185 l 1
 760 1219 l 1
 762 1224 l 1
 904 1224 l 1
EndSplineSet
Validated: 1
EndChar

StartChar: X
Encoding: 88 88 300
Width: 1190
VWidth: 1696
Flags: W
LayerCount: 2
Fore
SplineSet
952 -7 m 1
 594 524 l 1
 240 -4 l 1
 237 -7 l 1
 90 -7 l 1
 519 625 l 1
 114 1213 l 1
 106 1224 l 1
 257 1224 l 1
 594 718 l 1
 931 1224 l 1
 1082 1224 l 1
 674 625 l 1
 1093 4 l 1
 1100 -7 l 1
 952 -7 l 1
EndSplineSet
Validated: 1
EndChar

StartChar: Y
Encoding: 89 89 301
Width: 1210
VWidth: 1696
Flags: W
LayerCount: 2
Fore
SplineSet
238 1224 m 1
 599 644 l 1
 970 1224 l 1
 1120 1224 l 1
 668 528 l 1
 668 -7 l 1
 535 -7 l 1
 535 520 l 1
 90 1224 l 1
 238 1224 l 1
EndSplineSet
Validated: 1
EndChar

StartChar: Z
Encoding: 90 90 302
Width: 1135
VWidth: 1696
Flags: W
LayerCount: 2
Fore
SplineSet
90 -7 m 1
 90 99 l 1
 877 1111 l 1
 156 1111 l 1
 156 1224 l 1
 1040 1224 l 1
 1040 1118 l 1
 255 105 l 1
 1045 105 l 1
 1045 -7 l 1
 90 -7 l 1
EndSplineSet
Validated: 1
EndChar

StartChar: bracketleft
Encoding: 91 91 303
Width: 518
VWidth: 1665
Flags: W
LayerCount: 2
Fore
SplineSet
90 -354 m 1
 90 1232 l 1
 428 1232 l 1
 428 1133 l 1
 213 1133 l 1
 213 -255 l 1
 424 -255 l 1
 424 -354 l 1
 90 -354 l 1
EndSplineSet
Validated: 1
EndChar

StartChar: backslash
Encoding: 92 92 304
Width: 689
VWidth: 1683
Flags: W
LayerCount: 2
Fore
SplineSet
90 1250 m 1
 199 1250 l 1
 597 -156 l 1
 599 -165 l 1
 490 -165 l 1
 92 1241 l 1
 90 1250 l 1
EndSplineSet
Validated: 1
EndChar

StartChar: bracketright
Encoding: 93 93 305
Width: 518
VWidth: 1665
Flags: W
LayerCount: 2
Fore
SplineSet
428 -354 m 1
 90 -354 l 1
 90 -255 l 1
 305 -255 l 1
 305 1133 l 1
 94 1133 l 1
 94 1232 l 1
 428 1232 l 1
 428 -354 l 1
EndSplineSet
Validated: 1
EndChar

StartChar: asciicircum
Encoding: 94 94 306
Width: 1070
VWidth: 1736
Flags: W
LayerCount: 2
Fore
SplineSet
90 454 m 1
 486 1234 l 1
 582 1234 l 1
 980 454 l 1
 867 454 l 1
 533 1108 l 1
 204 454 l 1
 90 454 l 1
EndSplineSet
Validated: 1
EndChar

StartChar: underscore
Encoding: 95 95 307
Width: 1040
VWidth: 1531
Flags: W
LayerCount: 2
Fore
SplineSet
950 -278 m 1
 950 -376 l 1
 90 -376 l 1
 90 -278 l 1
 950 -278 l 1
EndSplineSet
Validated: 1
EndChar

StartChar: quoteleft
Encoding: 8216 8216 308
Width: 318
VWidth: 1785
Flags: W
LayerCount: 2
Fore
SplineSet
90 1131 m 2
 90 1182.33333333 102 1223.66666667 126 1255 c 256
 153.333333333 1290.33333333 187.333333333 1312.66666667 228 1322 c 1
 228 1246 l 1
 212 1235.33333333 198.333333333 1222.66666667 187 1208 c 128
 175.666666667 1193.33333333 170 1170.33333333 170 1139 c 2
 170 1088 l 1
 228 1088 l 1
 228 925 l 1
 90 925 l 1
 90 1131 l 2
EndSplineSet
Validated: 1
EndChar

StartChar: a
Encoding: 97 97 309
Width: 1034
VWidth: 1660
Flags: W
LayerCount: 2
Fore
SplineSet
722 293 m 2
 722 420 l 1
 667.333333333 398.666666667 589.833333333 384.5 489.5 377.5 c 128
 389.166666667 370.5 318 352.666666667 276 324 c 128
 234 295.333333333 213 254.666666667 213 202 c 128
 213 149.333333333 230.333333333 110.166666667 265 84.5 c 128
 299.666666667 58.8333333333 341.666666667 46 391 46 c 2
 398 46 l 2
 486.666666667 46 562.833333333 67 626.5 109 c 128
 690.166666667 151 722 212.333333333 722 293 c 2
724 73 m 1
 634 -15.6666666667 522.5 -60 389.5 -60 c 128
 256.5 -60 165 -12 115 84 c 0
 98.3333333333 116 90 153.333333333 90 196 c 0
 90.6666666667 347.333333333 196 437 406 465 c 1
 552 483 l 1
 614 489 657.833333333 497.5 683.5 508.5 c 128
 709.166666667 519.5 722 549 722 597 c 128
 722 645 705.666666667 685 673 717 c 0
 639.666666667 748.333333333 583.5 764 504.5 764 c 128
 425.5 764 365.166666667 749.666666667 323.5 721 c 128
 281.833333333 692.333333333 256.666666667 643 248 573 c 1
 248 566 l 1
 130 566 l 1
 131 574 l 1
 137 673.333333333 173.833333333 747.5 241.5 796.5 c 128
 309.166666667 845.5 397 870 505 870 c 0
 662.333333333 870 764.666666667 821 812 723 c 0
 829.333333333 687 838 643.333333333 838 592 c 2
 838 119 l 2
 838 82.3333333333 842.166666667 61 850.5 55 c 128
 858.833333333 49 868.5 46 879.5 46 c 128
 890.5 46 912 51.3333333333 944 62 c 1
 944 -32 l 1
 904 -43 l 2
 888.666666667 -47.6666666667 873 -50 857 -50 c 0
 814.333333333 -50 782.333333333 -41 761 -23 c 128
 739.666666667 -5 727.333333333 27 724 73 c 1
EndSplineSet
Validated: 1
EndChar

StartChar: b
Encoding: 98 98 310
Width: 1013
VWidth: 1694
Flags: W
LayerCount: 2
Fore
SplineSet
801 412 m 2
 801 437 l 2
 801 601 747.333333333 711.333333333 640 768 c 0
 600.666666667 788 556 798 506 798 c 0
 412 798 338.5 763.666666667 285.5 695 c 128
 232.5 626.333333333 206 540 206 436 c 128
 206 332 231.5 246.5 282.5 179.5 c 128
 333.5 112.5 405.166666667 79 497.5 79 c 128
 589.833333333 79 663.5 108.5 718.5 167.5 c 128
 773.5 226.5 801 308 801 412 c 2
206 -3 m 1
 90 -3 l 1
 90 1221 l 1
 206 1221 l 1
 206 757 l 1
 238 802.333333333 281.666666667 838 337 864 c 0
 393 890.666666667 455 904 523 904 c 0
 654.333333333 904.666666667 755.333333333 857.333333333 826 762 c 0
 890.666666667 677.333333333 923 568.666666667 923 436 c 0
 923 220.666666667 850 78.3333333333 704 9 c 0
 652 -15 599.666666667 -27 547 -27 c 0
 423 -27 325 7 253 75 c 0
 235 92.3333333333 219.333333333 112.333333333 206 135 c 1
 206 -3 l 1
EndSplineSet
Validated: 33
EndChar

StartChar: c
Encoding: 99 99 311
Width: 988
VWidth: 1660
Flags: W
LayerCount: 2
Fore
SplineSet
507 46 m 0
 660.333333333 46 750 124.333333333 776 281 c 1
 898 281 l 1
 892.666666667 233.666666667 879 187.666666667 857 143 c 0
 788.333333333 7.66666666667 671.666666667 -60 507 -60 c 0
 365 -60 260 -17.3333333333 192 68 c 0
 124 153.333333333 90 262.666666667 90 396 c 0
 90 530 126.333333333 642.333333333 199 733 c 0
 271.666666667 824.333333333 374.333333333 870 507 870 c 0
 727 870 852.666666667 768.333333333 884 565 c 1
 885 556 l 1
 768 556 l 1
 767 562 l 1
 729 696.666666667 642.333333333 764 507 764 c 0
 407.666666667 764 333.666666667 728.333333333 285 657 c 0
 236.333333333 585.666666667 212 501 212 403 c 0
 212 241 264.333333333 132 369 76 c 0
 407 56 453 46 507 46 c 0
EndSplineSet
Validated: 1
EndChar

StartChar: d
Encoding: 100 100 312
Width: 1013
VWidth: 1694
Flags: W
LayerCount: 2
Fore
SplineSet
640 107 m 0
 750 161.666666667 806 273.333333333 808 442 c 0
 808 542 781.333333333 626.333333333 728 695 c 128
 674.666666667 763.666666667 599.666666667 798 503 798 c 0
 405.666666667 798 333 763 285 693 c 0
 236.333333333 623 212 539.333333333 212 442 c 0
 212 432 212.166666667 411 212.5 379 c 128
 212.833333333 347 220.333333333 310.5 235 269.5 c 0
 249 228.5 269.333333333 194 296 166 c 0
 349.333333333 108.666666667 421.333333333 79.6666666667 512 79 c 0
 560 79 602.666666667 88.3333333333 640 107 c 0
808 1221 m 1
 923 1221 l 1
 923 -3 l 1
 808 -3 l 1
 808 135 l 1
 765.333333333 62.3333333333 693 12.6666666667 591 -14 c 0
 559.666666667 -22 517.666666667 -26.1666666667 465 -26.5 c 128
 412.333333333 -26.8333333333 360.666666667 -15 310 9 c 0
 163.333333333 77.6666666667 90 220 90 436 c 0
 90 568.666666667 124.333333333 680 193 770 c 0
 261.666666667 859.333333333 362 904 494 904 c 0
 560 904 620.666666667 890.666666667 676 864 c 128
 731.333333333 837.333333333 775.333333333 801.333333333 808 756 c 1
 808 1221 l 1
EndSplineSet
Validated: 33
EndChar

StartChar: e
Encoding: 101 101 313
Width: 996
VWidth: 1660
Flags: W
LayerCount: 2
Fore
SplineSet
213 476 m 1
 783 476 l 1
 781 608 729.666666667 696.333333333 629 741 c 0
 593.666666667 756.333333333 553 764 507 764 c 0
 379.666666667 764 290.666666667 703.333333333 240 582 c 0
 226.666666667 548.666666667 217.666666667 513.333333333 213 476 c 1
906 394 m 2
 906 378 l 1
 212 378 l 1
 214 225.333333333 268.666666667 123.666666667 376 73 c 0
 414 55 462.333333333 46 521 46 c 128
 579.666666667 46 633.666666667 64.3333333333 683 101 c 0
 732.333333333 137.666666667 762.333333333 186.333333333 773 247 c 1
 901 247 l 1
 883 193 864.666666667 149.333333333 846 116 c 0
 780 -1.33333333333 669.333333333 -60 514 -60 c 2
 507 -60 l 2
 365 -60 260 -17.3333333333 192 68 c 0
 124 153.333333333 90 263.333333333 90 398 c 0
 90 532.666666667 127 645 201 735 c 0
 275 825 376.333333333 870 505 870 c 128
 633.666666667 870 732.666666667 828.666666667 802 746 c 128
 871.333333333 663.333333333 906 546 906 394 c 2
EndSplineSet
Validated: 1
EndChar

StartChar: f
Encoding: 102 102 314
Width: 595
VWidth: 1699
Flags: W
LayerCount: 2
Fore
SplineSet
505 1133 m 1
 483 1140.33333333 460 1144 436 1144 c 0
 392.666666667 1144 365.333333333 1130 354 1102 c 0
 342.666666667 1074 337 1035.33333333 337 986 c 2
 337 885 l 1
 505 885 l 1
 505 786 l 1
 337 786 l 1
 337 -5 l 1
 221 -5 l 1
 221 786 l 1
 90 786 l 1
 90 885 l 1
 221 885 l 1
 221 1016 l 2
 221 1087.33333333 235.5 1144.16666667 264.5 1186.5 c 128
 293.5 1228.83333333 343.333333333 1250 414 1250 c 0
 442.666666667 1250 473 1247.33333333 505 1242 c 1
 505 1133 l 1
EndSplineSet
Validated: 1
EndChar

StartChar: g
Encoding: 103 103 315
Width: 1013
VWidth: 1625
Flags: W
LayerCount: 2
Fore
SplineSet
213 396 m 2
 213 371 l 2
 213 207.666666667 266.333333333 97.3333333333 373 40 c 0
 411 20 455.333333333 10 506 10 c 0
 600 10 673.833333333 44 727.5 112 c 128
 781.166666667 180 808 265.833333333 808 369.5 c 128
 808 473.166666667 782.166666667 559 730.5 627 c 128
 678.833333333 695 607 729 515 729 c 128
 423 729 349.666666667 699.666666667 295 641 c 128
 240.333333333 582.333333333 213 500.666666667 213 396 c 2
808 811 m 1
 923 811 l 1
 923 19 l 2
 923 -115.666666667 895.666666667 -220 841 -294 c 0
 772.333333333 -384.666666667 658 -430 498 -430 c 0
 373.333333333 -430 278.833333333 -402.5 214.5 -347.5 c 128
 150.166666667 -292.5 116.333333333 -233.666666667 113 -171 c 1
 113 -164 l 1
 234 -164 l 1
 236 -169 l 1
 255.333333333 -253 312.333333333 -302.666666667 407 -318 c 0
 436.333333333 -322.666666667 476.5 -325 527.5 -325 c 0
 578.5 -324.333333333 624.666666667 -312.666666667 666 -290 c 0
 742.666666667 -247.333333333 787.333333333 -174.666666667 800 -72 c 0
 805.333333333 -32 808 9 808 51 c 1
 776 5.66666666667 732 -30.1666666667 676 -56.5 c 128
 620 -82.8333333333 558 -96 490 -96 c 0
 359.333333333 -96 260 -51.1666666667 192 38.5 c 128
 124 128.166666667 90 239 90 371 c 0
 90 587 163 729.666666667 309 799 c 0
 361.666666667 823 414 835 466 835 c 0
 624.666666667 835 738.666666667 780.333333333 808 671 c 1
 808 811 l 1
EndSplineSet
Validated: 1
EndChar

StartChar: h
Encoding: 104 104 316
Width: 903
VWidth: 1696
Flags: W
LayerCount: 2
Fore
SplineSet
90 0 m 1
 90 1224 l 1
 205 1224 l 1
 205 771 l 1
 242.333333333 809 282.666666667 841 326 867 c 128
 369.333333333 893 422 906 484 906 c 0
 615.333333333 906 710 863.666666667 768 779 c 0
 790 747 803 714 807 680 c 128
 811 646 813 611 813 575 c 2
 813 0 l 1
 697 0 l 1
 697 573 l 2
 697 649 680.333333333 705.833333333 647 743.5 c 128
 613.666666667 781.166666667 553.333333333 800 466 800 c 0
 378.666666667 800 310.333333333 766 261 698 c 0
 231 656.666666667 213.666666667 609.666666667 209 557 c 0
 206.333333333 531.666666667 205 504 205 474 c 2
 205 0 l 1
 90 0 l 1
EndSplineSet
Validated: 1
EndChar

StartChar: i
Encoding: 105 105 317
Width: 306
VWidth: 1696
Flags: W
LayerCount: 2
Fore
SplineSet
90 1059 m 1
 90 1224 l 1
 216 1224 l 1
 216 1059 l 1
 90 1059 l 1
95 0 m 1
 95 882 l 1
 211 882 l 1
 211 0 l 1
 95 0 l 1
EndSplineSet
Validated: 1
EndChar

StartChar: j
Encoding: 106 106 318
Width: 441
VWidth: 1660
Flags: W
LayerCount: 2
Fore
SplineSet
351 1022 m 1
 225 1022 l 1
 225 1187 l 1
 351 1187 l 1
 351 1022 l 1
90 -277 m 1
 111.333333333 -279.666666667 127.666666667 -281 139 -281 c 128
 150.333333333 -281 162 -280 174 -278 c 0
 213.333333333 -271.333333333 232 -234.333333333 230 -167 c 1
 230 846 l 1
 346 846 l 1
 346 -153 l 2
 346 -237 338.166666667 -292.333333333 322.5 -319 c 128
 306.833333333 -345.666666667 286.833333333 -364 262.5 -374 c 128
 238.166666667 -384 211.333333333 -389 182 -389 c 128
 152.666666667 -389 122 -386.333333333 90 -381 c 1
 90 -277 l 1
EndSplineSet
Validated: 33
EndChar

StartChar: k
Encoding: 107 107 319
Width: 923
VWidth: 1696
Flags: W
LayerCount: 2
Fore
SplineSet
90 0 m 1
 90 1224 l 1
 206 1224 l 1
 206 476 l 1
 637 880 l 1
 639 882 l 1
 798 882 l 1
 455 561 l 1
 825 11 l 1
 833 0 l 1
 703 0 l 1
 365 484 l 1
 206 335 l 1
 206 0 l 1
 90 0 l 1
EndSplineSet
Validated: 1
EndChar

StartChar: l
Encoding: 108 108 320
Width: 296
VWidth: 1696
Flags: W
LayerCount: 2
Fore
SplineSet
90 0 m 1
 90 1224 l 1
 206 1224 l 1
 206 0 l 1
 90 0 l 1
EndSplineSet
Validated: 1
EndChar

StartChar: m
Encoding: 109 109 321
Width: 1399
VWidth: 1663
Flags: W
LayerCount: 2
Fore
SplineSet
738 713 m 1
 799.333333333 819.666666667 896 873 1028 873 c 0
 1185.33333333 873 1275.66666667 798 1299 648 c 0
 1305.66666667 606 1309 563 1309 519 c 2
 1309 -41 l 1
 1193 -41 l 1
 1193 571 l 2
 1193 633 1180.33333333 681.166666667 1155 715.5 c 128
 1129.66666667 749.833333333 1079.33333333 767 1004 767 c 0
 928.666666667 767 865.666666667 734.666666667 815 670 c 0
 777 620 758 542.333333333 758 437 c 2
 758 -41 l 1
 641 -41 l 1
 641 571 l 2
 641 633 627.833333333 681.166666667 601.5 715.5 c 128
 575.166666667 749.833333333 524.666666667 767 450 767 c 0
 375.333333333 767 312.666666667 734.666666667 262 670 c 0
 224.666666667 620.666666667 206 543 206 437 c 2
 206 -41 l 1
 90 -41 l 1
 90 849 l 1
 206 849 l 1
 206 731 l 1
 232 774.333333333 268.333333333 808.833333333 315 834.5 c 128
 361.666666667 860.166666667 415 873 475 873 c 0
 606.333333333 873 694 819.666666667 738 713 c 1
EndSplineSet
Validated: 1
EndChar

StartChar: n
Encoding: 110 110 322
Width: 903
VWidth: 1663
Flags: W
LayerCount: 2
Fore
SplineSet
205 -41 m 1
 90 -41 l 1
 90 849 l 1
 205 849 l 1
 205 737 l 1
 242.333333333 775 282.666666667 807.166666667 326 833.5 c 128
 369.333333333 859.833333333 422 873 484 873 c 0
 615.333333333 873 710 830 768 744 c 0
 790 712 803 679 807 645 c 128
 811 611 813 575.666666667 813 539 c 2
 813 -41 l 1
 697 -41 l 1
 697 537 l 2
 697 613.666666667 680.333333333 671.166666667 647 709.5 c 128
 613.666666667 747.833333333 553.333333333 767 466 767 c 0
 378.666666667 767.666666667 310.333333333 733.333333333 261 664 c 0
 231 622.666666667 213.666666667 575.333333333 209 522 c 0
 206.333333333 496.666666667 205 468.333333333 205 437 c 2
 205 -41 l 1
EndSplineSet
Validated: 33
EndChar

StartChar: o
Encoding: 111 111 323
Width: 1020
VWidth: 1660
Flags: W
LayerCount: 2
Fore
SplineSet
807 397 m 2
 807 441 l 2
 807 467.666666667 801.666666667 503 791 547 c 0
 753.666666667 691.666666667 659.666666667 764 509 764 c 0
 406.333333333 764 331.166666667 729.5 283.5 660.5 c 128
 235.833333333 591.5 212 506.333333333 212 405 c 0
 212 236.333333333 267.666666667 125 379 71 c 0
 415.666666667 54.3333333333 457.333333333 46 504 46 c 2
 509 46 l 2
 612.333333333 46 687.833333333 80.8333333333 735.5 150.5 c 128
 783.166666667 220.166666667 807 302.333333333 807 397 c 2
509 -60 m 1
 315 -56 186 31.3333333333 122 202 c 0
 100.666666667 259.333333333 90 323.666666667 90 395 c 0
 90 535.666666667 125.666666667 650 197 738 c 128
 268.333333333 826 372.833333333 870 510.5 870 c 128
 648.166666667 870 752.5 826.333333333 823.5 739 c 128
 894.5 651.666666667 930 539.666666667 930 403 c 128
 930 266.333333333 892.666666667 155 818 69 c 128
 743.333333333 -17 640.333333333 -60 509 -60 c 1
EndSplineSet
Validated: 1
EndChar

StartChar: p
Encoding: 112 112 324
Width: 1013
VWidth: 1626
Flags: W
LayerCount: 2
Fore
SplineSet
281 626 m 1
 231 562.666666667 206 478.666666667 206 374 c 128
 206 269.333333333 232.333333333 182.666666667 285 114 c 0
 337.666666667 46 408 12 496 12 c 2
 501 12 l 2
 605 12 681.333333333 46.6666666667 730 116 c 0
 778 185.333333333 802 269 802 367 c 0
 802 377 801.833333333 398 801.5 430 c 128
 801.166666667 462 793.5 498.5 778.5 539.5 c 0
 764.166666667 581.166666667 743.666666667 616 717 644 c 0
 663.666666667 701.333333333 590 730 496 730 c 0
 403.333333333 730 331.666666667 695.333333333 281 626 c 1
206 -415 m 1
 90 -415 l 1
 90 812 l 1
 206 812 l 1
 206 672 l 1
 236.666666667 722 272.333333333 757.666666667 313 779 c 0
 386.333333333 817 457 836 525 836 c 0
 657 836 756.333333333 793.666666667 823 709 c 128
 889.666666667 624.333333333 923 514.666666667 923 380 c 0
 923 376 923 376 923 372 c 0
 923 240 889 129.333333333 821 40 c 128
 753 -49.3333333333 652.333333333 -94 519 -94 c 0
 453 -94 392.333333333 -80.8333333333 337 -54.5 c 128
 281.666666667 -28.1666666667 238 7.33333333333 206 52 c 1
 206 -415 l 1
EndSplineSet
Validated: 1
EndChar

StartChar: q
Encoding: 113 113 325
Width: 1013
VWidth: 1626
Flags: W
LayerCount: 2
Fore
SplineSet
640 39 m 0
 750 93.6666666667 806 205.666666667 808 375 c 0
 808 475.666666667 781.333333333 560 728 628 c 128
 674.666666667 696 604.333333333 730 517 730 c 2
 512 730 l 2
 410 730 334.5 695.166666667 285.5 625.5 c 128
 236.5 555.833333333 212 472 212 374 c 0
 212 364 212.166666667 343 212.5 311 c 128
 212.833333333 279 220.333333333 242.666666667 235 202 c 0
 281 75.3333333333 373.333333333 12 512 12 c 0
 560 12 602.666666667 21 640 39 c 0
808 812 m 1
 923 812 l 1
 923 -415 l 1
 808 -415 l 1
 808 52 l 1
 776 7.33333333333 732 -28.1666666667 676 -54.5 c 128
 620 -80.8333333333 558 -94 490 -94 c 0
 359.333333333 -94 260 -49.3333333333 192 40 c 128
 124 129.333333333 90 240 90 372 c 0
 90 588 163 730.666666667 309 800 c 0
 361.666666667 824 414 836 466 836 c 0
 626.666666667 836 740.666666667 781.333333333 808 672 c 1
 808 812 l 1
EndSplineSet
Validated: 1
EndChar

StartChar: r
Encoding: 114 114 326
Width: 585
VWidth: 1663
Flags: W
LayerCount: 2
Fore
SplineSet
495 748 m 1
 486 748 486 748 477 748 c 0
 332.333333333 748 246 676.333333333 218 533 c 0
 209.333333333 489 205 443 205 395 c 2
 205 -41 l 1
 90 -41 l 1
 90 849 l 1
 205 849 l 1
 205 703 l 1
 232.333333333 762.333333333 267.666666667 805.5 311 832.5 c 128
 354.333333333 859.5 413.333333333 873 488 873 c 2
 495 873 l 1
 495 748 l 1
EndSplineSet
Validated: 1
EndChar

StartChar: s
Encoding: 115 115 327
Width: 899
VWidth: 1660
Flags: W
LayerCount: 2
Fore
SplineSet
207 252 m 1
 219.666666667 177.333333333 247 124.333333333 289 93 c 128
 331 61.6666666667 392 46 472 46 c 0
 576.666666667 46 643.666666667 78 673 142 c 0
 681 159.333333333 685.333333333 183.333333333 686 214 c 0
 686 268 639 308.666666667 545 336 c 0
 501 347.333333333 453.333333333 357.333333333 402 366 c 0
 286 385.333333333 203.333333333 422.666666667 154 478 c 0
 125.333333333 510.666666667 111 560.166666667 111 626.5 c 128
 111 692.833333333 138.5 750 193.5 798 c 128
 248.5 846 327.333333333 870 430 870 c 128
 532.666666667 870 614.333333333 848.333333333 675 805 c 128
 735.666666667 761.666666667 772.666666667 686.666666667 786 580 c 1
 668 580 l 1
 668 586 l 1
 659.333333333 651.333333333 634.666666667 697.333333333 594 724 c 0
 551.333333333 750.666666667 496.5 764 429.5 764 c 128
 362.5 764 313.166666667 751.166666667 281.5 725.5 c 128
 249.833333333 699.833333333 234 667 234 627 c 0
 234 587.666666667 247 558 273 538 c 0
 313.666666667 507.333333333 393.333333333 480 512 456 c 0
 630.666666667 432.666666667 715 392.666666667 765 336 c 0
 794.333333333 304 809 262.666666667 809 212 c 0
 809.666666667 121.333333333 776.333333333 53.3333333333 709 8 c 0
 642.333333333 -37.3333333333 551.666666667 -60 437 -60 c 0
 279.666666667 -60 173.666666667 1.66666666667 119 125 c 0
 103 161.666666667 93.6666666667 201.333333333 91 244 c 1
 90 252 l 1
 207 252 l 1
EndSplineSet
Validated: 33
EndChar

StartChar: t
Encoding: 116 116 328
Width: 589
VWidth: 1683
Flags: W
LayerCount: 2
Fore
SplineSet
329 183 m 2
 329 135.666666667 333 105 341 91 c 0
 356.333333333 63 409 60 499 82 c 1
 499 -15 l 1
 481.666666667 -17.6666666667 463.166666667 -22 443.5 -28 c 128
 423.833333333 -34 394.5 -37 355.5 -37 c 128
 316.5 -37 283 -23.8333333333 255 2.5 c 128
 227 28.8333333333 213 75.6666666667 213 143 c 2
 213 770 l 1
 90 770 l 1
 90 869 l 1
 213 869 l 1
 213 1113 l 1
 329 1113 l 1
 329 869 l 1
 493 869 l 1
 493 770 l 1
 329 770 l 1
 329 183 l 2
EndSplineSet
Validated: 33
EndChar

StartChar: u
Encoding: 117 117 329
Width: 903
VWidth: 1658
Flags: W
LayerCount: 2
Fore
SplineSet
697 844 m 1
 813 844 l 1
 813 -39 l 1
 697 -39 l 1
 697 70 l 1
 660.333333333 30.6666666667 630 3.66666666667 606 -11 c 0
 551.333333333 -45.6666666667 490 -63 422 -63 c 0
 300 -63 214.166666667 -33.3333333333 164.5 26 c 128
 114.833333333 85.3333333333 90 164.666666667 90 264 c 2
 90 844 l 1
 205 844 l 1
 205 267 l 2
 205 194.333333333 221.833333333 138.833333333 255.5 100.5 c 128
 289.166666667 62.1666666667 347 43 429 43 c 0
 557 43 640.333333333 106.666666667 679 234 c 0
 691 273.333333333 697 316.666666667 697 364 c 2
 697 844 l 1
EndSplineSet
Validated: 1
EndChar

StartChar: v
Encoding: 118 118 330
Width: 1003
VWidth: 1660
Flags: W
LayerCount: 2
Fore
SplineSet
90 846 m 1
 216 846 l 1
 502 109 l 1
 786 842 l 1
 788 846 l 1
 913 846 l 1
 565 -39 l 1
 564 -44 l 1
 434 -44 l 1
 90 846 l 1
EndSplineSet
Validated: 1
EndChar

StartChar: w
Encoding: 119 119 331
Width: 1383
VWidth: 1660
Flags: W
LayerCount: 2
Fore
SplineSet
757 846 m 1
 948 125 l 1
 1173 841 l 1
 1175 846 l 1
 1293 846 l 1
 1005 -39 l 1
 1004 -44 l 1
 882 -44 l 1
 691 677 l 1
 498 -38 l 1
 497 -44 l 1
 361 -44 l 1
 93 837 l 1
 90 846 l 1
 206 846 l 1
 429 118 l 1
 629 841 l 1
 631 846 l 1
 757 846 l 1
EndSplineSet
Validated: 1
EndChar

StartChar: x
Encoding: 120 120 332
Width: 1005
VWidth: 1660
Flags: W
LayerCount: 2
Fore
SplineSet
776 -44 m 1
 507 330 l 1
 233 -41 l 1
 231 -44 l 1
 90 -44 l 1
 435 417 l 1
 126 835 l 1
 117 846 l 1
 260 846 l 1
 505 503 l 1
 755 843 l 1
 757 846 l 1
 903 846 l 1
 578 417 l 1
 915 -44 l 1
 776 -44 l 1
EndSplineSet
Validated: 1
EndChar

StartChar: y
Encoding: 121 121 333
Width: 999
VWidth: 1624
Flags: W
LayerCount: 2
Fore
SplineSet
452 -326 m 0
 405.333333333 -392 352 -425 292 -425 c 0
 262.666666667 -425 224.666666667 -420.333333333 178 -411 c 1
 178 -303 l 1
 236.666666667 -310.333333333 267.333333333 -314 270 -314 c 0
 326.666666667 -314 373 -258.666666667 409 -148 c 0
 417 -121.333333333 426.333333333 -98.3333333333 437 -79 c 1
 90 810 l 1
 219 810 l 1
 501 71 l 1
 784 810 l 1
 909 810 l 1
 576 -64 l 2
 528 -189.333333333 486.666666667 -276.666666667 452 -326 c 0
EndSplineSet
Validated: 1
EndChar

StartChar: z
Encoding: 122 122 334
Width: 941
VWidth: 1660
Flags: W
LayerCount: 2
Fore
SplineSet
90 -36 m 1
 90 62 l 1
 91 64 l 1
 677 747 l 1
 128 747 l 1
 128 846 l 1
 830 846 l 1
 830 747 l 1
 242 62 l 1
 851 62 l 1
 851 -36 l 1
 90 -36 l 1
EndSplineSet
Validated: 1
EndChar

StartChar: bar
Encoding: 124 124 335
Width: 295
VWidth: 1657
Flags: W
LayerCount: 2
Fore
SplineSet
205 1242 m 1
 205 -462 l 1
 90 -462 l 1
 90 1242 l 1
 205 1242 l 1
EndSplineSet
Validated: 1
EndChar

StartChar: asciitilde
Encoding: 126 126 336
Width: 1043
VWidth: 1659
Flags: W
LayerCount: 2
Fore
SplineSet
708 403 m 0
 768 403 823 453.333333333 873 554 c 1
 953 487 l 1
 931.666666667 451.666666667 915 425 903 407 c 0
 874.333333333 365 842 335.666666667 806 319 c 128
 770 302.333333333 745 294 731 294 c 2
 707 294 l 2
 663.666666667 294 603.666666667 310.666666667 527 344 c 256
 507 352.666666667 487.833333333 360.5 469.5 367.5 c 128
 451.166666667 374.5 430.333333333 384.333333333 407 397 c 0
 384.333333333 409.666666667 361.666666667 416 339 416 c 0
 286.333333333 416 237.666666667 381.666666667 193 313 c 256
 181 294.333333333 168 273.333333333 154 250 c 1
 93 340 l 1
 90 344 l 1
 135 405 l 2
 194.333333333 485 261.666666667 525 337 525 c 256
 382.333333333 525 435.333333333 510.666666667 496 482 c 128
 556.666666667 453.333333333 601.833333333 433 631.5 421 c 128
 661.166666667 409 686.666666667 403 708 403 c 0
EndSplineSet
Validated: 1
EndChar

StartChar: exclamdown
Encoding: 161 161 337
Width: 318
VWidth: 1629
Flags: W
LayerCount: 2
Fore
SplineSet
90 846 m 1
 228 846 l 1
 228 684 l 1
 90 684 l 1
 90 846 l 1
228 3 m 1
 228 -383 l 1
 90 -383 l 1
 90 3 l 1
 114 542 l 1
 204 542 l 1
 228 3 l 1
EndSplineSet
Validated: 1
EndChar

StartChar: cent
Encoding: 162 162 338
Width: 975
VWidth: 1658
Flags: W
LayerCount: 2
Fore
SplineSet
560 763 m 1
 538 768.333333333 518 770.333333333 500 769 c 0
 404 769 332.166666667 733.166666667 284.5 661.5 c 128
 236.833333333 589.833333333 213 506.333333333 213 411 c 2
 213 404 l 2
 213 340.666666667 223.333333333 281 244 225 c 128
 264.666666667 169 296.666666667 125.666666667 340 95 c 1
 560 763 l 1
500 43 m 0
 648.666666667 43 736 121.666666667 762 279 c 1
 885 279 l 1
 879.666666667 233 866 187.666666667 844 143 c 256
 804.666666667 60.3333333333 740.333333333 0.666666666667 651 -36 c 256
 607.666666667 -53.3333333333 559.333333333 -62 506 -62 c 2
 471 -62 l 2
 449.666666667 -62 422.333333333 -58 389 -50 c 1
 316 -272 l 1
 314 -277 l 1
 220 -277 l 1
 303 -20 l 1
 162.333333333 51.3333333333 91.3333333333 192.666666667 90 404 c 0
 90 550.666666667 129 666.666666667 207 752 c 256
 281 834 378.666666667 875 500 875 c 0
 509.333333333 875 540.666666667 872.333333333 594 867 c 1
 660 1064 l 1
 662 1069 l 1
 758 1069 l 1
 683 840 l 1
 787.666666667 793.333333333 850 703 870 569 c 1
 872 561 l 1
 755 561 l 1
 753 567 l 1
 734.333333333 639 698.666666667 692.666666667 646 728 c 1
 423 53 l 1
 446.333333333 47.6666666667 472 44.3333333333 500 43 c 0
EndSplineSet
Validated: 1
EndChar

StartChar: sterling
Encoding: 163 163 339
Width: 1050
VWidth: 1691
Flags: W
LayerCount: 2
Fore
SplineSet
112 97 m 1
 232.666666667 193.666666667 293 291.333333333 293 390 c 0
 293 444.666666667 282 495 260 541 c 1
 90 541 l 1
 90 626 l 1
 223 626 l 1
 217 639.333333333 209.333333333 653.333333333 200 668 c 0
 158.666666667 734.666666667 138 806.666666667 138 884 c 0
 138 1028 210.333333333 1125.33333333 355 1176 c 0
 402.333333333 1192 456 1200 516 1200 c 0
 635.333333333 1200 731 1166.66666667 803 1100 c 256
 875.666666667 1034 912 946.333333333 912 837 c 2
 912 819 l 1
 787 819 l 1
 787 826 l 1
 783.666666667 913.333333333 758.666666667 980 712 1026 c 256
 666 1071.33333333 604 1094 526 1094 c 2
 523 1094 l 2
 450.333333333 1094 389.666666667 1076.33333333 341 1041 c 256
 287.666666667 1002.33333333 261 950 261 884 c 0
 261 840 270 800.833333333 288 766.5 c 128
 306 732.166666667 321.5 705.166666667 334.5 685.5 c 128
 347.5 665.833333333 359.666666667 646 371 626 c 1
 654 626 l 1
 654 541 l 1
 402 541 l 1
 412 507 417 472.333333333 417 437 c 0
 417 347.666666667 382.333333333 261.333333333 313 178 c 0
 299 161.333333333 284.666666667 144.666666667 270 128 c 1
 322.666666667 152 371.5 164 416.5 164 c 128
 461.5 164 504.666666667 155.833333333 546 139.5 c 128
 587.333333333 123.166666667 618.333333333 111.333333333 639 104 c 256
 659.666666667 96.6666666667 686.333333333 93 719 93 c 128
 751.666666667 93 781.833333333 102.5 809.5 121.5 c 128
 837.166666667 140.5 865.666666667 164.666666667 895 194 c 1
 957 101 l 1
 960 95 l 1
 886 34 l 1
 830 -8 753.666666667 -29 657 -29 c 0
 635.666666667 -29 603 -21.1666666667 559 -5.5 c 128
 515 10.1666666667 478.333333333 22.5 449 31.5 c 128
 419.666666667 40.5 389.333333333 45 358 45 c 256
 326.666666667 45 290.333333333 36 249 18 c 128
 207.666666667 0 184 -10 178 -12 c 1
 115 91 l 1
 112 97 l 1
EndSplineSet
Validated: 1
EndChar

StartChar: fraction
Encoding: 8260 8260 340
AltUni2: 002215.ffffffff.0
Width: 1042
VWidth: 1691
Flags: W
LayerCount: 2
Fore
SplineSet
90 -29 m 1
 844 1194 l 1
 847 1197 l 1
 849 1200 l 1
 952 1200 l 1
 196 -25 l 1
 195 -26 l 1
 193 -29 l 1
 90 -29 l 1
EndSplineSet
Validated: 1
EndChar

StartChar: yen
Encoding: 165 165 341
Width: 1130
VWidth: 1696
Flags: W
LayerCount: 2
Fore
SplineSet
563 652 m 1
 899 1228 l 1
 901 1231 l 1
 1040 1231 l 1
 752 748 l 1
 934 748 l 1
 934 642 l 1
 688 642 l 1
 627 536 l 1
 627 474 l 1
 934 474 l 1
 934 368 l 1
 627 368 l 1
 627 0 l 1
 504 0 l 1
 504 368 l 1
 196 368 l 1
 196 474 l 1
 504 474 l 1
 504 536 l 1
 443 642 l 1
 196 642 l 1
 196 748 l 1
 378 748 l 1
 96 1220 l 1
 90 1231 l 1
 235 1231 l 1
 563 652 l 1
EndSplineSet
Validated: 1
EndChar

StartChar: florin
Encoding: 402 402 342
Width: 1101
VWidth: 1664
Flags: W
LayerCount: 2
Fore
SplineSet
127 -238 m 1
 156.333333333 -256.666666667 186.833333333 -265.666666667 218.5 -265 c 128
 250.166666667 -264.333333333 277.333333333 -250 300 -222 c 0
 346.666666667 -165.333333333 386.666666667 -58 420 100 c 0
 437.333333333 178.666666667 455 268.666666667 473 370 c 1
 523 636 l 1
 326 636 l 1
 326 732 l 1
 539 732 l 1
 549.666666667 778 561.666666667 828.333333333 575 883 c 0
 627.666666667 1103.66666667 729.333333333 1214 880 1214 c 2
 901 1214 l 2
 931.666666667 1214 966.666666667 1202.66666667 1006 1180 c 1
 1011 1176 l 1
 972 1081 l 1
 939.333333333 1099.66666667 912.833333333 1109 892.5 1109 c 128
 872.166666667 1109 854.666666667 1107.33333333 840 1104 c 1
 839 1104 l 1
 770.333333333 1092 722 1006 694 846 c 0
 686.666666667 804.666666667 678 766.666666667 668 732 c 1
 864 732 l 1
 864 636 l 1
 651 636 l 1
 540 74 l 1
 508 -71.3333333333 475.333333333 -169.666666667 442 -221 c 128
 408.666666667 -272.333333333 372.666666667 -310.166666667 334 -334.5 c 128
 295.333333333 -358.833333333 253.833333333 -371 209.5 -371 c 128
 165.166666667 -371 127.666666667 -364.666666667 97 -352 c 1
 90 -350 l 1
 125 -247 l 1
 127 -238 l 1
EndSplineSet
Validated: 33
EndChar

StartChar: section
Encoding: 167 167 343
Width: 971
VWidth: 1667
Flags: W
LayerCount: 2
Fore
SplineSet
634 184 m 1
 729.333333333 237.333333333 777 298 777 366 c 0
 777 420.666666667 744 470 678 514 c 256
 660 526 642.666666667 537.333333333 626 548 c 2
 337 725 l 1
 244.333333333 684.333333333 197.333333333 628.333333333 196 557 c 0
 196 507.666666667 226 459.333333333 286 412 c 0
 302.666666667 399.333333333 319.333333333 387.333333333 336 376 c 2
 634 184 l 1
285 -20 m 2
 285 -159.333333333 353.666666667 -229 491 -229 c 0
 569 -229 624.333333333 -200.333333333 657 -143 c 0
 667 -124.333333333 672 -102.333333333 672 -77 c 0
 672 -14.3333333333 631.333333333 45 550 101 c 0
 528 116.333333333 507 130.666666667 487 144 c 2
 266 283 l 2
 211.333333333 317 168.5 354.166666667 137.5 394.5 c 128
 106.5 434.833333333 90.6666666667 484.666666667 90 544 c 256
 90 602.666666667 107.333333333 652.833333333 142 694.5 c 128
 176.666666667 736.166666667 218 768 266 790 c 1
 242.666666667 817.333333333 222.833333333 845.5 206.5 874.5 c 128
 190.166666667 903.5 182 937 182 975 c 0
 182 1051 208.666666667 1112.33333333 262 1159 c 256
 318.666666667 1208.33333333 394 1233 488 1233 c 2
 495 1233 l 2
 591.666666667 1233 666 1205.33333333 718 1150 c 256
 768.666666667 1096 794 1023 794 931 c 2
 794 917 l 1
 689 917 l 1
 688 924 l 1
 684 1060 621 1128 499 1128 c 0
 369 1128 304 1075.66666667 304 971 c 0
 304 934.333333333 321.666666667 897.333333333 357 860 c 128
 392.333333333 822.666666667 452.333333333 781.166666667 537 735.5 c 128
 621.666666667 689.833333333 685.666666667 651.666666667 729 621 c 256
 829.666666667 549.666666667 880.333333333 470.5 881 383.5 c 128
 881.666666667 296.5 842.666666667 223.666666667 764 165 c 0
 744 149.666666667 722.666666667 134.333333333 700 119 c 1
 705.333333333 114.333333333 712.666666667 107.333333333 722 98 c 0
 770 52 794 2 794 -52 c 0
 794 -190.666666667 731.666666667 -279.333333333 607 -318 c 256
 570.333333333 -329.333333333 531 -335 489 -335 c 0
 391 -335 314.333333333 -306.666666667 259 -250 c 256
 203 -193.333333333 173 -117 169 -21 c 1
 168 -13 l 1
 285 -13 l 1
 285 -20 l 2
EndSplineSet
Validated: 33
EndChar

StartChar: currency
Encoding: 164 164 344
Width: 1042
VWidth: 1675
Flags: W
LayerCount: 2
Fore
SplineSet
640 770 m 256
 608 784.666666667 581.333333333 792 560 792 c 2
 518 792 l 2
 434.666666667 792 365.666666667 764 311 708 c 256
 254.333333333 650 226 581.666666667 226 503 c 2
 226 483 l 2
 226 408.333333333 254.333333333 342.666666667 311 286 c 256
 368.333333333 227.333333333 437.666666667 198 519 198 c 0
 600.333333333 198 670.666666667 226.666666667 730 284 c 256
 788.666666667 342.666666667 818 412.333333333 818 493 c 2
 818 498 l 2
 818 577.333333333 789.333333333 646.333333333 732 705 c 256
 705.333333333 732.333333333 674.666666667 754 640 770 c 256
774 146 m 1
 697.333333333 91.3333333333 614.166666667 63.8333333333 524.5 63.5 c 128
 434.833333333 63.1666666667 349.666666667 90.6666666667 269 146 c 1
 193 72 l 1
 96 172 l 1
 169 244 l 1
 116.333333333 322 90 406.666666667 90 498 c 128
 90 589.333333333 116.333333333 672.666666667 169 748 c 1
 96 821 l 1
 193 920 l 1
 268 847 l 1
 341.333333333 901 428 928 528 928 c 256
 608 928 690 901 774 847 c 1
 849 920 l 1
 947 821 l 1
 874 748 l 1
 926 672.666666667 952 589.5 952 498.5 c 128
 952 407.5 925.666666667 322.666666667 873 244 c 1
 947 172 l 1
 854 78 l 1
 849 72 l 1
 774 146 l 1
EndSplineSet
Validated: 33
EndChar

StartChar: quotesingle
Encoding: 39 39 345
Width: 283
VWidth: 1785
Flags: W
LayerCount: 2
Fore
SplineSet
90 1320 m 1
 193 1320 l 1
 193 923 l 1
 90 923 l 1
 90 1320 l 1
EndSplineSet
Validated: 1
EndChar

StartChar: quotedblleft
Encoding: 8220 8220 346
Width: 573
VWidth: 1785
Flags: W
LayerCount: 2
Fore
SplineSet
90 1131 m 2
 90 1182.33333333 102 1223.66666667 126 1255 c 256
 153.333333333 1290.33333333 187.333333333 1312.66666667 228 1322 c 1
 228 1246 l 1
 212 1235.33333333 198.333333333 1222.66666667 187 1208 c 128
 175.666666667 1193.33333333 170 1170.33333333 170 1139 c 2
 170 1088 l 1
 228 1088 l 1
 228 925 l 1
 90 925 l 1
 90 1131 l 2
345 1131 m 2
 345 1182.33333333 357 1223.66666667 381 1255 c 256
 408.333333333 1290.33333333 442.333333333 1312.66666667 483 1322 c 1
 483 1246 l 1
 467 1235.33333333 453.333333333 1222.66666667 442 1208 c 128
 430.666666667 1193.33333333 425 1170.33333333 425 1139 c 2
 425 1088 l 1
 483 1088 l 1
 483 925 l 1
 345 925 l 1
 345 1131 l 2
EndSplineSet
Validated: 1
EndChar

StartChar: guilsinglleft
Encoding: 8249 8249 347
Width: 441
VWidth: 1661
Flags: W
LayerCount: 2
Fore
SplineSet
90 467 m 1
 351 668 l 1
 351 544 l 1
 180 409 l 1
 348 280 l 1
 351 278 l 1
 351 155 l 1
 93 351 l 1
 90 353 l 1
 90 467 l 1
EndSplineSet
Validated: 1
EndChar

StartChar: guilsinglright
Encoding: 8250 8250 348
Width: 441
VWidth: 1661
Flags: W
LayerCount: 2
Fore
SplineSet
351 356 m 1
 90 155 l 1
 90 279 l 1
 261 414 l 1
 93 543 l 1
 90 545 l 1
 90 668 l 1
 348 472 l 1
 351 470 l 1
 351 356 l 1
EndSplineSet
Validated: 1
EndChar

StartChar: fi
Encoding: 64257 64257 349
Width: 921
VWidth: 1699
Flags: W
LayerCount: 2
Fore
SplineSet
831 1061 m 1
 705 1061 l 1
 705 1226 l 1
 831 1226 l 1
 831 1061 l 1
710 -5 m 1
 710 885 l 1
 826 885 l 1
 826 -5 l 1
 710 -5 l 1
518 1133 m 1
 493.333333333 1140.33333333 468.666666667 1144 444 1144 c 0
 398.666666667 1144 369.666666667 1130 357 1102 c 0
 344.333333333 1074 338 1035.33333333 338 986 c 2
 338 885 l 1
 514 885 l 1
 514 786 l 1
 338 786 l 1
 338 -5 l 1
 222 -5 l 1
 222 786 l 1
 90 786 l 1
 90 885 l 1
 222 885 l 1
 222 1016 l 2
 222 1087.33333333 236.833333333 1144.16666667 266.5 1186.5 c 128
 296.166666667 1228.83333333 347.666666667 1250 421 1250 c 0
 448.333333333 1250 480.666666667 1247.33333333 518 1242 c 1
 518 1133 l 1
EndSplineSet
Validated: 1
EndChar

StartChar: fl
Encoding: 64258 64258 350
Width: 917
VWidth: 1699
Flags: W
LayerCount: 2
Fore
SplineSet
711 -5 m 1
 711 1226 l 1
 827 1226 l 1
 827 -5 l 1
 711 -5 l 1
518 1133 m 1
 496 1140.33333333 472 1144 446 1144 c 0
 400.666666667 1144 371 1129.33333333 357 1100 c 0
 343 1070.66666667 337 1032.66666667 339 986 c 1
 339 885 l 1
 515 885 l 1
 515 786 l 1
 339 786 l 1
 339 -5 l 1
 223 -5 l 1
 223 786 l 1
 90 786 l 1
 90 885 l 1
 223 885 l 1
 223 1016 l 2
 223 1087.33333333 237.833333333 1144.16666667 267.5 1186.5 c 128
 297.166666667 1228.83333333 348.666666667 1250 422 1250 c 0
 454 1250 486 1247.33333333 518 1242 c 1
 518 1133 l 1
EndSplineSet
Validated: 33
EndChar

StartChar: endash
Encoding: 8211 8211 351
Width: 1040
VWidth: 1660
Flags: W
LayerCount: 2
Fore
SplineSet
950 366 m 1
 90 366 l 1
 90 455 l 1
 950 455 l 1
 950 366 l 1
EndSplineSet
Validated: 1
EndChar

StartChar: dagger
Encoding: 8224 8224 352
Width: 1009
VWidth: 1667
Flags: W
LayerCount: 2
Fore
SplineSet
447 707 m 1
 90 707 l 1
 90 813 l 1
 447 813 l 1
 447 1201 l 1
 562 1201 l 1
 562 813 l 1
 919 813 l 1
 919 707 l 1
 562 707 l 1
 562 -310 l 1
 447 -310 l 1
 447 707 l 1
EndSplineSet
Validated: 1
EndChar

StartChar: daggerdbl
Encoding: 8225 8225 353
Width: 1009
VWidth: 1667
Flags: W
LayerCount: 2
Fore
SplineSet
447 718 m 1
 90 718 l 1
 90 824 l 1
 447 824 l 1
 447 1201 l 1
 562 1201 l 1
 562 824 l 1
 919 824 l 1
 919 718 l 1
 562 718 l 1
 562 168 l 1
 919 168 l 1
 919 63 l 1
 562 63 l 1
 562 -310 l 1
 447 -310 l 1
 447 63 l 1
 90 63 l 1
 90 168 l 1
 447 168 l 1
 447 718 l 1
EndSplineSet
Validated: 1
EndChar

StartChar: periodcentered
Encoding: 183 183 354
AltUni2: 002219.ffffffff.0
Width: 359
VWidth: 1692
Flags: W
LayerCount: 2
Fore
SplineSet
90 595 m 128
 90 619.666666667 99.3333333333 640.5 118 657.5 c 128
 136.666666667 674.5 158 683 182 683 c 128
 206 683 226.5 674.333333333 243.5 657 c 128
 260.5 639.666666667 269 618.833333333 269 594.5 c 128
 269 570.166666667 260.333333333 549 243 531 c 128
 225.666666667 513 204.833333333 504 180.5 504 c 128
 156.166666667 504 135 513 117 531 c 128
 99 549 90 570.333333333 90 595 c 128
EndSplineSet
Validated: 1
EndChar

StartChar: paragraph
Encoding: 182 182 355
Width: 937
VWidth: 1670
Flags: W
LayerCount: 2
Fore
SplineSet
414 541 m 1
 330 542.333333333 255 574.666666667 189 638 c 256
 123 702.666666667 90 784.5 90 883.5 c 128
 90 982.5 123.666666667 1060.83333333 191 1118.5 c 128
 258.333333333 1176.16666667 352.666666667 1205 474 1205 c 2
 847 1205 l 1
 847 -273 l 1
 732 -273 l 1
 732 1077 l 1
 530 1077 l 1
 530 -273 l 1
 414 -273 l 1
 414 541 l 1
EndSplineSet
Validated: 1
EndChar

StartChar: bullet
Encoding: 8226 8226 356
Width: 804
VWidth: 1696
Flags: W
LayerCount: 2
Fore
SplineSet
714 613 m 256
 714 527.666666667 683.333333333 455 622 395 c 256
 560 334.333333333 486 304 400 304 c 256
 314 304 241.333333333 334.333333333 182 395 c 256
 120.666666667 456.333333333 90 529 90 613 c 256
 90 699.666666667 120.666666667 773.666666667 182 835 c 256
 240.666666667 896.333333333 313.333333333 927 400 927 c 256
 488 927 562 896.333333333 622 835 c 256
 683.333333333 773.666666667 714 699.666666667 714 613 c 256
EndSplineSet
Validated: 1
EndChar

StartChar: quotesinglbase
Encoding: 8218 8218 357
Width: 317
VWidth: 1558
Flags: W
LayerCount: 2
Fore
SplineSet
227 -181 m 2
 227 -232.333333333 215 -273.666666667 191 -305 c 256
 167 -336.333333333 136.333333333 -357.666666667 99 -369 c 1
 90 -373 l 1
 90 -296 l 1
 106 -285.333333333 119.333333333 -273 130 -259 c 256
 141.333333333 -244.333333333 147 -221 147 -189 c 2
 147 -138 l 1
 90 -138 l 1
 90 25 l 1
 227 25 l 1
 227 -181 l 2
EndSplineSet
Validated: 1
EndChar

StartChar: quotedblbase
Encoding: 8222 8222 358
Width: 573
VWidth: 1558
Flags: W
LayerCount: 2
Fore
SplineSet
227 -181 m 2
 227 -232.333333333 215 -273.666666667 191 -305 c 256
 167 -336.333333333 136.333333333 -357.666666667 99 -369 c 1
 90 -373 l 1
 90 -296 l 1
 106 -285.333333333 119.333333333 -273 130 -259 c 256
 141.333333333 -244.333333333 147 -221 147 -189 c 2
 147 -138 l 1
 90 -138 l 1
 90 25 l 1
 227 25 l 1
 227 -181 l 2
483 -181 m 2
 483 -232.333333333 471 -273.666666667 447 -305 c 256
 419.666666667 -340.333333333 385.666666667 -362.666666667 345 -372 c 1
 345 -296 l 1
 361 -285.333333333 374.666666667 -272.666666667 386 -258 c 128
 397.333333333 -243.333333333 403 -220.333333333 403 -189 c 2
 403 -138 l 1
 345 -138 l 1
 345 25 l 1
 483 25 l 1
 483 -181 l 2
EndSplineSet
Validated: 1
EndChar

StartChar: quotedblright
Encoding: 8221 8221 359
Width: 573
VWidth: 1785
Flags: W
LayerCount: 2
Fore
SplineSet
227 1113 m 2
 227 1061.66666667 215 1020.33333333 191 989 c 256
 164.333333333 954.333333333 130.666666667 932.333333333 90 923 c 1
 90 999 l 1
 106 1009.66666667 119.333333333 1022 130 1036 c 256
 141.333333333 1050.66666667 147 1074 147 1106 c 2
 147 1156 l 1
 90 1156 l 1
 90 1320 l 1
 227 1320 l 1
 227 1113 l 2
483 1113 m 2
 483 1061.66666667 471 1020.33333333 447 989 c 256
 420.333333333 954.333333333 386.333333333 932.333333333 345 923 c 1
 345 999 l 1
 361 1009.66666667 374.666666667 1022 386 1036 c 0
 397.333333333 1050.66666667 403 1074 403 1106 c 2
 403 1156 l 1
 345 1156 l 1
 345 1320 l 1
 483 1320 l 1
 483 1113 l 2
EndSplineSet
Validated: 1
EndChar

StartChar: ellipsis
Encoding: 8230 8230 360
Width: 1444
VWidth: 1583
Flags: W
LayerCount: 2
Fore
SplineSet
653 -113 m 1
 653 49 l 1
 791 49 l 1
 791 -113 l 1
 653 -113 l 1
1216 -113 m 1
 1216 49 l 1
 1354 49 l 1
 1354 -113 l 1
 1216 -113 l 1
90 -113 m 1
 90 49 l 1
 228 49 l 1
 228 -113 l 1
 90 -113 l 1
EndSplineSet
Validated: 1
EndChar

StartChar: perthousand
Encoding: 8240 8240 361
Width: 1834
VWidth: 1691
Flags: W
LayerCount: 2
Fore
SplineSet
1485 105 m 256
 1524.33333333 105 1559 120 1589 150 c 256
 1619 180 1634 214.333333333 1634 253 c 256
 1634 293 1619.33333333 328.333333333 1590 359 c 256
 1561.33333333 389 1526.66666667 404 1486 404 c 0
 1445.33333333 404 1410 389 1380 359 c 256
 1350.66666667 329.666666667 1336 294.666666667 1336 254 c 0
 1336 213.333333333 1351 178.666666667 1381 150 c 256
 1411 120 1445.66666667 105 1485 105 c 256
872 105 m 256
 933.333333333 105 979 136 1009 198 c 256
 1017.66666667 216 1022 234.333333333 1022 253 c 256
 1022 294.333333333 1007 329.333333333 977 358 c 256
 946.333333333 388.666666667 911.333333333 404 872 404 c 256
 831.333333333 404 796.666666667 389 768 359 c 256
 738.666666667 328.333333333 724 293 724 253 c 256
 724 213 739 178.666666667 769 150 c 256
 799 120 833.333333333 105 872 105 c 256
362 1078 m 0
 289.333333333 1078 239.333333333 1047.33333333 212 986 c 256
 204 968 200 949 200 929 c 256
 200 890.333333333 214.666666667 855.666666667 244 825 c 256
 272.666666667 795 307.666666667 780 349 780 c 256
 388.333333333 780 423 795 453 825 c 256
 483 855 498 889.666666667 498 929 c 256
 498 971 482.666666667 1006.33333333 452 1035 c 128
 421.333333333 1063.66666667 391.333333333 1078 362 1078 c 0
206 -29 m 1
 900 1197 l 1
 902 1200 l 1
 1008 1200 l 1
 314 -26 l 1
 312 -29 l 1
 206 -29 l 1
1302 437 m 256
 1353.33333333 488.333333333 1414.33333333 514 1485 514 c 0
 1555.66666667 514 1616.66666667 488.333333333 1668 437 c 256
 1718.66666667 385 1744 323.666666667 1744 253 c 256
 1744 184.333333333 1718.66666667 123.333333333 1668 70 c 256
 1619.33333333 20 1559 -5 1487 -5 c 0
 1415 -5 1353.33333333 20 1302 70 c 256
 1250.66666667 121.333333333 1225 182 1225 252 c 0
 1225 322.666666667 1250.66666667 384.333333333 1302 437 c 256
349 1189 m 256
 418.333333333 1189 479.333333333 1163.33333333 532 1112 c 256
 583.333333333 1062 609 1001.33333333 609 930 c 0
 609 858 583.333333333 796.333333333 532 745 c 256
 480 694.333333333 419 669 349 669 c 256
 279 669 217.666666667 694.666666667 165 746 c 256
 115 796 90 857 90 929 c 256
 90 999 115.333333333 1060 166 1112 c 256
 217.333333333 1163.33333333 278.333333333 1189 349 1189 c 256
872 514 m 256
 942 514 1003.33333333 488.333333333 1056 437 c 256
 1107.33333333 385.666666667 1133 325 1133 255 c 0
 1133 185 1107.33333333 123.333333333 1056 70 c 256
 1006 20 944.666666667 -5 872 -5 c 256
 802 -5 741 20.3333333333 689 71 c 256
 639 119.666666667 614 180.333333333 614 253 c 256
 614 323.666666667 639.333333333 385 690 437 c 256
 740 488.333333333 800.666666667 514 872 514 c 256
EndSplineSet
Validated: 1
EndChar

StartChar: questiondown
Encoding: 191 191 362
Width: 929
VWidth: 1626
Flags: W
LayerCount: 2
Fore
SplineSet
547 843 m 1
 547 679 l 1
 409 679 l 1
 409 843 l 1
 547 843 l 1
837 -29 m 1
 838.333333333 -38.3333333333 839 -58.6666666667 839 -90 c 128
 839 -121.333333333 832.333333333 -155.666666667 819 -193 c 256
 783.666666667 -289 717.333333333 -355.666666667 620 -393 c 256
 572.666666667 -411.666666667 520.666666667 -421 464 -421 c 0
 348.666666667 -421 257.333333333 -391.333333333 190 -332 c 256
 123.333333333 -272 90 -193.333333333 90 -96 c 0
 90 -16 128 61.3333333333 204 136 c 0
 236 166.666666667 269 197 303 227 c 256
 377.666666667 293 417 358.666666667 421 424 c 0
 423 459.333333333 424.333333333 494 425 528 c 1
 425 535 l 1
 537 535 l 1
 537 506 l 2
 537 452 532.333333333 400.666666667 523 352 c 128
 513.666666667 303.333333333 491.666666667 260.833333333 457 224.5 c 128
 422.333333333 188.166666667 382.666666667 149.333333333 338 108 c 0
 225.333333333 3.33333333333 189 -95 229 -187 c 256
 251 -237.666666667 294.666666667 -274.666666667 360 -298 c 256
 392 -309.333333333 428.333333333 -315 469 -315 c 256
 548.333333333 -315 611 -288.333333333 657 -235 c 256
 699 -185 720 -123.333333333 720 -50 c 2
 720 -29 l 1
 837 -29 l 1
EndSplineSet
Validated: 33
EndChar

StartChar: grave
Encoding: 96 96 363
Width: 531
VWidth: 1798
Flags: W
LayerCount: 2
Fore
SplineSet
90 1320 m 1
 242 1320 l 1
 441 1072 l 1
 337 1072 l 1
 90 1320 l 1
EndSplineSet
Validated: 1
EndChar

StartChar: acute
Encoding: 180 180 364
Width: 529
VWidth: 1798
Flags: W
LayerCount: 2
Fore
SplineSet
90 1072 m 1
 287 1318 l 1
 289 1320 l 1
 439 1320 l 1
 194 1072 l 1
 90 1072 l 1
EndSplineSet
Validated: 1
EndChar

StartChar: circumflex
Encoding: 710 710 365
Width: 707
VWidth: 1798
Flags: W
LayerCount: 2
Fore
SplineSet
219 1072 m 1
 90 1072 l 1
 293 1318 l 1
 295 1320 l 1
 415 1320 l 1
 617 1072 l 1
 489 1072 l 1
 354 1239 l 1
 221 1074 l 1
 219 1072 l 1
EndSplineSet
Validated: 1
EndChar

StartChar: tilde
Encoding: 732 732 366
Width: 725
VWidth: 1795
Flags: W
LayerCount: 2
Fore
SplineSet
635 1276 m 1
 632.333333333 1254.66666667 627.333333333 1230.33333333 620 1203 c 1
 620 1202 l 1
 619 1201 l 1
 586.333333333 1131 547.5 1096 502.5 1096 c 128
 457.5 1096 409.166666667 1108.66666667 357.5 1134 c 128
 305.833333333 1159.33333333 267.833333333 1172 243.5 1172 c 128
 219.166666667 1172 202.5 1165.5 193.5 1152.5 c 128
 184.5 1139.5 174.333333333 1118.33333333 163 1089 c 1
 90 1089 l 1
 100.666666667 1173 135.333333333 1228.66666667 194 1256 c 0
 212 1264 232 1268 254 1268 c 0
 278 1268 323 1252.66666667 389 1222 c 256
 434.333333333 1201.33333333 467.333333333 1191.33333333 488 1192 c 0
 524.666666667 1192 547.666666667 1220 557 1276 c 1
 635 1276 l 1
EndSplineSet
Validated: 33
EndChar

StartChar: macron
Encoding: 175 175 367
AltUni2: 0002c9.ffffffff.0
Width: 694
VWidth: 1795
Flags: W
LayerCount: 2
Fore
SplineSet
90 1223 m 1
 604 1223 l 1
 604 1132 l 1
 90 1132 l 1
 90 1223 l 1
EndSplineSet
Validated: 1
EndChar

StartChar: breve
Encoding: 728 728 368
Width: 682
VWidth: 1798
Flags: W
LayerCount: 2
Fore
SplineSet
170 1309 m 1
 185.333333333 1217.66666667 241 1172 337 1172 c 0
 339 1172 339 1172 341 1172 c 256
 435.666666667 1172 493.666666667 1215.66666667 515 1303 c 1
 516 1309 l 1
 592 1309 l 1
 592 1301 l 1
 584 1228.33333333 556.666666667 1173.5 510 1136.5 c 128
 463.333333333 1099.5 404.833333333 1081 334.5 1081 c 128
 264.166666667 1081 207.333333333 1100.33333333 164 1139 c 256
 121.333333333 1177.66666667 96.6666666667 1231.66666667 90 1301 c 1
 90 1309 l 1
 170 1309 l 1
EndSplineSet
Validated: 1
EndChar

StartChar: dotaccent
Encoding: 729 729 369
Width: 304
VWidth: 1795
Flags: W
LayerCount: 2
Fore
SplineSet
90 1272 m 1
 214 1272 l 1
 214 1085 l 1
 90 1085 l 1
 90 1272 l 1
EndSplineSet
Validated: 1
EndChar

StartChar: dieresis
Encoding: 168 168 370
Width: 573
VWidth: 1795
Flags: W
LayerCount: 2
Fore
SplineSet
359 1272 m 1
 483 1272 l 1
 483 1085 l 1
 359 1085 l 1
 359 1272 l 1
90 1272 m 1
 214 1272 l 1
 214 1085 l 1
 90 1085 l 1
 90 1272 l 1
EndSplineSet
Validated: 1
EndChar

StartChar: ring
Encoding: 730 730 371
Width: 530
VWidth: 1810
Flags: W
LayerCount: 2
Fore
SplineSet
266 1160 m 256
 293.333333333 1160 317.333333333 1170.66666667 338 1192 c 256
 359.333333333 1213.33333333 370 1237.33333333 370 1264 c 256
 370 1291.33333333 359.666666667 1316 339 1338 c 256
 318.333333333 1360 294 1371 266 1371 c 256
 238 1371 213.333333333 1360.33333333 192 1339 c 256
 170.666666667 1317.66666667 160 1292.83333333 160 1264.5 c 128
 160 1236.16666667 170.666666667 1211.66666667 192 1191 c 256
 214 1170.33333333 238.666666667 1160 266 1160 c 256
266 1090 m 256
 218 1090 176.666666667 1107.33333333 142 1142 c 256
 107.333333333 1176.66666667 90 1217.66666667 90 1265 c 0
 90 1312.33333333 107.333333333 1353.33333333 142 1388 c 256
 176 1423.33333333 217.333333333 1441 266 1441 c 256
 314 1441 355 1423.33333333 389 1388 c 256
 423 1352.66666667 440 1311.33333333 440 1264 c 256
 440 1217.33333333 422.666666667 1176.66666667 388 1142 c 256
 353.333333333 1107.33333333 312.666666667 1090 266 1090 c 256
EndSplineSet
Validated: 1
EndChar

StartChar: cedilla
Encoding: 184 184 372
Width: 540
VWidth: 1530
Flags: W
LayerCount: 2
Fore
SplineSet
225 -444 m 0
 300.333333333 -444 338 -418.333333333 338 -367 c 0
 338 -350.333333333 330 -337.166666667 314 -327.5 c 128
 298 -317.833333333 282.333333333 -313 267 -313 c 128
 251.666666667 -313 224 -318 184 -328 c 1
 156 -303 l 1
 151 -299 l 1
 256 -155 l 1
 258 -152 l 1
 343 -152 l 1
 267 -248 l 1
 287 -244 301.333333333 -242 310 -242 c 0
 349.333333333 -242 381 -251.666666667 405 -271 c 256
 429 -290.333333333 442.5 -309 445.5 -327 c 128
 448.5 -345 450 -361 450 -375 c 0
 450 -415.666666667 432.333333333 -449.333333333 397 -476 c 128
 361.666666667 -502.666666667 319 -516 269 -516 c 128
 219 -516 162 -505 98 -483 c 1
 90 -481 l 1
 119 -423 l 1
 121 -418 l 1
 173 -435.333333333 207.666666667 -444 225 -444 c 0
EndSplineSet
Validated: 1
EndChar

StartChar: hungarumlaut
Encoding: 733 733 373
Width: 803
VWidth: 1798
Flags: W
LayerCount: 2
Fore
SplineSet
364 1072 m 1
 560 1318 l 1
 562 1320 l 1
 713 1320 l 1
 470 1074 l 1
 467 1072 l 1
 364 1072 l 1
90 1072 m 1
 287 1318 l 1
 289 1320 l 1
 439 1320 l 1
 194 1072 l 1
 90 1072 l 1
EndSplineSet
Validated: 1
EndChar

StartChar: ogonek
Encoding: 731 731 374
Width: 455
VWidth: 1533
Flags: W
LayerCount: 2
Fore
SplineSet
316 -149 m 1
 316 -164 l 1
 226 -209.333333333 181 -256.666666667 181 -306 c 0
 181 -336 191.666666667 -358.5 213 -373.5 c 128
 234.333333333 -388.5 257.166666667 -396 281.5 -396 c 128
 305.833333333 -396 333.666666667 -389.666666667 365 -377 c 1
 365 -467 l 1
 337 -478.333333333 308 -484 278 -484 c 0
 192.666666667 -484 135 -455 105 -397 c 256
 95 -377 90 -350.5 90 -317.5 c 128
 90 -284.5 103.666666667 -252.333333333 131 -221 c 0
 158.333333333 -189.666666667 188.666666667 -165.666666667 222 -149 c 1
 316 -149 l 1
EndSplineSet
Validated: 1
EndChar

StartChar: caron
Encoding: 711 711 375
Width: 707
VWidth: 1798
Flags: W
LayerCount: 2
Fore
SplineSet
489 1320 m 1
 617 1320 l 1
 417 1074 l 1
 415 1072 l 1
 295 1072 l 1
 100 1309 l 1
 90 1320 l 1
 219 1320 l 1
 354 1152 l 1
 487 1318 l 1
 489 1320 l 1
EndSplineSet
Validated: 1
EndChar

StartChar: emdash
Encoding: 8212 8212 376
Width: 1884
VWidth: 1660
Flags: W
LayerCount: 2
Fore
SplineSet
90 366 m 1
 90 455 l 1
 1794 455 l 1
 1794 366 l 1
 90 366 l 1
EndSplineSet
Validated: 1
EndChar

StartChar: AE
Encoding: 198 198 377
Width: 1826
VWidth: 1696
Flags: W
LayerCount: 2
Fore
SplineSet
707 1111 m 1
 437 487 l 1
 890 487 l 1
 890 1111 l 1
 707 1111 l 1
90 0 m 1
 627 1220 l 1
 629 1224 l 1
 1717 1224 l 1
 1717 1111 l 1
 1021 1111 l 1
 1021 693 l 1
 1654 693 l 1
 1654 582 l 1
 1021 582 l 1
 1021 112 l 1
 1736 112 l 1
 1736 0 l 1
 890 0 l 1
 890 382 l 1
 384 382 l 1
 223 4 l 1
 221 0 l 1
 90 0 l 1
EndSplineSet
Validated: 1
EndChar

StartChar: ordfeminine
Encoding: 170 170 378
Width: 730
VWidth: 1773
Flags: W
LayerCount: 2
Fore
SplineSet
491 1059 m 1
 459.666666667 1047.66666667 412.333333333 1039.33333333 349 1034 c 128
 285.666666667 1028.66666667 240 1017.83333333 212 1001.5 c 128
 184 985.166666667 170 961.166666667 170 929.5 c 128
 170 897.833333333 182.5 874.333333333 207.5 859 c 0
 231.833333333 843.666666667 258 836 286 836 c 0
 378 836 440.666666667 864 474 920 c 0
 485.333333333 938.666666667 491 961 491 987 c 2
 491 1059 l 1
640 790 m 1
 613.333333333 779.333333333 583.666666667 776 551 780 c 1
 550 780 l 1
 524.666666667 784 509.166666667 793.166666667 503.5 807.5 c 128
 497.833333333 821.833333333 494 836 492 850 c 1
 438 798 370.666666667 772 290 772 c 2
 287 772 l 2
 198.333333333 772 138 801 106 859 c 256
 95.3333333333 879 90 902.333333333 90 929 c 0
 90 1022.33333333 158 1077.66666667 294 1095 c 2
 386 1107 l 1
 432 1111.66666667 461 1117 473 1123 c 128
 485 1129 491 1145.83333333 491 1173.5 c 128
 491 1201.16666667 480.666666667 1225 460 1245 c 256
 439.333333333 1265 405.666666667 1275 359 1275 c 128
 312.333333333 1275 275.666666667 1267 249 1251 c 128
 222.333333333 1235 204.666666667 1202 196 1152 c 1
 115 1152 l 1
 115 1160 l 1
 121 1224.66666667 146.833333333 1270.66666667 192.5 1298 c 128
 238.166666667 1325.33333333 293.333333333 1339 358 1339 c 0
 459.333333333 1339 524.666666667 1309 554 1249 c 256
 565.333333333 1227 571 1200.33333333 571 1169 c 2
 571 883 l 2
 571 861.666666667 574.333333333 848.666666667 581 844 c 256
 587.666666667 839.333333333 607.333333333 842.333333333 640 853 c 1
 640 790 l 1
EndSplineSet
Validated: 33
EndChar

StartChar: Oslash
Encoding: 216 216 379
Width: 1387
VWidth: 1694
Flags: W
LayerCount: 2
Fore
SplineSet
390 186 m 1
 466 114 565.666666667 78 689 78 c 0
 839.666666667 78 952.5 128.833333333 1027.5 230.5 c 128
 1102.5 332.166666667 1140 452.666666667 1140 592 c 128
 1140 731.333333333 1114.33333333 847 1063 939 c 1
 390 186 l 1
999 1019 m 1
 920.333333333 1101 811.333333333 1142 672 1142 c 128
 532.666666667 1142 425.166666667 1090 349.5 986 c 128
 273.833333333 882 236 758 236 614 c 128
 236 470 265.333333333 351.333333333 324 258 c 1
 999 1019 l 1
1080 1110 m 1
 1221 1271 l 1
 1292 1206 l 1
 1297 1202 l 1
 1150 1032 l 1
 1181.33333333 994.666666667 1209 939.666666667 1233 867 c 0
 1257.66666667 794.333333333 1270 710 1270 614 c 0
 1270.66666667 424 1220.5 267.333333333 1119.5 144 c 128
 1018.5 20.6666666667 874.333333333 -41 687 -41 c 0
 537 -41 411.666666667 2.33333333333 311 89 c 1
 172 -69 l 1
 167 -75 l 1
 96 -12 l 1
 90 -8 l 1
 241 164 l 1
 152.333333333 278 107.666666667 426.666666667 107 610 c 128
 106.333333333 793.333333333 157.166666667 946.5 259.5 1069.5 c 128
 361.833333333 1192.5 499.166666667 1254 671.5 1254 c 128
 843.833333333 1254 980 1206 1080 1110 c 1
EndSplineSet
Validated: 33
EndChar

StartChar: OE
Encoding: 338 338 380
Width: 1773
VWidth: 1696
Flags: W
LayerCount: 2
Fore
SplineSet
953 374 m 2
 953 841 l 2
 953 940.333333333 923.333333333 1015.66666667 864 1067 c 128
 804.666666667 1118.33333333 716.666666667 1144 600 1144 c 128
 483.333333333 1144 390.666666667 1099.33333333 322 1010 c 128
 253.333333333 920.666666667 219 787 219 609 c 0
 219 355.666666667 293.666666667 190.333333333 443 113 c 0
 494.333333333 86.3333333333 549 73 607 73 c 0
 711 73 799.333333333 102.666666667 872 162 c 0
 906 190 928 221.5 938 256.5 c 128
 948 291.5 953 330.666666667 953 374 c 2
958 0 m 1
 958 111 l 1
 910 67 869.333333333 36.3333333333 836 19 c 0
 768.666666667 -15 692 -32 606 -32 c 128
 520 -32 443.5 -14 376.5 22 c 128
 309.5 58 254.666666667 106 212 166 c 0
 130.666666667 280.666666667 90 431 90 617 c 0
 90 803.666666667 131 953.666666667 213 1067 c 0
 303 1192.33333333 435.666666667 1255 611 1255 c 2
 616 1255 l 2
 690 1255 755.833333333 1244.83333333 813.5 1224.5 c 128
 871.166666667 1204.16666667 919.333333333 1166.66666667 958 1112 c 1
 958 1224 l 1
 1666 1224 l 1
 1666 1111 l 1
 1084 1111 l 1
 1084 693 l 1
 1629 693 l 1
 1629 581 l 1
 1084 581 l 1
 1084 112 l 1
 1683 112 l 1
 1683 0 l 1
 958 0 l 1
EndSplineSet
Validated: 1
EndChar

StartChar: ordmasculine
Encoding: 186 186 381
Width: 721
VWidth: 1773
Flags: W
LayerCount: 2
Fore
SplineSet
218 898 m 256
 250.666666667 856.666666667 298 836 360 836 c 128
 422 836 469.333333333 857.666666667 502 901 c 0
 534.666666667 944.333333333 551 996 551 1056 c 0
 551 1158 516.333333333 1225.33333333 447 1258 c 256
 422.333333333 1269.33333333 393.333333333 1275 360 1275 c 0
 298.666666667 1275 251.666666667 1254 219 1212 c 0
 185.666666667 1170 169 1117.5 169 1054.5 c 128
 169 991.5 185.333333333 939.333333333 218 898 c 256
360 772 m 1
 235.333333333 776.666666667 152.333333333 830.333333333 111 933 c 256
 97 966.333333333 90 994.666666667 90 1018 c 2
 90 1056 l 2
 90 1184.66666667 140.333333333 1271.66666667 241 1317 c 256
 275 1331.66666667 314.666666667 1339 360 1339 c 256
 448 1339 516 1311.33333333 564 1256 c 256
 608.666666667 1206 631 1138.83333333 631 1054.5 c 128
 631 970.166666667 606.333333333 902 557 850 c 256
 507.666666667 798 442 772 360 772 c 1
EndSplineSet
Validated: 1
EndChar

StartChar: ae
Encoding: 230 230 382
Width: 1574
VWidth: 1660
Flags: W
LayerCount: 2
Fore
SplineSet
818 469 m 1
 1361 469 l 1
 1359.66666667 552.333333333 1337 622.333333333 1293 679 c 0
 1249 735.666666667 1186 764 1104 764 c 2
 1099 764 l 2
 1003 764 930 728.666666667 880 658 c 0
 840.666666667 604 820 541 818 469 c 1
694 316 m 2
 694 422 l 1
 658 404 592.333333333 389.666666667 497 379 c 0
 401.666666667 368.333333333 338.333333333 356.333333333 307 343 c 0
 243.666666667 316.333333333 212 273.333333333 212 214 c 0
 212 102 269.333333333 46 384 46 c 0
 386 46 386 46 388 46 c 0
 490 46 566.5 70.8333333333 617.5 120.5 c 128
 668.5 170.166666667 694 235.333333333 694 316 c 2
1097 -60 m 0
 946.333333333 -60 831.666666667 2.33333333333 753 127 c 1
 713.666666667 73.6666666667 676 35 640 11 c 0
 567.333333333 -36.3333333333 480.666666667 -60 380 -60 c 0
 246 -60 157 -13.6666666667 113 79 c 0
 98.3333333333 111 90.6666666667 148.333333333 90 191 c 0
 90 269 115.666666667 332.5 167 381.5 c 128
 218.333333333 430.5 296.666666667 460.666666667 402 472 c 1
 499 481 l 1
 585 489.666666667 636.666666667 499.5 654 510.5 c 128
 671.333333333 521.5 682.333333333 532.166666667 687 542.5 c 128
 691.666666667 552.833333333 694 566 694 582 c 0
 694 653.333333333 678.5 701.5 647.5 726.5 c 128
 616.5 751.5 564.333333333 764 491 764 c 0
 488 764 488 764 485 764 c 0
 417.666666667 764 363 750.166666667 321 722.5 c 128
 279 694.833333333 254 646.333333333 246 577 c 1
 245 571 l 1
 126 571 l 1
 134 634.333333333 146.333333333 682.666666667 163 716 c 0
 197.666666667 782.666666667 259 828.333333333 347 853 c 0
 389 864.333333333 433.666666667 870 481 870 c 0
 643.666666667 870 747.666666667 824.333333333 793 733 c 1
 831.666666667 785 875.833333333 820.833333333 925.5 840.5 c 128
 975.166666667 860.166666667 1035.83333333 870 1107.5 870 c 128
 1179.16666667 870 1239.66666667 857 1289 831 c 0
 1382.33333333 781.666666667 1441.66666667 695.666666667 1467 573 c 0
 1478.33333333 515 1484 452.333333333 1484 385 c 2
 1484 378 l 1
 818 378 l 1
 820 225.333333333 872.333333333 123.666666667 975 73 c 0
 1011 55 1058.5 46 1117.5 46 c 128
 1176.5 46 1227 63.5 1269 98.5 c 128
 1311 133.5 1340 181.666666667 1356 243 c 1
 1357 249 l 1
 1478 249 l 1
 1455.33333333 148.333333333 1411.83333333 71.6666666667 1347.5 19 c 128
 1283.16666667 -33.6666666667 1199.66666667 -60 1097 -60 c 0
EndSplineSet
Validated: 1
EndChar

StartChar: dotlessi
Encoding: 305 305 383
Width: 296
VWidth: 1660
Flags: W
LayerCount: 2
Fore
SplineSet
90 -44 m 1
 90 846 l 1
 206 846 l 1
 206 -44 l 1
 90 -44 l 1
EndSplineSet
Validated: 1
EndChar

StartChar: oslash
Encoding: 248 248 384
Width: 1035
VWidth: 1660
Flags: W
LayerCount: 2
Fore
SplineSet
713 695 m 1
 669 741 607 764 527 764 c 0
 524 764 524 764 521 764 c 0
 418.333333333 764 342 726.666666667 292 652 c 0
 246.666666667 586 224 504.333333333 224 407 c 2
 224 362 l 2
 224 334.666666667 228.666666667 303.666666667 238 269 c 128
 247.333333333 234.333333333 258 206.333333333 270 185 c 1
 713 695 l 1
324 115 m 1
 374 69 439.666666667 46 521 46 c 0
 622.333333333 46 697.333333333 81 746 151 c 128
 794.666666667 221 819 304.666666667 819 402 c 128
 819 499.333333333 803.333333333 575 772 629 c 1
 324 115 l 1
521 -60 m 0
 415 -60 325.666666667 -30.3333333333 253 29 c 1
 166 -73 l 1
 161 -78 l 1
 96 -25 l 1
 90 -21 l 1
 188 95 l 1
 131.333333333 173 102.666666667 277.166666667 102 407.5 c 128
 101.333333333 537.833333333 136.833333333 647.5 208.5 736.5 c 128
 280.166666667 825.5 384.333333333 870 521 870 c 0
 629.666666667 870 718.666666667 841 788 783 c 1
 871 882 l 1
 875 888 l 1
 940 830 l 1
 945 826 l 1
 851 716 l 1
 911 634 941 527 941 395 c 128
 941 263 904.833333333 154.166666667 832.5 68.5 c 128
 760.166666667 -17.1666666667 656.333333333 -60 521 -60 c 0
EndSplineSet
Validated: 33
EndChar

StartChar: oe
Encoding: 339 339 385
Width: 1675
VWidth: 1660
Flags: W
LayerCount: 2
Fore
SplineSet
916 469 m 1
 1463 469 l 1
 1461 606.333333333 1413.33333333 697 1320 741 c 0
 1286.66666667 756.333333333 1247.66666667 764 1203 764 c 0
 1075 764 987.333333333 702.333333333 940 579 c 0
 926.666666667 544.333333333 918.666666667 507.666666667 916 469 c 1
283 666.5 m 128
 236.333333333 601.5 213 516 213 410 c 2
 213 359 l 2
 213 332.333333333 218.666666667 298.166666667 230 256.5 c 128
 241.333333333 214.833333333 259 178.666666667 283 148 c 0
 334.333333333 80 406.5 46 499.5 46 c 128
 592.5 46 664 79.6666666667 714 147 c 128
 764 214.333333333 789.333333333 302.333333333 790 411 c 128
 790.666666667 519.666666667 765.166666667 605.666666667 713.5 669 c 128
 661.833333333 732.333333333 588.833333333 764 494.5 764 c 128
 400.166666667 764 329.666666667 731.5 283 666.5 c 128
854 667 m 1
 930.666666667 802.333333333 1044.16666667 870 1194.5 870 c 128
 1344.83333333 870 1451.33333333 820 1514 720 c 0
 1561.33333333 644.666666667 1585 533 1585 385 c 2
 1585 378 l 1
 915 378 l 1
 914.333333333 372 914 361.333333333 914 346 c 0
 914.666666667 282.666666667 933.666666667 223.333333333 971 168 c 0
 1026.33333333 86.6666666667 1105.33333333 46 1208 46 c 0
 1271.33333333 46 1325.66666667 64 1371 100 c 0
 1415.66666667 136 1444 183.666666667 1456 243 c 1
 1458 249 l 1
 1575 249 l 1
 1574 240 l 1
 1553.33333333 142.666666667 1510.5 68.3333333333 1445.5 17 c 128
 1380.5 -34.3333333333 1302.5 -60 1211.5 -60 c 128
 1120.5 -60 1045.83333333 -40 987.5 0 c 128
 929.166666667 40 884.333333333 88 853 144 c 1
 817.666666667 78 768.333333333 27.5 705 -7.5 c 128
 641.666666667 -42.5 575 -60 505 -60 c 0
 373 -60 270.833333333 -18 198.5 66 c 128
 126.166666667 150 90 261.333333333 90 400 c 128
 90 538.666666667 123.833333333 651.666666667 191.5 739 c 128
 259.166666667 826.333333333 361 870 497 870 c 0
 663.666666667 870 782.666666667 802.333333333 854 667 c 1
EndSplineSet
Validated: 33
EndChar

StartChar: germandbls
Encoding: 223 223 386
Width: 897
VWidth: 1696
Flags: W
LayerCount: 2
Fore
SplineSet
438 -31 m 2
 415 -31 l 2
 400.333333333 -31 382 -27.3333333333 360 -20 c 1
 360 83 l 1
 454.666666667 64.3333333333 532.333333333 78 593 124 c 128
 653.666666667 170 684 243.166666667 684 343.5 c 128
 684 443.833333333 660 516 612 560 c 0
 562.666666667 604 481.333333333 626 368 626 c 2
 360 626 l 1
 360 725 l 1
 368 725 l 1
 456 727.666666667 523.333333333 744.333333333 570 775 c 0
 616 805.666666667 639 854 639 920 c 128
 639 986 623 1039.66666667 591 1081 c 0
 558.333333333 1121.66666667 509.5 1142 444.5 1142 c 128
 379.5 1142 333 1136.33333333 305 1125 c 0
 252.333333333 1103.66666667 221.666666667 1062.33333333 213 1001 c 0
 208.333333333 971 206 937.666666667 206 901 c 2
 206 0 l 1
 90 0 l 1
 90 919 l 2
 90 1137.66666667 199.333333333 1247 418 1247 c 0
 578.666666667 1247.66666667 685 1185.33333333 737 1060 c 0
 753 1020 761 973.666666667 761 921 c 128
 761 868.333333333 748.333333333 823.166666667 723 785.5 c 128
 697.666666667 747.833333333 665.666666667 713.666666667 627 683 c 1
 712.333333333 647.666666667 768.333333333 578 795 474 c 0
 803 442 807 410 807 378 c 0
 807 244 775.166666667 142.333333333 711.5 73 c 128
 647.833333333 3.66666666667 556.666666667 -31 438 -31 c 2
EndSplineSet
Validated: 33
EndChar

StartChar: degree
Encoding: 176 176 387
Width: 701
VWidth: 1766
Flags: W
LayerCount: 2
Fore
SplineSet
476 888 m 256
 511.333333333 924.666666667 529 967 529 1015 c 0
 529 1063 511.333333333 1104.66666667 476 1140 c 256
 440.666666667 1175.33333333 400 1193 354 1193 c 2
 349 1193 l 258
 301 1193 259.333333333 1175.33333333 224 1140 c 256
 189.333333333 1106.66666667 172 1071.33333333 172 1034 c 0
 172 942.666666667 208.333333333 881 281 849 c 256
 301 840.333333333 317.333333333 836 330 836 c 2
 351 836 l 2
 401 836 442.666666667 853.333333333 476 888 c 256
611 1015 m 256
 611 941 585.333333333 879.666666667 534 831 c 256
 481.333333333 779.666666667 420.333333333 754 351 754 c 256
 279 754 217.333333333 779.666666667 166 831 c 256
 115.333333333 883 90 945 90 1017 c 0
 90 1088.33333333 115.333333333 1148.66666667 166 1198 c 256
 216 1249.33333333 276 1275 346 1275 c 2
 351 1275 l 2
 423 1275 484 1249.33333333 534 1198 c 256
 585.333333333 1146.66666667 611 1085.66666667 611 1015 c 256
EndSplineSet
Validated: 1
EndChar

StartChar: oacute
Encoding: 243 243 388
Width: 1020
VWidth: 1692
Flags: W
LayerCount: 2
Fore
SplineSet
394 959 m 1
 599 1205 l 1
 601 1208 l 1
 756 1208 l 1
 502 959 l 1
 394 959 l 1
739 189 m 0
 784.333333333 253.666666667 807 333.666666667 807 429 c 2
 807 473 l 2
 807 499.666666667 801.666666667 535 791 579 c 0
 753.666666667 724.333333333 659.666666667 797 509 797 c 0
 407 797 332 762.5 284 693.5 c 128
 236 624.5 212 537 212 431 c 128
 212 325 237.166666667 239.666666667 287.5 175 c 128
 337.833333333 110.333333333 413.333333333 78 514 78 c 128
 614.666666667 78 689.666666667 115 739 189 c 0
509 -28 m 1
 315 -23.3333333333 186 64.3333333333 122 235 c 0
 100.666666667 293 90 357.333333333 90 428 c 0
 90 646 167.333333333 791.666666667 322 865 c 0
 375.333333333 889.666666667 438 902 510 902 c 128
 582 902 644.666666667 889.666666667 698 865 c 0
 852.666666667 792.333333333 930 648 930 432 c 0
 930 296.666666667 892.666666667 186.166666667 818 100.5 c 128
 743.333333333 14.8333333333 640.333333333 -28 509 -28 c 1
EndSplineSet
Validated: 1
EndChar

StartChar: Odieresis
Encoding: 214 214 389
Width: 1342
VWidth: 1723
Flags: W
LayerCount: 2
Fore
SplineSet
756 1534 m 1
 883 1534 l 1
 883 1348 l 1
 756 1348 l 1
 756 1534 l 1
482 1534 m 1
 609 1534 l 1
 609 1348 l 1
 482 1348 l 1
 482 1534 l 1
1003 1028 m 0
 921.666666667 1122.66666667 808.333333333 1170 663 1170 c 0
 517.666666667 1170 407.333333333 1118.66666667 332 1016 c 0
 256.666666667 913.333333333 219 785.666666667 219 633 c 128
 219 480.333333333 256.333333333 353.333333333 331 252 c 128
 405.666666667 150.666666667 518.666666667 100 670 100 c 128
 821.333333333 100 934.666666667 151 1010 253 c 128
 1085.33333333 355 1123 485.5 1123 644.5 c 128
 1123 803.5 1083 931.333333333 1003 1028 c 0
90 633 m 128
 90 818.333333333 140 973 240 1097 c 0
 340 1220.33333333 483.666666667 1282 671 1282 c 0
 858.333333333 1282 1002 1221 1102 1099 c 0
 1202 977 1252 824 1252 640 c 2
 1252 633 l 2
 1252 447.666666667 1202 294 1102 172 c 0
 1002 49.3333333333 858.333333333 -12 671 -12 c 0
 670.333333333 -12 669.333333333 -12.3333333333 668 -13 c 0
 482 -13 339.166666667 48.3333333333 239.5 171 c 128
 139.833333333 293.666666667 90 447.666666667 90 633 c 128
EndSplineSet
Validated: 1
EndChar

StartChar: odieresis
Encoding: 246 246 390
Width: 1020
VWidth: 1688
Flags: W
LayerCount: 2
Fore
SplineSet
596 1158 m 1
 723 1158 l 1
 723 971 l 1
 596 971 l 1
 596 1158 l 1
316 1158 m 1
 445 1158 l 1
 445 971 l 1
 316 971 l 1
 316 1158 l 1
807 424 m 2
 807 468 l 2
 807 494.666666667 801.666666667 530 791 574 c 0
 753.666666667 719.333333333 659.666666667 792 509 792 c 0
 406.333333333 792 331.166666667 757.5 283.5 688.5 c 128
 235.833333333 619.5 212 532 212 426 c 128
 212 320 237.166666667 234.666666667 287.5 170 c 128
 337.833333333 105.333333333 413.333333333 73 514 73 c 128
 614.666666667 73 688.666666667 108 736 178 c 128
 783.333333333 248 807 330 807 424 c 2
509 -33 m 1
 315 -28.3333333333 186 59.3333333333 122 230 c 0
 100.666666667 288 90 352.333333333 90 423 c 0
 90 641 167.333333333 786.666666667 322 860 c 0
 375.333333333 884.666666667 438 897.166666667 510 897.5 c 128
 582 897.833333333 644.666666667 885.333333333 698 860 c 0
 852.666666667 786.666666667 930 644 930 432 c 0
 930 293.333333333 892.666666667 181.5 818 96.5 c 128
 743.333333333 11.5 640.333333333 -31.6666666667 509 -33 c 1
EndSplineSet
Validated: 33
EndChar

StartChar: Ecircumflex
Encoding: 202 202 391
Width: 1034
VWidth: 1731
Flags: W
LayerCount: 2
Fore
SplineSet
349 1339 m 1
 220 1339 l 1
 426 1585 l 1
 428 1588 l 1
 553 1588 l 1
 761 1339 l 1
 630 1339 l 1
 490 1507 l 1
 351 1341 l 1
 349 1339 l 1
90 35 m 1
 90 1259 l 1
 928 1259 l 1
 928 1146 l 1
 219 1146 l 1
 219 728 l 1
 860 728 l 1
 860 616 l 1
 219 616 l 1
 219 147 l 1
 944 147 l 1
 944 35 l 1
 90 35 l 1
EndSplineSet
Validated: 1
EndChar

StartChar: ucircumflex
Encoding: 251 251 392
Width: 903
VWidth: 1692
Flags: W
LayerCount: 2
Fore
SplineSet
319 959 m 1
 191 959 l 1
 396 1205 l 1
 398 1208 l 1
 526 1208 l 1
 732 959 l 1
 604 959 l 1
 462 1127 l 1
 321 962 l 1
 319 959 l 1
697 879 m 1
 813 879 l 1
 813 -4 l 1
 697 -4 l 1
 697 104 l 1
 661.666666667 66.6666666667 631.666666667 40 607 24 c 0
 551.666666667 -10.6666666667 490 -28 422 -28 c 0
 300 -28 214.166666667 1.66666666667 164.5 61 c 128
 114.833333333 120.333333333 90 199.666666667 90 299 c 2
 90 879 l 1
 205 879 l 1
 205 302 l 2
 205 229.333333333 221.833333333 173.833333333 255.5 135.5 c 128
 289.166666667 97.1666666667 347 78 429 78 c 0
 557 78 640.333333333 141.666666667 679 269 c 0
 691 308.333333333 697 351.666666667 697 399 c 2
 697 879 l 1
EndSplineSet
Validated: 1
EndChar

StartChar: logicalnot
Encoding: 172 172 393
Width: 1040
VWidth: 1655
Flags: W
LayerCount: 2
Fore
SplineSet
827 496 m 1
 90 496 l 1
 90 611 l 1
 950 611 l 1
 950 148 l 1
 827 148 l 1
 827 496 l 1
EndSplineSet
Validated: 1
EndChar

StartChar: Edieresis
Encoding: 203 203 394
Width: 1034
VWidth: 1726
Flags: W
LayerCount: 2
Fore
SplineSet
289 1538 m 1
 416 1538 l 1
 416 1351 l 1
 289 1351 l 1
 289 1538 l 1
566 1538 m 1
 696 1538 l 1
 696 1351 l 1
 566 1351 l 1
 566 1538 l 1
90 30 m 1
 90 1254 l 1
 928 1254 l 1
 928 1142 l 1
 219 1142 l 1
 219 723 l 1
 860 723 l 1
 860 612 l 1
 219 612 l 1
 219 142 l 1
 944 142 l 1
 944 30 l 1
 90 30 l 1
EndSplineSet
Validated: 1
EndChar

StartChar: Otilde
Encoding: 213 213 395
Width: 1342
VWidth: 1723
Flags: W
LayerCount: 2
Fore
SplineSet
404 1351 m 1
 410 1396.33333333 422 1432.33333333 440 1459 c 0
 472.666666667 1506.33333333 515 1530 567 1530 c 0
 592.333333333 1530 617.666666667 1524.5 643 1513.5 c 128
 668.333333333 1502.5 697 1489.66666667 729 1475 c 128
 761 1460.33333333 788.5 1453 811.5 1453 c 128
 834.5 1453 851 1461.83333333 861 1479.5 c 128
 871 1497.16666667 878 1516.66666667 882 1538 c 1
 961 1538 l 1
 959 1520.66666667 956.666666667 1506.66666667 954 1496 c 128
 951.333333333 1485.33333333 949 1475 947 1465 c 1
 946 1464 l 1
 912.666666667 1393.33333333 873.333333333 1358 828 1358 c 128
 782.666666667 1358 732.666666667 1370.66666667 678 1396 c 128
 623.333333333 1421.33333333 584 1434 560 1434 c 128
 536 1434 519.833333333 1427.83333333 511.5 1415.5 c 128
 503.166666667 1403.16666667 492.666666667 1381.66666667 480 1351 c 1
 404 1351 l 1
1017 261 m 0
 1087.66666667 357.666666667 1123 485.5 1123 644.5 c 128
 1123 803.5 1083 931.333333333 1003 1028 c 0
 921 1123.33333333 807.5 1171 662.5 1171 c 128
 517.5 1171 407.333333333 1119.5 332 1016.5 c 128
 256.666666667 913.5 219 785.666666667 219 633 c 128
 219 480.333333333 256.333333333 353.333333333 331 252 c 128
 405.666666667 150.666666667 518.5 100 669.5 100 c 128
 820.5 100 936.333333333 153.666666667 1017 261 c 0
1252 640 m 2
 1252 633 l 2
 1252 449 1202 295.5 1102 172.5 c 128
 1002 49.5 857.833333333 -12 669.5 -12 c 128
 481.166666667 -12 337.5 49.3333333333 238.5 172 c 128
 139.5 294.666666667 90 448.833333333 90 634.5 c 128
 90 820.166666667 140 974.5 240 1097.5 c 128
 340 1220.5 483.666666667 1282 671 1282 c 128
 858.333333333 1282 1002 1221.16666667 1102 1099.5 c 128
 1202 977.833333333 1252 824.666666667 1252 640 c 2
EndSplineSet
Validated: 1
EndChar

StartChar: uacute
Encoding: 250 250 396
Width: 903
VWidth: 1692
Flags: W
LayerCount: 2
Fore
SplineSet
334 959 m 1
 544 1205 l 1
 546 1208 l 1
 698 1208 l 1
 445 959 l 1
 334 959 l 1
697 879 m 1
 813 879 l 1
 813 -4 l 1
 697 -4 l 1
 697 104 l 1
 661.666666667 66.6666666667 631.666666667 40 607 24 c 0
 551.666666667 -10.6666666667 490 -28 422 -28 c 0
 300 -28 214.166666667 1.66666666667 164.5 61 c 128
 114.833333333 120.333333333 90 199.666666667 90 299 c 2
 90 879 l 1
 205 879 l 1
 205 302 l 2
 205 229.333333333 221.833333333 173.833333333 255.5 135.5 c 128
 289.166666667 97.1666666667 347 78 429 78 c 0
 557 78 640.333333333 141.666666667 679 269 c 0
 691 308.333333333 697 351.666666667 697 399 c 2
 697 879 l 1
EndSplineSet
Validated: 1
EndChar

StartChar: eacute
Encoding: 233 233 397
Width: 996
VWidth: 1692
Flags: W
LayerCount: 2
Fore
SplineSet
382 959 m 1
 587 1205 l 1
 590 1208 l 1
 744 1208 l 1
 490 959 l 1
 382 959 l 1
213 502 m 1
 783 502 l 1
 781 636 729.666666667 726.333333333 629 773 c 0
 593.666666667 789 553 797 507 797 c 0
 379.666666667 797 290.666666667 734.666666667 240 610 c 0
 226.666666667 576 217.666666667 540 213 502 c 1
906 423 m 2
 906 407 l 1
 212 407 l 1
 214 256.333333333 268.666666667 155.666666667 376 105 c 0
 414 87 462.333333333 78 521 78 c 128
 579.666666667 78 633.333333333 95.6666666667 682 131 c 0
 730.666666667 166.333333333 761 215.666666667 773 279 c 1
 901 279 l 1
 883 225 864.666666667 181.333333333 846 148 c 0
 779.333333333 30.6666666667 670.666666667 -28 520 -28 c 0
 368.666666667 -28 258 17 188 107 c 0
 122.666666667 188.333333333 90 296 90 430 c 0
 90 564.666666667 127 677 201 767 c 0
 275 857 376.333333333 902 505 902 c 128
 633.666666667 902 732.666666667 860.333333333 802 777 c 128
 871.333333333 693.666666667 906 575.666666667 906 423 c 2
EndSplineSet
Validated: 1
EndChar

StartChar: iacute
Encoding: 237 237 398
Width: 529
VWidth: 1695
Flags: W
LayerCount: 2
Fore
SplineSet
288 1210 m 1
 439 1210 l 1
 193 962 l 1
 90 962 l 1
 288 1210 l 1
173 881 m 1
 289 881 l 1
 289 -1 l 1
 173 -1 l 1
 173 881 l 1
EndSplineSet
Validated: 1
EndChar

StartChar: icircumflex
Encoding: 238 238 399
Width: 707
VWidth: 1695
Flags: W
LayerCount: 2
Fore
SplineSet
90 962 m 1
 291 1210 l 1
 416 1210 l 1
 617 962 l 1
 487 962 l 1
 353 1132 l 1
 218 962 l 1
 90 962 l 1
317 881 m 1
 433 881 l 1
 433 -1 l 1
 317 -1 l 1
 317 881 l 1
EndSplineSet
Validated: 1
EndChar

StartChar: registered
Encoding: 174 174 400
Width: 1474
VWidth: 1696
Flags: W
LayerCount: 2
Fore
SplineSet
803 664 m 2
 911 664 965 702.666666667 965 780 c 0
 965 831.333333333 949.166666667 864.833333333 917.5 880.5 c 128
 885.833333333 896.166666667 844.333333333 904 793 904 c 2
 596 904 l 1
 596 664 l 1
 803 664 l 2
1074 784 m 0
 1074 660 1001 592.666666667 855 582 c 1
 1071 251 l 1
 949 251 l 1
 745 581 l 1
 596 581 l 1
 596 251 l 1
 493 251 l 1
 493 980 l 1
 813 980 l 2
 909.666666667 980 977.333333333 962.666666667 1016 928 c 256
 1054.66666667 893.333333333 1074 845.333333333 1074 784 c 0
739 66 m 256
 891.666666667 66 1018.33333333 119.333333333 1119 226 c 256
 1219 332 1269 462 1269 616 c 128
 1269 770 1219 900 1119 1006 c 256
 1019.66666667 1111.33333333 892.5 1164 737.5 1164 c 128
 582.5 1164 455.333333333 1111.33333333 356 1006 c 256
 255.333333333 901.333333333 205 771.333333333 205 616 c 128
 205 460.666666667 255.333333333 330.666666667 356 226 c 256
 458.666666667 119.333333333 586.333333333 66 739 66 c 256
990 19 m 256
 912 -15 828.166666667 -32 738.5 -32 c 128
 648.833333333 -32 564.666666667 -15 486 19 c 256
 325.333333333 88.3333333333 210.333333333 203.333333333 141 364 c 256
 107 442.666666667 90 526.833333333 90 616.5 c 128
 90 706.166666667 107 790 141 868 c 256
 209 1026 324 1140.66666667 486 1212 c 256
 563.333333333 1245.33333333 646 1262 734 1262 c 2
 739 1262 l 2
 917.666666667 1262 1070 1199 1196 1073 c 256
 1254.66666667 1015 1300.66666667 946.666666667 1334 868 c 256
 1367.33333333 789.333333333 1384 705.333333333 1384 616 c 128
 1384 526.666666667 1367.33333333 442.666666667 1334 364 c 256
 1266 204 1151.33333333 89 990 19 c 256
EndSplineSet
Validated: 1
EndChar

StartChar: Atilde
Encoding: 195 195 401
Width: 1289
VWidth: 1727
Flags: W
LayerCount: 2
Fore
SplineSet
785 1457 m 0
 822.333333333 1457 845.666666667 1485.33333333 855 1542 c 1
 935 1542 l 1
 931.666666667 1514 926.333333333 1489.33333333 919 1468 c 1
 919 1467 l 1
 884.333333333 1396.33333333 842.333333333 1361 793 1361 c 0
 762.333333333 1361 736.166666667 1365.16666667 714.5 1373.5 c 128
 692.833333333 1381.83333333 662.833333333 1394.5 624.5 1411.5 c 128
 586.166666667 1428.5 555.166666667 1437 531.5 1437 c 128
 507.833333333 1437 492 1431.16666667 484 1419.5 c 128
 476 1407.83333333 465.666666667 1386.33333333 453 1355 c 1
 377 1355 l 1
 387.666666667 1439.66666667 423.333333333 1495.33333333 484 1522 c 0
 501.333333333 1530 517.666666667 1534 533 1534 c 0
 547.666666667 1534 562.333333333 1532.33333333 577 1529 c 0
 594.333333333 1525 627.666666667 1512 677 1490 c 128
 726.333333333 1468 762.333333333 1457 785 1457 c 0
646 1136 m 1
 413 525 l 1
 880 525 l 1
 646 1136 l 1
90 30 m 1
 577 1250 l 1
 579 1254 l 1
 722 1254 l 1
 1196 40 l 1
 1199 30 l 1
 1066 30 l 1
 925 412 l 1
 368 412 l 1
 225 35 l 1
 223 30 l 1
 90 30 l 1
EndSplineSet
Validated: 1
EndChar

StartChar: Aacute
Encoding: 193 193 402
Width: 1289
VWidth: 1731
Flags: W
LayerCount: 2
Fore
SplineSet
531 1339 m 1
 733 1585 l 1
 735 1588 l 1
 888 1588 l 1
 638 1339 l 1
 531 1339 l 1
646 1140 m 1
 413 529 l 1
 880 529 l 1
 646 1140 l 1
90 35 m 1
 579 1259 l 1
 722 1259 l 1
 1196 44 l 1
 1199 35 l 1
 1066 35 l 1
 925 417 l 1
 368 417 l 1
 225 39 l 1
 223 35 l 1
 90 35 l 1
EndSplineSet
Validated: 1
EndChar

StartChar: Ccedilla
Encoding: 199 199 403
Width: 1262
VWidth: 1663
Flags: W
LayerCount: 2
Fore
SplineSet
684 -242 m 0
 684 -225.333333333 675.833333333 -212.166666667 659.5 -202.5 c 128
 643.166666667 -192.833333333 626.833333333 -188 610.5 -188 c 128
 594.166666667 -188 566 -193 526 -203 c 1
 498 -178 l 1
 493 -174 l 1
 570 -71 l 1
 408.666666667 -58.3333333333 288.666666667 7.33333333333 210 126 c 0
 131.333333333 244 91.3333333333 393.333333333 90 574 c 0
 90 795.333333333 145 962 255 1074 c 0
 352.333333333 1172.66666667 491.333333333 1222 672 1222 c 0
 876.666666667 1222 1019.66666667 1147.66666667 1101 999 c 0
 1131 943.666666667 1150 885 1158 823 c 1
 1025 823 l 1
 1004.33333333 925 961.333333333 998.333333333 896 1043 c 128
 830.666666667 1087.66666667 753.333333333 1110 664 1110 c 0
 575.333333333 1110 504.333333333 1095.33333333 451 1066 c 0
 297.666666667 982 220.666666667 818.666666667 220 576 c 0
 220 333.333333333 294 170 442 86 c 0
 497.333333333 54.6666666667 559 39 627 39 c 0
 795 38.3333333333 915 104 987 236 c 0
 1008.33333333 276 1024.66666667 320 1036 368 c 1
 1038 373 l 1
 1172 373 l 1
 1138 236.333333333 1085 132.666666667 1013 62 c 0
 925.666666667 -24 805.666666667 -68.6666666667 653 -72 c 1
 611 -122 l 1
 627.666666667 -118.666666667 649.166666667 -117 675.5 -117 c 128
 701.833333333 -117 727.333333333 -126.666666667 752 -146 c 128
 776.666666667 -165.333333333 790.833333333 -183.833333333 794.5 -201.5 c 128
 798.166666667 -219.166666667 800 -235.333333333 800 -250 c 0
 800 -290 781.666666667 -323.333333333 745 -350 c 0
 708.333333333 -377.333333333 664 -391 612 -391 c 128
 560 -391 502 -380 438 -358 c 1
 430 -356 l 1
 460 -298 l 1
 462 -293 l 1
 471.333333333 -294.333333333 488.166666667 -299 512.5 -307 c 128
 536.833333333 -315 557 -319 573 -319 c 0
 647.666666667 -319 684.666666667 -293.333333333 684 -242 c 0
EndSplineSet
Validated: 33
EndChar

StartChar: ntilde
Encoding: 241 241 404
Width: 903
VWidth: 1690
Flags: W
LayerCount: 2
Fore
SplineSet
743 1164 m 1
 742.333333333 1158.66666667 737.666666667 1134.33333333 729 1091 c 1
 729 1090 l 1
 728 1089 l 1
 695.333333333 1019 652.333333333 984 599 984 c 2
 596 984 l 2
 559.333333333 984 514 996.333333333 460 1021 c 0
 366 1064.33333333 307.666666667 1069.66666667 285 1037 c 0
 281 1031 272 1011 258 977 c 1
 184 977 l 1
 190 1022.33333333 201.666666667 1059.33333333 219 1088 c 1
 220 1088 l 1
 253.333333333 1133.33333333 294.666666667 1156 344 1156 c 0
 372.666666667 1156 416.666666667 1143 476 1117 c 128
 535.333333333 1091 575.333333333 1078.66666667 596 1080 c 0
 632.666666667 1080 655.666666667 1108 665 1164 c 1
 743 1164 l 1
205 -13 m 1
 90 -13 l 1
 90 877 l 1
 205 877 l 1
 205 765 l 1
 242.333333333 803 282.666666667 835.166666667 326 861.5 c 128
 369.333333333 887.833333333 422 901 484 901 c 0
 615.333333333 901 710 858 768 772 c 0
 790 740 803 707 807 673 c 128
 811 639 813 603.666666667 813 567 c 2
 813 -13 l 1
 697 -13 l 1
 697 565 l 2
 697 641.666666667 680.333333333 699.166666667 647 737.5 c 128
 613.666666667 775.833333333 553.5 795 466.5 795 c 0
 380.166666667 795.666666667 311.666666667 761.333333333 261 692 c 0
 231 650.666666667 213.666666667 603 209 549 c 0
 206.333333333 523.666666667 205 495.666666667 205 465 c 2
 205 -13 l 1
EndSplineSet
Validated: 33
EndChar

StartChar: Aring
Encoding: 197 197 405
Width: 1289
VWidth: 1743
Flags: W
LayerCount: 2
Fore
SplineSet
606 1458 m 128
 628 1437.33333333 653 1427 681 1427 c 128
 709 1427 733.833333333 1437.66666667 755.5 1459 c 128
 777.166666667 1480.33333333 788 1504.5 788 1531.5 c 128
 788 1558.5 777.333333333 1582.83333333 756 1604.5 c 128
 734.666666667 1626.16666667 709.666666667 1637 681 1637 c 128
 652.333333333 1637 627.166666667 1626.5 605.5 1605.5 c 128
 583.833333333 1584.5 573 1559.83333333 573 1531.5 c 128
 573 1503.16666667 584 1478.66666667 606 1458 c 128
749.5 1371 m 128
 727.833333333 1361.66666667 705 1357 681 1357 c 128
 657 1357 633.666666667 1361.66666667 611 1371 c 0
 567.666666667 1389 535.666666667 1420 515 1464 c 0
 505 1485.33333333 500 1507.83333333 500 1531.5 c 128
 500 1555.16666667 505 1577.5 515 1598.5 c 128
 525 1619.5 538.333333333 1638.16666667 555 1654.5 c 128
 571.666666667 1670.83333333 590.833333333 1683.83333333 612.5 1693.5 c 128
 634.166666667 1703.16666667 657 1708 681 1708 c 128
 705 1708 727.666666667 1703.33333333 749 1694 c 0
 793 1674 825 1642.33333333 845 1599 c 0
 855 1577.66666667 860 1555.16666667 860 1531.5 c 128
 860 1507.83333333 855.166666667 1485.5 845.5 1464.5 c 128
 835.833333333 1443.5 822.833333333 1425 806.5 1409 c 128
 790.166666667 1393 771.166666667 1380.33333333 749.5 1371 c 128
646 1152 m 1
 413 541 l 1
 880 541 l 1
 646 1152 l 1
90 46 m 1
 577 1266 l 1
 579 1270 l 1
 722 1270 l 1
 1196 56 l 1
 1199 46 l 1
 1066 46 l 1
 925 428 l 1
 368 428 l 1
 225 51 l 1
 223 46 l 1
 90 46 l 1
EndSplineSet
Validated: 1
EndChar

StartChar: mu
Encoding: 181 181 406
AltUni2: 0003bc.ffffffff.0
Width: 890
VWidth: 1624
Flags: W
LayerCount: 2
Fore
SplineSet
206 -48 m 1
 206 -418 l 1
 90 -418 l 1
 90 817 l 1
 206 817 l 1
 206 235 l 2
 206 161.666666667 222.833333333 105.666666667 256.5 67 c 128
 290.166666667 28.3333333333 346.333333333 9 425 9 c 0
 503.666666667 9 566.333333333 38.6666666667 613 98 c 0
 659 157.333333333 682.666666667 235.666666667 684 333 c 1
 684 817 l 1
 800 817 l 1
 800 -73 l 1
 684 -73 l 1
 684 37 l 1
 647.333333333 -2.33333333333 617 -29.6666666667 593 -45 c 0
 539 -79.6666666667 475.5 -97 402.5 -97 c 128
 329.5 -97 264 -80.6666666667 206 -48 c 1
EndSplineSet
Validated: 1
EndChar

StartChar: Ugrave
Encoding: 217 217 407
Width: 1152
VWidth: 1728
Flags: W
LayerCount: 2
Fore
SplineSet
348 1585 m 1
 504 1585 l 1
 710 1335 l 1
 602 1335 l 1
 360 1572 l 1
 348 1585 l 1
1062 489 m 2
 1062 157.666666667 899.666666667 -8 575 -8 c 0
 409 -8 286.666666667 35.5 208 122.5 c 128
 129.333333333 209.5 90 331.666666667 90 489 c 2
 90 1255 l 1
 219 1255 l 1
 219 523 l 2
 219 374.333333333 246.666666667 267.333333333 302 202 c 0
 358 136.666666667 450.666666667 104 580 104 c 0
 709.333333333 104 800 137.333333333 852 204 c 0
 904 270.666666667 930.666666667 377 932 523 c 1
 932 1255 l 1
 1062 1255 l 1
 1062 489 l 2
EndSplineSet
Validated: 1
EndChar

StartChar: Egrave
Encoding: 200 200 408
Width: 1034
VWidth: 1731
Flags: W
LayerCount: 2
Fore
SplineSet
254 1588 m 1
 409 1588 l 1
 606 1350 l 1
 616 1339 l 1
 507 1339 l 1
 254 1588 l 1
90 35 m 1
 90 1259 l 1
 928 1259 l 1
 928 1146 l 1
 219 1146 l 1
 219 728 l 1
 860 728 l 1
 860 616 l 1
 219 616 l 1
 219 147 l 1
 944 147 l 1
 944 35 l 1
 90 35 l 1
EndSplineSet
Validated: 1
EndChar

StartChar: otilde
Encoding: 245 245 409
Width: 1020
VWidth: 1688
Flags: W
LayerCount: 2
Fore
SplineSet
241 974 m 1
 247 1020.66666667 259 1057 277 1083 c 0
 309.666666667 1129.66666667 352 1153 404 1153 c 0
 431.333333333 1153 457.5 1147.5 482.5 1136.5 c 128
 507.5 1125.5 535.666666667 1112.83333333 567 1098.5 c 128
 598.333333333 1084.16666667 626 1077 650 1077 c 128
 674 1077 690.833333333 1085.16666667 700.5 1101.5 c 128
 710.166666667 1117.83333333 717.333333333 1137.66666667 722 1161 c 1
 800 1161 l 1
 798 1143.66666667 795.666666667 1129.83333333 793 1119.5 c 128
 790.333333333 1109.16666667 788 1098.66666667 786 1088 c 1
 785 1087 l 1
 752.333333333 1016.33333333 710.666666667 981 660 981 c 0
 629.333333333 981 602.833333333 985.166666667 580.5 993.5 c 128
 558.166666667 1001.83333333 527.833333333 1014.5 489.5 1031.5 c 128
 451.166666667 1048.5 419.833333333 1057 395.5 1057 c 128
 371.166666667 1057 353.833333333 1049.83333333 343.5 1035.5 c 128
 333.166666667 1021.16666667 323.666666667 1000.66666667 315 974 c 1
 241 974 l 1
807 424 m 2
 807 468 l 2
 807 494.666666667 801.666666667 530 791 574 c 0
 753.666666667 719.333333333 659.666666667 792 509 792 c 0
 406.333333333 792 331.166666667 757.5 283.5 688.5 c 128
 235.833333333 619.5 212 532 212 426 c 128
 212 320 237 234.833333333 287 170.5 c 128
 337 106.166666667 409.333333333 74 504 74 c 2
 509 74 l 2
 612.333333333 74 687.833333333 108.833333333 735.5 178.5 c 128
 783.166666667 248.166666667 807 330 807 424 c 2
509 -32 m 1
 315 -28 186 59.3333333333 122 230 c 0
 100.666666667 287.333333333 90 351.666666667 90 423 c 0
 90 639.666666667 167.333333333 785.666666667 322 861 c 0
 375.333333333 885.666666667 438 898 510 898 c 128
 582 898 644.666666667 885.666666667 698 861 c 0
 852.666666667 789 930 644.666666667 930 428 c 0
 930 293.333333333 892.666666667 183 818 97 c 128
 743.333333333 11 640.333333333 -32 509 -32 c 1
EndSplineSet
Validated: 1
EndChar

StartChar: Ntilde
Encoding: 209 209 410
Width: 1160
VWidth: 1727
Flags: W
LayerCount: 2
Fore
SplineSet
721 1457 m 0
 759 1457 782.666666667 1485.33333333 792 1542 c 1
 871 1542 l 1
 869.666666667 1512.66666667 863.666666667 1486 853 1462 c 0
 823 1395.33333333 779 1361.66666667 721 1361 c 0
 688.333333333 1361 652.5 1369.83333333 613.5 1387.5 c 128
 574.5 1405.16666667 545.166666667 1417.83333333 525.5 1425.5 c 128
 505.833333333 1433.16666667 485.166666667 1437 463.5 1437 c 128
 441.833333333 1437 424.833333333 1428 412.5 1410 c 128
 400.166666667 1392 392 1373.66666667 388 1355 c 1
 312 1355 l 1
 317.333333333 1400.33333333 329.333333333 1437.33333333 348 1466 c 1
 382 1511.33333333 423.666666667 1534 473 1534 c 0
 501 1534 543.666666667 1521.16666667 601 1495.5 c 128
 658.333333333 1469.83333333 698.333333333 1457 721 1457 c 0
925 23 m 1
 219 1072 l 1
 219 23 l 1
 90 23 l 1
 90 1254 l 1
 230 1254 l 1
 941 201 l 1
 941 1254 l 1
 1070 1254 l 1
 1070 23 l 1
 925 23 l 1
EndSplineSet
Validated: 1
EndChar

